<?xml version="1.0" encoding="UTF-8"?>
<svg id="Layer_2" data-name="Layer 2" xmlns="http://www.w3.org/2000/svg" viewBox="0 0 1755.72 1742.83">
  <defs>
    <style>
      .cls-1 {
        fill: none;
      }

      .cls-2 {
        fill: #f6fafd;
      }

      .cls-3 {
        fill: #f8a66c;
      }

      .cls-4 {
        fill: #f9b889;
      }

      .cls-5 {
        fill: #ed836e;
      }

      .cls-6 {
        fill: #ffa188;
      }

      .cls-7 {
        fill: #fff;
      }

      .cls-8 {
        fill: #ead6c5;
      }

      .cls-9 {
        fill: #6c7cdd;
      }

      .cls-10 {
        fill: #97aaef;
      }

      .cls-11 {
        fill: #6676be;
      }

      .cls-12 {
        fill: #c4d2ff;
      }

      .cls-13 {
        fill: #dcdfed;
      }

      .cls-14 {
        fill: #c6aa95;
      }

      .cls-15 {
        fill: #c9793c;
      }

      .cls-16 {
        fill: #1d263f;
      }

      .cls-17 {
        fill: #7186e2;
      }

      .cls-18 {
        fill: #465ab3;
      }

      .cls-19 {
        fill: #5564a2;
      }

      .cls-20 {
        fill: #643a24;
      }

      .cls-21 {
        fill: #2d3969;
      }

      .cls-22 {
        fill: #4b2c1b;
      }

      .cls-23 {
        fill: #5971d4;
      }

      .cls-24 {
        fill: #4d5b8c;
      }

      .cls-25 {
        fill: #7a91e6;
      }
    </style>
  </defs>
  <g id="Layer_5" data-name="Layer 5">
    <path class="cls-2" d="M1755.72,874.26c0,479.69-388.87,868.56-868.56,868.56S18.59,1353.96,18.59,874.26c0-243.44-13.26-601.27,148.09-758.97C323.26-37.75,650.9,5.7,887.15,5.7s556.2-26.18,713.3,130.45c157.73,157.25,155.26,497.79,155.26,738.11Z"/>
    <path class="cls-1" d="M1755.72,874.26c0,479.69-388.87,868.56-868.56,868.56S18.59,1353.96,18.59,874.26c0-243.44-13.26-601.27,148.09-758.97C323.26-37.75,650.9,5.7,887.15,5.7s556.2-26.18,713.3,130.45c157.73,157.25,155.26,497.79,155.26,738.11Z"/>
    <g>
      <path class="cls-18" d="M1595.16,684.94V366.69h-.15c-2.6-80.74-39.54-144.76-84.74-144.76s-82.15,64.02-84.74,144.76h-.15v318.25h169.79Z"/>
      <path class="cls-11" d="M1596.66,686.44h-172.79V365.19h.2c3.04-81.29,40.74-144.76,86.19-144.76s83.16,63.47,86.19,144.76h.2v321.25Zm-169.79-3h166.79V368.19h-.1l-.05-1.45c-2.59-80.36-39.15-143.31-83.25-143.31s-80.66,62.95-83.25,143.31l-.05,1.45h-.1v315.25Z"/>
    </g>
    <g>
      <g>
        <path class="cls-19" d="M1699.55,679.82c-.87-18.36-19.21-33.9-41.1-33.9H512.66c-7.56,0-19.97,8.65-23.06,14.5-1.22,1.88-3.31,7.38-3.63,9.93-.19,.95-.36,1.91-.46,2.9l-.63,8.92h.05l-54.64,636.48c-1.12,16.08-5.57,73.91-7.88,103.84-.82,10.45-9.68,18.23-20.8,18.22l-380.76-.31c-12.4,0-21.75,9.63-20.79,21.43l.05,.41c.93,9.06,7.72,16.67,16.52,19.44,2.3,.72,4.74,1.12,7.24,1.12H1591.36c4.01,0,7.76-.29,11.28-.84,30.07-4.77,43.03-28.91,43.14-57.02,.01-.41,.02-.82,.06-1.24l52.37-724.14,1.33-18.39c.01-.31,0-.63,.01-.92v-.13c-.01-.1,0-.18-.01-.28Zm-149.16,761.79l-1058.62-.84c-13.61-.01-24.85-11.51-23.77-24.3,6.09-71.99,23.95-290.4,38.74-471.81l1.22,1.09,16.79-222.44c1.38-17.47,7.19-29.78,17.37-37.71,6.1-4.75,13.75-7.94,22.97-9.74,6.18-1.21,13.04-1.77,20.61-1.77H1624.07c13.51,0,36.1,14.27,34.73,35.4-7.55,117.1-49.37,609.15-49.37,609.15-1.54,21.99-3.02,57.86-4.15,79.91-.29,5.63-1.09,10.59-2.38,14.97-6.53,22.15-25.42,28.88-52.52,28.1Z"/>
        <path class="cls-12" d="M1566.28,1441.67H509.31c-23.36,0-42.66-17.67-41.06-37.6l56.14-701.01c1.33-16.58,16.86-28.99,36.3-28.99H1617.66c23.36,0,42.66,17.67,41.06,37.6l-56.14,701.01c-1.33,16.58-16.86,28.99-36.3,28.99Z"/>
        <g>
          <g>
            <polygon class="cls-17" points="225.98 1441.14 92.2 1441.14 92.03 1412.36 225.81 1412.36 225.98 1441.14"/>
            <path class="cls-11" d="M226.88,1442.04H91.31l-.18-30.58H226.7l.18,30.58Zm-133.78-1.8H225.07l-.16-26.98H92.94l.16,26.98Z"/>
          </g>
          <g>
            <polygon class="cls-17" points="373.26 1441.14 239.48 1441.14 239.32 1412.36 373.09 1412.36 373.26 1441.14"/>
            <path class="cls-11" d="M374.16,1442.04H238.59l-.18-30.58h135.57l.18,30.58Zm-133.78-1.8h131.97l-.16-26.98H240.22l.16,26.98Z"/>
          </g>
          <g>
            <polygon class="cls-17" points="520.54 1441.14 386.77 1441.14 386.6 1412.36 520.37 1412.36 520.54 1441.14"/>
            <path class="cls-11" d="M521.45,1442.04h-135.57l-.18-30.58h135.57l.18,30.58Zm-133.78-1.8h131.97l-.16-26.98h-131.97l.16,26.98Z"/>
          </g>
          <g>
            <polygon class="cls-17" points="1122.3 1441.14 988.53 1441.14 988.36 1412.36 1122.14 1412.36 1122.3 1441.14"/>
            <path class="cls-11" d="M1123.21,1442.04h-135.57l-.18-30.58h135.57l.18,30.58Zm-133.78-1.8h131.97l-.16-26.98h-131.97l.16,26.98Z"/>
          </g>
          <g>
            <polygon class="cls-17" points="1269.59 1441.14 1135.81 1441.14 1135.64 1412.36 1269.42 1412.36 1269.59 1441.14"/>
            <path class="cls-11" d="M1270.49,1442.04h-135.57l-.18-30.58h135.57l.18,30.58Zm-133.78-1.8h131.97l-.16-26.98h-131.97l.16,26.98Z"/>
          </g>
          <g>
            <polygon class="cls-17" points="1416.87 1441.14 1283.1 1441.14 1282.93 1412.36 1416.7 1412.36 1416.87 1441.14"/>
            <path class="cls-11" d="M1417.77,1442.04h-135.57l-.18-30.58h135.57l.18,30.58Zm-133.78-1.8h131.97l-.16-26.98h-131.97l.16,26.98Z"/>
          </g>
          <g>
            <polygon class="cls-17" points="1563.28 1441.14 1429.51 1441.14 1429.34 1412.36 1563.11 1412.36 1563.28 1441.14"/>
            <path class="cls-11" d="M1564.18,1442.04h-135.57l-.18-30.58h135.57l.18,30.58Zm-133.78-1.8h131.97l-.16-26.98h-131.97l.16,26.98Z"/>
          </g>
          <g>
            <polygon class="cls-17" points="944.38 1441.14 534.05 1441.14 533.88 1412.36 944.21 1412.36 944.38 1441.14"/>
            <path class="cls-11" d="M945.28,1442.04h-412.13l-.18-30.58h412.13l.18,30.58Zm-410.34-1.8h408.53l-.16-26.98h-408.53l.16,26.98Z"/>
          </g>
        </g>
        <polygon class="cls-19" points=".44 1464.31 1.72 1481.64 29.94 1482.77 .44 1464.31"/>
        <path class="cls-16" d="M1744.27,679.82c-.86-18.36-19.21-33.9-41.11-33.9h-44.72c21.9,0,40.24,15.54,41.1,33.9,.01,.1,0,.18,.01,.28v.13c-.01,.29,0,.6-.01,.92l-1.33,18.39-52.37,724.14c-.04,.42-.05,.83-.06,1.24-.11,28.11-13.08,52.25-43.14,57.02-2.33,.4-4.74,.69-7.23,.84-2.28,.14-4.61,.18-7,.12l-149.18-.12-1393.16-1.11H16.63s-14.91-.02-14.91-.02c1.04,12.85,7.43,24.44,16.94,32.83,9.52,8.4,22.13,13.56,35.65,13.56H1620.19c39.23,0,65.22-30.51,68.18-66.4l54.18-757.14,1.75-24.39c-.01-.1-.01-.18-.02-.28Z"/>
      </g>
      <path class="cls-10" d="M1623.54,674.08H562.89c-20.86,0-38.94,16.93-40.38,37.82l-2.13,30.87H1656.57l2.13-30.87c2.59-19.88-15.86-37.02-35.16-37.82Z"/>
      <path class="cls-11" d="M1620.44,708.42c-.65,9.46-8.85,17.13-18.32,17.13s-16.6-7.67-15.95-17.13c.65-9.46,8.85-17.13,18.32-17.13s16.6,7.67,15.95,17.13Z"/>
      <path class="cls-11" d="M1566.01,708.42c-.65,9.46-8.85,17.13-18.32,17.13s-16.6-7.67-15.95-17.13c.65-9.46,8.85-17.13,18.32-17.13s16.6,7.67,15.95,17.13Z"/>
      <path class="cls-11" d="M1511.57,708.42c-.65,9.46-8.85,17.13-18.32,17.13s-16.6-7.67-15.95-17.13c.65-9.46,8.85-17.13,18.32-17.13s16.6,7.67,15.95,17.13Z"/>
    </g>
    <g>
      <rect class="cls-16" x="449.47" y="50.12" width="474.68" height="738.15" rx="71.22" ry="71.22"/>
      <rect class="cls-24" x="425.68" y="50.12" width="474.68" height="738.15" rx="71.36" ry="71.36"/>
      <path class="cls-11" d="M829,789.27H497.04c-39.89,0-72.35-32.46-72.35-72.35V121.47c0-39.89,32.46-72.35,72.35-72.35h331.97c39.89,0,72.35,32.46,72.35,72.35V716.92c0,39.89-32.46,72.35-72.35,72.35ZM497.04,51.11c-38.8,0-70.36,31.56-70.36,70.36V716.92c0,38.8,31.56,70.36,70.36,70.36h331.97c38.8,0,70.36-31.56,70.36-70.36V121.47c0-38.8-31.56-70.36-70.36-70.36H497.04Z"/>
      <g>
        <circle class="cls-21" cx="538.21" cy="320.17" r="48.19"/>
        <circle class="cls-21" cx="672.2" cy="320.17" r="48.19"/>
        <circle class="cls-21" cx="800.14" cy="320.17" r="48.19"/>
        <circle class="cls-21" cx="538.21" cy="449.48" r="48.19" transform="translate(-105.61 727.34) rotate(-63.21)"/>
        <circle class="cls-21" cx="672.2" cy="449.48" r="48.19" transform="translate(46.25 961.41) rotate(-73.05)"/>
        <circle class="cls-21" cx="800.14" cy="449.48" r="48.19" transform="translate(28.81 946.79) rotate(-62.14)"/>
        <circle class="cls-21" cx="538.21" cy="578.79" r="48.19" transform="translate(-83.33 1067.02) rotate(-85.23)"/>
        <circle class="cls-21" cx="672.2" cy="578.79" r="48.19" transform="translate(56.93 1217.78) rotate(-86.81)"/>
        <circle class="cls-21" cx="800.14" cy="578.79" r="48.19" transform="translate(154.42 1325.97) rotate(-85.05)"/>
        <circle class="cls-21" cx="538.21" cy="708.1" r="48.19" transform="translate(-212.19 1185.58) rotate(-85.23)"/>
        <circle class="cls-21" cx="672.2" cy="708.1" r="48.19" transform="translate(-72.18 1339.9) rotate(-86.81)"/>
        <circle class="cls-21" cx="800.14" cy="708.1" r="48.19" transform="translate(25.59 1444.11) rotate(-85.05)"/>
      </g>
      <g>
        <circle class="cls-7" cx="523.39" cy="320.17" r="48.19"/>
        <path class="cls-25" d="M523.39,369.45c-27.17,0-49.28-22.11-49.28-49.28s22.11-49.28,49.28-49.28,49.28,22.11,49.28,49.28-22.11,49.28-49.28,49.28Zm0-96.39c-25.97,0-47.11,21.13-47.11,47.11s21.13,47.11,47.11,47.11,47.11-21.13,47.11-47.11-21.13-47.11-47.11-47.11Z"/>
      </g>
      <g>
        <circle class="cls-7" cx="657.39" cy="320.17" r="48.19"/>
        <path class="cls-25" d="M657.39,369.45c-27.17,0-49.28-22.11-49.28-49.28s22.11-49.28,49.28-49.28,49.28,22.11,49.28,49.28-22.11,49.28-49.28,49.28Zm0-96.39c-25.97,0-47.11,21.13-47.11,47.11s21.13,47.11,47.11,47.11,47.11-21.13,47.11-47.11-21.13-47.11-47.11-47.11Z"/>
      </g>
      <g>
        <circle class="cls-7" cx="785.32" cy="320.17" r="48.19"/>
        <path class="cls-25" d="M785.32,369.45c-27.17,0-49.28-22.11-49.28-49.28s22.11-49.28,49.28-49.28,49.28,22.11,49.28,49.28-22.11,49.28-49.28,49.28Zm0-96.39c-25.97,0-47.11,21.13-47.11,47.11s21.13,47.11,47.11,47.11,47.11-21.13,47.11-47.11-21.13-47.11-47.11-47.11Z"/>
      </g>
      <g>
        <circle class="cls-7" cx="523.39" cy="449.48" r="48.19" transform="translate(-113.75 714.11) rotate(-63.21)"/>
        <path class="cls-25" d="M523.39,498.76c-27.17,0-49.28-22.11-49.28-49.28s22.11-49.28,49.28-49.28,49.28,22.11,49.28,49.28-22.11,49.28-49.28,49.28Zm0-96.39c-25.97,0-47.11,21.13-47.11,47.11s21.13,47.11,47.11,47.11,47.11-21.13,47.11-47.11-21.13-47.11-47.11-47.11Z"/>
      </g>
      <g>
        <circle class="cls-7" cx="657.39" cy="449.48" r="48.19" transform="translate(68.24 985.29) rotate(-76.65)"/>
        <path class="cls-25" d="M657.39,498.76c-27.17,0-49.28-22.11-49.28-49.28s22.11-49.28,49.28-49.28,49.28,22.11,49.28,49.28-22.11,49.28-49.28,49.28Zm0-96.39c-25.97,0-47.11,21.13-47.11,47.11s21.13,47.11,47.11,47.11,47.11-21.13,47.11-47.11-21.13-47.11-47.11-47.11Z"/>
      </g>
      <g>
        <circle class="cls-7" cx="785.32" cy="449.48" r="48.19" transform="translate(40.55 963.37) rotate(-64.39)"/>
        <path class="cls-25" d="M785.32,498.76c-27.17,0-49.28-22.11-49.28-49.28s22.11-49.28,49.28-49.28,49.28,22.11,49.28,49.28-22.11,49.28-49.28,49.28Zm0-96.39c-25.97,0-47.11,21.13-47.11,47.11s21.13,47.11,47.11,47.11,47.11-21.13,47.11-47.11-21.13-47.11-47.11-47.11Z"/>
      </g>
      <g>
        <circle class="cls-7" cx="523.39" cy="578.79" r="48.19" transform="translate(-96.91 1052.25) rotate(-85.23)"/>
        <path class="cls-25" d="M523.39,628.07c-27.17,0-49.28-22.11-49.28-49.28s22.11-49.28,49.28-49.28,49.28,22.11,49.28,49.28-22.11,49.28-49.28,49.28Zm0-96.39c-25.97,0-47.11,21.13-47.11,47.11s21.13,47.11,47.11,47.11,47.11-21.13,47.11-47.11-21.13-47.11-47.11-47.11Z"/>
      </g>
      <g>
        <circle class="cls-7" cx="657.39" cy="578.79" r="48.19" transform="translate(49.27 1209.15) rotate(-87.39)"/>
        <path class="cls-25" d="M657.39,628.07c-27.17,0-49.28-22.11-49.28-49.28s22.11-49.28,49.28-49.28,49.28,22.11,49.28,49.28-22.11,49.28-49.28,49.28Zm0-96.39c-25.97,0-47.11,21.13-47.11,47.11s21.13,47.11,47.11,47.11,47.11-21.13,47.11-47.11-21.13-47.11-47.11-47.11Z"/>
      </g>
      <g>
        <circle class="cls-7" cx="785.32" cy="578.79" r="48.19" transform="translate(145.78 1315.49) rotate(-85.43)"/>
        <path class="cls-25" d="M785.32,628.07c-27.17,0-49.28-22.11-49.28-49.28s22.11-49.28,49.28-49.28,49.28,22.11,49.28,49.28-22.11,49.28-49.28,49.28Zm0-96.39c-25.97,0-47.11,21.13-47.11,47.11s21.13,47.11,47.11,47.11,47.11-21.13,47.11-47.11-21.13-47.11-47.11-47.11Z"/>
      </g>
      <circle class="cls-16" cx="523.39" cy="708.1" r="48.19" transform="translate(-225.77 1170.81) rotate(-85.23)"/>
      <circle class="cls-16" cx="657.39" cy="708.1" r="48.19" transform="translate(-79.9 1332.58) rotate(-87.39)"/>
      <circle class="cls-16" cx="785.32" cy="708.1" r="48.19" transform="translate(16.88 1434.49) rotate(-85.43)"/>
      <path class="cls-16" d="M828.24,226.24l-320.3,.11c-11.1,0-20.11-9-20.11-20.1l-.02-68.94c0-11.1,9-20.11,20.1-20.11l320.3-.11c11.1,0,20.11,9,20.11,20.1l.02,68.94c0,11.1-9,20.11-20.1,20.11Z"/>
      <path class="cls-17" d="M815.63,226.24l-320.3,.11c-11.1,0-20.11-9-20.11-20.1l-.02-68.94c0-11.1,9-20.11,20.1-20.11l320.3-.11c11.1,0,20.11,9,20.11,20.1l.02,68.94c0,11.1-9,20.11-20.1,20.11Z"/>
      <g>
        <path class="cls-7" d="M530.92,134.67c9.22,0,18.43,0,28,0-.33,.92-.49,1.6-.77,2.12-2.71,4.88-5.72,8.27-10.46,7.19-3.18-.72-6.51,.01-9.76-.22-1.05-.08-2.23-.86-3.05-1.87-1.56-1.93-2.9-4.26-4.33-6.42,.12-.27,.24-.53,.37-.8Z"/>
        <path class="cls-7" d="M558.58,208.99c-9.22,0-18.43,0-27.93,0,.27-.83,.38-1.47,.63-1.9q4.26-7.2,10.81-7.2c3.13,0,6.27,.09,9.4-.04,1.36-.06,2.34,.59,3.25,2.06,1.34,2.18,2.78,4.21,4.18,6.3-.11,.26-.23,.52-.34,.78Z"/>
        <path class="cls-7" d="M530.39,134.47c9.53,0,18.81,0,28.09,0,.06,.25,.11,.5,.17,.75-2.93,3.04-4.3,9.2-9.2,8.33-3.84-.68-7.78,.11-11.68,.03-.87-.02-1.93-.62-2.56-1.5-1.64-2.27-3.09-4.84-4.81-7.61Z"/>
        <path class="cls-7" d="M530.33,208.2c1.77-2.57,3.49-5.2,5.33-7.65,.41-.55,1.22-.59,1.84-.6,4.7-.05,9.4-.11,14.09,.04,.87,.03,1.9,.69,2.56,1.56,1.59,2.13,2.99,4.56,4.83,7.42-9.77,0-19.05,0-28.32,0-.11-.26-.23-.52-.34-.79Z"/>
        <path class="cls-7" d="M560.24,172.92c0,11.59,0,22.63,0,33.67-.15,.14-.29,.29-.44,.43-1.73-2.53-3.65-4.84-5.09-7.69-.66-1.31-.5-3.67-.52-5.56-.06-4.66,.02-9.31-.04-13.97-.02-1.78,.34-2.9,1.48-3.61,1.47-.92,2.89-2.03,4.62-3.28Z"/>
        <path class="cls-7" d="M560.24,170.82c-2-1.48-3.67-2.57-5.21-3.96-.47-.42-.81-1.71-.82-2.61-.07-5.82-.05-11.64-.03-17.46,0-.67-.03-1.56,.22-1.96,1.76-2.77,3.6-5.45,5.41-8.15,.14,.13,.28,.25,.43,.38,0,11.05,0,22.1,0,33.77Z"/>
        <path class="cls-7" d="M529.08,206.81c0-11.04,0-22.09,0-33.14,3.27-.16,6.04,3.58,6.05,8.27,0,4.69,.1,9.39-.07,14.07-.05,1.58-.55,3.36-1.22,4.6-1.28,2.37-2.83,4.42-4.27,6.61-.16-.14-.33-.27-.49-.41Z"/>
        <path class="cls-7" d="M529.08,170.78c0-11.65,0-22.58,0-33.51,.17-.16,.35-.31,.52-.47,1.26,1.87,2.43,3.9,3.79,5.58,1.61,1.97,1.83,4.43,1.75,7.27-.13,4.78-.03,9.57-.21,14.34-.04,1.08-.65,2.45-1.27,3.09-1.32,1.35-2.81,2.32-4.57,3.7Z"/>
        <path class="cls-7" d="M560.04,172.79c0,11.79,0,22.84,0,33.89-.15,.19-.3,.38-.45,.57-.97-1.43-1.88-2.96-2.92-4.26-2.09-2.61-3.09-5.68-2.82-9.94,.26-4.16,.06-8.38,.03-12.58-.01-2.03,.37-3.54,1.74-4.41,1.41-.89,2.74-2.02,4.41-3.28Z"/>
        <path class="cls-7" d="M529.29,206.56c0-10.99,0-21.98,0-33.65,2.04,1.55,3.89,2.83,5.65,4.37,.34,.3,.42,1.58,.42,2.4,.04,5.64,.07,11.28-.02,16.91-.02,1.14-.38,2.46-.86,3.36-1.38,2.56-2.9,4.95-4.36,7.4-.27-.27-.54-.53-.82-.8Z"/>
        <path class="cls-7" d="M559.97,137.09c0,10.96,0,21.91,0,33.68-1.98-1.65-3.92-2.8-5.42-4.73-.65-.83-.46-3.27-.5-4.98-.1-4.1-.05-8.21-.17-12.31-.07-2.42,.4-4.31,1.6-5.99,1.36-1.92,2.57-4.08,3.84-6.14,.22,.16,.43,.31,.65,.47Z"/>
        <g>
          <path class="cls-7" d="M509.09,172.78c0,11.79,0,22.84,0,33.89-.15,.19-.3,.38-.45,.57-.97-1.43-1.88-2.96-2.92-4.26-2.09-2.61-3.09-5.68-2.82-9.94,.26-4.16,.06-8.38,.03-12.58-.01-2.03,.37-3.54,1.74-4.41,1.41-.89,2.74-2.02,4.41-3.28Z"/>
          <path class="cls-7" d="M509.02,137.08c0,10.96,0,21.91,0,33.68-1.98-1.65-3.92-2.8-5.42-4.73-.65-.83-.46-3.27-.5-4.98-.1-4.1-.05-8.21-.17-12.31-.07-2.42,.4-4.31,1.6-5.99,1.36-1.92,2.57-4.08,3.84-6.14,.22,.16,.43,.31,.65,.47Z"/>
        </g>
        <path class="cls-7" d="M529.96,136.47c1.63,2.62,3.3,5.18,4.86,7.89,.37,.65,.51,1.78,.52,2.69,.05,5.64,.1,11.28-.04,16.91-.03,1.14-.72,2.6-1.39,3.26-1.37,1.36-2.93,2.28-4.65,3.55,0-11.63,0-22.63,0-33.63,.23-.23,.47-.46,.7-.69Z"/>
        <path class="cls-7" d="M578.34,134.68c9.22,0,18.43,0,28,0-.33,.92-.49,1.6-.77,2.12-2.71,4.88-5.72,8.27-10.46,7.19-3.18-.72-6.51,.01-9.76-.22-1.05-.08-2.23-.86-3.05-1.87-1.56-1.93-2.9-4.26-4.33-6.42,.12-.27,.24-.53,.37-.8Z"/>
        <path class="cls-7" d="M606.01,208.99c-9.22,0-18.43,0-27.93,0,.27-.83,.38-1.47,.63-1.9q4.26-7.2,10.81-7.2c3.13,0,6.27,.09,9.4-.04,1.36-.06,2.34,.59,3.25,2.06,1.34,2.18,2.78,4.21,4.18,6.3-.11,.26-.23,.52-.34,.78Z"/>
        <path class="cls-7" d="M577.81,134.48c9.53,0,18.81,0,28.09,0,.06,.25,.11,.5,.17,.75-2.93,3.04-4.3,9.2-9.2,8.33-3.84-.68-7.78,.11-11.68,.03-.87-.02-1.93-.62-2.56-1.5-1.64-2.27-3.09-4.84-4.81-7.61Z"/>
        <path class="cls-7" d="M577.76,208.21c1.77-2.57,3.49-5.2,5.33-7.65,.41-.55,1.22-.59,1.84-.6,4.7-.05,9.4-.11,14.09,.04,.87,.03,1.9,.69,2.56,1.56,1.59,2.13,2.99,4.56,4.83,7.42-9.77,0-19.05,0-28.32,0-.11-.26-.23-.52-.34-.79Z"/>
        <path class="cls-7" d="M607.67,172.93c0,11.59,0,22.63,0,33.67-.15,.14-.29,.29-.44,.43-1.73-2.53-3.65-4.84-5.09-7.69-.66-1.31-.5-3.67-.52-5.56-.06-4.65,.02-9.31-.04-13.97-.02-1.78,.34-2.9,1.48-3.61,1.47-.92,2.89-2.03,4.62-3.28Z"/>
        <path class="cls-7" d="M607.67,170.82c-2-1.48-3.67-2.57-5.21-3.96-.47-.43-.81-1.71-.82-2.61-.07-5.82-.04-11.64-.03-17.46,0-.67-.03-1.56,.22-1.96,1.76-2.77,3.6-5.45,5.41-8.15,.14,.13,.28,.25,.43,.38,0,11.05,0,22.1,0,33.77Z"/>
        <path class="cls-7" d="M576.51,206.81c0-11.04,0-22.09,0-33.14,3.27-.16,6.04,3.58,6.05,8.27,0,4.69,.1,9.39-.07,14.07-.05,1.58-.55,3.36-1.22,4.6-1.28,2.37-2.83,4.42-4.27,6.61-.16-.14-.33-.27-.49-.41Z"/>
        <path class="cls-7" d="M576.51,170.78c0-11.65,0-22.58,0-33.51,.17-.16,.35-.31,.52-.47,1.26,1.87,2.43,3.9,3.79,5.58,1.61,1.97,1.83,4.43,1.75,7.27-.13,4.78-.03,9.57-.21,14.34-.04,1.08-.65,2.45-1.27,3.09-1.32,1.35-2.81,2.32-4.57,3.7Z"/>
        <path class="cls-7" d="M607.47,172.79c0,11.79,0,22.84,0,33.89-.15,.19-.3,.38-.45,.57-.97-1.43-1.88-2.96-2.92-4.26-2.09-2.61-3.09-5.68-2.82-9.94,.26-4.16,.06-8.38,.03-12.58-.01-2.03,.37-3.54,1.74-4.41,1.41-.89,2.74-2.02,4.41-3.28Z"/>
        <path class="cls-7" d="M576.71,206.56c0-10.99,0-21.98,0-33.65,2.04,1.55,3.89,2.83,5.65,4.37,.34,.3,.42,1.58,.42,2.4,.04,5.64,.07,11.28-.02,16.91-.02,1.14-.38,2.46-.86,3.36-1.38,2.56-2.9,4.95-4.36,7.4-.27-.27-.54-.53-.82-.8Z"/>
        <path class="cls-7" d="M607.4,137.09c0,10.96,0,21.91,0,33.68-1.98-1.65-3.92-2.8-5.42-4.73-.65-.83-.46-3.27-.5-4.98-.1-4.1-.05-8.21-.17-12.31-.07-2.42,.4-4.31,1.6-5.99,1.36-1.92,2.57-4.08,3.84-6.14,.22,.16,.43,.31,.65,.47Z"/>
        <path class="cls-7" d="M577.39,136.47c1.63,2.62,3.3,5.18,4.86,7.89,.37,.65,.51,1.78,.52,2.69,.05,5.64,.1,11.28-.04,16.91-.03,1.14-.72,2.6-1.39,3.26-1.37,1.36-2.93,2.28-4.65,3.55,0-11.63,0-22.63,0-33.63,.23-.23,.47-.46,.7-.69Z"/>
        <path class="cls-7" d="M625.77,134.68c9.22,0,18.43,0,28,0-.33,.92-.49,1.6-.77,2.12-2.71,4.88-5.72,8.27-10.46,7.19-3.18-.72-6.51,.01-9.76-.22-1.05-.08-2.23-.86-3.05-1.87-1.56-1.93-2.9-4.26-4.33-6.42,.12-.27,.24-.53,.37-.8Z"/>
        <path class="cls-7" d="M653.44,208.99c-9.22,0-18.43,0-27.93,0,.27-.83,.38-1.47,.63-1.9q4.26-7.2,10.81-7.2c3.13,0,6.27,.09,9.4-.04,1.36-.06,2.34,.59,3.25,2.06,1.34,2.18,2.78,4.21,4.18,6.3-.11,.26-.23,.52-.34,.78Z"/>
        <path class="cls-7" d="M625.24,134.48c9.53,0,18.81,0,28.09,0,.06,.25,.11,.5,.17,.75-2.93,3.04-4.3,9.2-9.2,8.33-3.84-.68-7.78,.11-11.68,.03-.87-.02-1.93-.62-2.56-1.5-1.64-2.27-3.09-4.84-4.81-7.61Z"/>
        <path class="cls-7" d="M625.19,208.21c1.77-2.57,3.49-5.2,5.33-7.65,.41-.55,1.22-.59,1.84-.6,4.7-.05,9.4-.11,14.09,.04,.87,.03,1.9,.69,2.56,1.56,1.59,2.13,2.99,4.56,4.83,7.42-9.77,0-19.05,0-28.32,0-.11-.26-.23-.52-.34-.79Z"/>
        <path class="cls-7" d="M655.1,172.93c0,11.59,0,22.63,0,33.67-.15,.14-.29,.29-.44,.43-1.73-2.53-3.65-4.84-5.09-7.69-.66-1.31-.5-3.67-.52-5.56-.06-4.65,.02-9.31-.04-13.97-.02-1.78,.34-2.9,1.48-3.61,1.47-.92,2.89-2.03,4.62-3.28Z"/>
        <path class="cls-7" d="M655.09,170.82c-2-1.48-3.67-2.57-5.21-3.96-.47-.42-.81-1.71-.82-2.61-.07-5.82-.05-11.64-.03-17.46,0-.67-.03-1.56,.22-1.96,1.76-2.77,3.6-5.45,5.41-8.15,.14,.13,.28,.25,.43,.38,0,11.05,0,22.1,0,33.77Z"/>
        <path class="cls-7" d="M623.94,206.81c0-11.04,0-22.09,0-33.14,3.27-.16,6.04,3.58,6.05,8.27,0,4.69,.1,9.39-.07,14.07-.05,1.58-.55,3.36-1.22,4.6-1.28,2.37-2.83,4.42-4.27,6.61-.16-.14-.33-.27-.49-.41Z"/>
        <path class="cls-7" d="M623.94,170.78c0-11.65,0-22.58,0-33.51,.17-.16,.35-.31,.52-.47,1.26,1.87,2.43,3.9,3.79,5.58,1.61,1.97,1.83,4.43,1.75,7.27-.13,4.78-.03,9.57-.21,14.34-.04,1.08-.65,2.45-1.27,3.09-1.32,1.35-2.81,2.32-4.57,3.7Z"/>
        <path class="cls-7" d="M654.89,172.79c0,11.79,0,22.84,0,33.89-.15,.19-.3,.38-.45,.57-.97-1.43-1.88-2.96-2.92-4.26-2.09-2.61-3.09-5.68-2.82-9.94,.26-4.16,.06-8.38,.03-12.58-.01-2.03,.37-3.54,1.74-4.41,1.41-.89,2.74-2.02,4.41-3.28Z"/>
        <path class="cls-7" d="M624.14,206.56c0-10.99,0-21.98,0-33.65,2.04,1.55,3.89,2.83,5.65,4.37,.34,.3,.42,1.58,.42,2.4,.04,5.64,.07,11.28-.02,16.91-.02,1.14-.38,2.46-.86,3.36-1.38,2.56-2.9,4.95-4.36,7.4-.27-.27-.54-.53-.82-.8Z"/>
        <path class="cls-7" d="M654.83,137.1c0,10.96,0,21.91,0,33.68-1.98-1.65-3.92-2.8-5.42-4.73-.65-.83-.46-3.27-.5-4.98-.1-4.1-.05-8.21-.17-12.31-.07-2.42,.4-4.31,1.6-5.99,1.36-1.92,2.57-4.08,3.84-6.14,.22,.16,.43,.31,.65,.47Z"/>
        <path class="cls-7" d="M624.81,136.47c1.63,2.62,3.3,5.18,4.86,7.89,.37,.65,.51,1.78,.52,2.69,.05,5.64,.1,11.28-.04,16.91-.03,1.14-.72,2.6-1.39,3.27-1.37,1.36-2.93,2.28-4.65,3.55,0-11.63,0-22.63,0-33.63,.23-.23,.47-.46,.7-.69Z"/>
        <path class="cls-7" d="M673.2,134.68c9.22,0,18.43,0,28,0-.33,.92-.49,1.6-.77,2.12-2.71,4.88-5.72,8.27-10.46,7.19-3.18-.72-6.51,.01-9.76-.22-1.05-.08-2.23-.86-3.05-1.87-1.56-1.93-2.9-4.26-4.33-6.42,.12-.27,.24-.53,.37-.8Z"/>
        <path class="cls-7" d="M700.87,208.99c-9.22,0-18.43,0-27.93,0,.27-.83,.38-1.47,.63-1.9q4.26-7.2,10.81-7.2c3.13,0,6.27,.09,9.4-.04,1.36-.06,2.34,.59,3.25,2.06,1.34,2.18,2.78,4.21,4.18,6.3-.11,.26-.23,.52-.34,.78Z"/>
        <path class="cls-7" d="M672.67,134.48c9.53,0,18.81,0,28.09,0,.06,.25,.11,.5,.17,.75-2.93,3.04-4.3,9.2-9.2,8.33-3.84-.68-7.78,.11-11.68,.03-.87-.02-1.93-.62-2.56-1.5-1.64-2.27-3.09-4.84-4.81-7.61Z"/>
        <path class="cls-7" d="M672.61,208.21c1.77-2.57,3.49-5.2,5.33-7.65,.41-.55,1.22-.59,1.84-.6,4.7-.05,9.4-.11,14.09,.04,.87,.03,1.9,.69,2.56,1.56,1.59,2.13,2.99,4.56,4.83,7.42-9.77,0-19.05,0-28.32,0-.11-.26-.23-.52-.34-.79Z"/>
        <path class="cls-7" d="M702.52,172.93c0,11.59,0,22.63,0,33.67-.15,.14-.29,.29-.44,.43-1.73-2.53-3.65-4.84-5.09-7.69-.66-1.31-.5-3.67-.52-5.56-.06-4.65,.02-9.31-.04-13.97-.02-1.78,.34-2.9,1.48-3.61,1.47-.92,2.89-2.03,4.62-3.28Z"/>
        <path class="cls-7" d="M702.52,170.82c-2-1.48-3.67-2.57-5.21-3.96-.47-.43-.81-1.71-.83-2.61-.07-5.82-.04-11.64-.03-17.46,0-.67-.03-1.56,.22-1.96,1.76-2.77,3.6-5.45,5.41-8.15,.14,.13,.28,.25,.43,.38,0,11.05,0,22.1,0,33.77Z"/>
        <path class="cls-7" d="M671.36,206.81c0-11.04,0-22.09,0-33.14,3.27-.16,6.04,3.58,6.05,8.27,0,4.69,.1,9.39-.07,14.07-.05,1.58-.55,3.36-1.22,4.6-1.28,2.37-2.83,4.42-4.27,6.61-.16-.14-.33-.27-.49-.41Z"/>
        <path class="cls-7" d="M671.37,170.78c0-11.65,0-22.58,0-33.51,.17-.16,.35-.31,.52-.47,1.26,1.87,2.43,3.9,3.79,5.58,1.61,1.97,1.83,4.43,1.75,7.27-.13,4.78-.03,9.57-.21,14.34-.04,1.08-.65,2.45-1.27,3.09-1.32,1.35-2.81,2.32-4.57,3.7Z"/>
        <path class="cls-7" d="M702.32,172.79c0,11.79,0,22.84,0,33.89-.15,.19-.3,.38-.45,.57-.97-1.43-1.88-2.96-2.92-4.26-2.09-2.61-3.09-5.68-2.82-9.94,.26-4.16,.06-8.38,.03-12.58-.01-2.03,.37-3.54,1.74-4.41,1.41-.89,2.74-2.02,4.41-3.28Z"/>
        <path class="cls-7" d="M671.57,206.57c0-10.99,0-21.98,0-33.65,2.04,1.55,3.89,2.83,5.65,4.37,.34,.3,.42,1.58,.42,2.4,.04,5.64,.07,11.28-.02,16.91-.02,1.14-.38,2.46-.86,3.36-1.38,2.56-2.9,4.95-4.36,7.4-.27-.27-.54-.53-.82-.8Z"/>
        <path class="cls-7" d="M702.25,137.1c0,10.96,0,21.91,0,33.68-1.98-1.65-3.92-2.8-5.42-4.73-.65-.83-.46-3.27-.5-4.98-.1-4.1-.05-8.21-.17-12.31-.07-2.42,.4-4.31,1.6-5.99,1.36-1.92,2.57-4.08,3.84-6.14,.22,.16,.43,.32,.65,.47Z"/>
        <path class="cls-7" d="M672.24,136.47c1.63,2.62,3.3,5.18,4.86,7.89,.37,.65,.51,1.78,.52,2.69,.05,5.64,.1,11.28-.04,16.91-.03,1.14-.72,2.6-1.39,3.26-1.37,1.36-2.93,2.28-4.65,3.55,0-11.63,0-22.63,0-33.63,.23-.23,.47-.46,.7-.69Z"/>
      </g>
    </g>
    <g>
      <g>
        <path class="cls-7" d="M1015.37,221.93c-84.68,0-153.9,64.02-158.76,144.76h-.28V1440.24h411.36c84.68,0,153.9-64.02,158.76-144.76h.28V366.69h.29c3.82-69.65,29.45-144.77,83.24-144.77h-494.89Z"/>
        <path class="cls-11" d="M1267.69,1441.74h-412.86V365.19h.38c5.66-81.29,75.73-144.76,160.17-144.76h494.89s0,3,0,3c-23.89,0-44.3,15.71-59.02,45.43-12.59,25.42-20.66,60.2-22.73,97.92l-.08,1.42h-.21v928.79h-.38c-5.66,81.29-75.73,144.76-160.17,144.76Zm-409.86-3h409.86c83.34,0,152.42-62.97,157.27-143.35l.08-1.41h.2V365.19h.37c2.21-37.57,10.35-72.21,22.95-97.67,11.46-23.14,26.35-38.09,43.69-44.1h-476.87c-83.34,0-152.42,62.97-157.27,143.36l-.08,1.41h-.2V1438.74Z"/>
      </g>
      <g>
        <path class="cls-18" d="M505.39,1325.22s0,90.54,82.16,115.01h503.51s-78.64-34.87-70.96-114.9l-514.71-.12Z"/>
        <path class="cls-11" d="M1091.06,1441.74h-503.73l-.21-.06c-43.01-12.81-63.36-43.81-72.85-67.57-10.26-25.66-10.38-48.66-10.38-48.89v-1.5h1.5l516.36,.12-.16,1.64c-3.91,40.71,15.3,69.34,32.1,86.18,18.29,18.34,37.78,27.11,37.98,27.2l6.46,2.87h-7.07Zm-503.29-3h497.06c-7.27-3.99-20.52-12.2-33.19-24.88-17.06-17.08-36.54-45.97-33.18-87.02l-511.53-.12c.22,5.45,1.58,24.95,10.16,46.37,9.24,23.06,28.99,53.15,70.68,65.65Z"/>
      </g>
      <g>
        <path class="cls-3" d="M978.72,358.27h108.48c13.57,0,24.59,11.02,24.59,24.59v108.48c0,13.57-11.02,24.59-24.59,24.59h-108.48c-13.57,0-24.59-11.02-24.59-24.59v-108.48c0-13.57,11.02-24.59,24.59-24.59Z"/>
        <polygon class="cls-7" points="1019.2 471.33 991.84 443.97 996.82 439 1019.2 461.38 1069.11 411.48 1074.09 416.45 1019.2 471.33"/>
        <path class="cls-9" d="M978.72,604.74h108.48c13.57,0,24.59,11.02,24.59,24.59v108.48c0,13.57-11.02,24.59-24.59,24.59h-108.48c-13.57,0-24.59-11.02-24.59-24.59v-108.48c0-13.57,11.02-24.59,24.59-24.59Z"/>
        <polygon class="cls-7" points="1019.2 717.81 991.84 690.45 996.82 685.47 1019.2 707.86 1069.11 657.95 1074.09 662.93 1019.2 717.81"/>
        <path class="cls-9" d="M978.72,851.22h108.48c13.57,0,24.59,11.02,24.59,24.59v108.48c0,13.57-11.02,24.59-24.59,24.59h-108.48c-13.57,0-24.59-11.02-24.59-24.59v-108.48c0-13.57,11.02-24.59,24.59-24.59Z"/>
        <polygon class="cls-7" points="1019.2 964.28 991.84 936.92 996.82 931.94 1019.2 954.33 1069.11 904.42 1074.09 909.4 1019.2 964.28"/>
        <rect class="cls-9" x="954.13" y="1097.69" width="157.66" height="157.66" rx="24.59" ry="24.59"/>
        <polygon class="cls-7" points="1019.2 1210.75 991.84 1183.39 996.82 1178.42 1019.2 1200.8 1069.11 1150.9 1074.09 1155.87 1019.2 1210.75"/>
        <rect class="cls-13" x="1168.52" y="461.75" width="176.05" height="33.08" rx="12.53" ry="12.53"/>
        <rect class="cls-13" x="1251.46" y="394.46" width="93.11" height="33.08" rx="12.53" ry="12.53"/>
        <rect class="cls-13" x="1168.52" y="709" width="176.05" height="33.08" rx="12.53" ry="12.53"/>
        <rect class="cls-13" x="1251.46" y="641.71" width="93.11" height="33.08" rx="12.53" ry="12.53"/>
        <rect class="cls-13" x="1168.52" y="955.48" width="176.05" height="33.08" rx="12.53" ry="12.53"/>
        <rect class="cls-13" x="1251.46" y="888.19" width="93.11" height="33.08" rx="12.53" ry="12.53"/>
        <rect class="cls-13" x="1168.52" y="1212.12" width="176.05" height="33.08" rx="12.53" ry="12.53"/>
        <rect class="cls-13" x="1251.46" y="1144.83" width="93.11" height="33.08" rx="12.53" ry="12.53"/>
      </g>
    </g>
    <g>
      <g>
        <path class="cls-6" d="M324.48,1325.69c12.16,4.37,24.92,7.03,37.81,7.9-6.86,11.93-9.14,26.42-6.29,39.88-4.95-1.69-9.89-3.39-14.84-5.08-3.99-1.37-7.99-2.74-12.03-3.93-2.05-.61-4.1-1.17-6.18-1.67-1.61-.39-3.96-.42-5.37-1.37-1.48-.99-.76-2.16-.18-3.55,.8-1.92,1.54-3.87,2.21-5.84,1.36-3.99,2.44-8.07,3.24-12.21,.9-4.66,1.45-9.39,1.62-14.14Z"/>
        <path class="cls-6" d="M340.9,1369.17c-3.92-1.34-7.96-2.73-11.99-3.92-2.21-.65-4.22-1.2-6.14-1.66-.46-.11-1-.19-1.57-.28-1.38-.21-2.93-.45-4.07-1.2-1.9-1.27-1.18-2.93-.65-4.14l.18-.41c.79-1.89,1.53-3.84,2.19-5.78,1.34-3.94,2.42-8.01,3.22-12.1,.9-4.62,1.44-9.34,1.61-14.01l.04-1.12,1.06,.38c12.11,4.35,24.75,6.99,37.59,7.86l1.31,.09-.65,1.14c-6.74,11.74-9,26.06-6.2,39.31l.3,1.41-16.21-5.55Zm-15.64-42.33c-.21,4.39-.75,8.81-1.59,13.15-.81,4.16-1.91,8.31-3.27,12.32-.68,1.98-1.42,3.97-2.23,5.89l-.19,.43c-.59,1.35-.64,1.65,.06,2.12,.83,.55,2.14,.75,3.4,.95,.61,.09,1.18,.18,1.7,.31,1.95,.47,3.99,1.02,6.22,1.68,4.06,1.2,8.13,2.6,12.07,3.94l13.49,4.62c-2.37-12.81-.2-26.48,6.02-37.92-12.17-.93-24.17-3.45-35.69-7.49Z"/>
      </g>
      <g>
        <path class="cls-21" d="M314.7,1356.87c-3.11,5.54-5.92,16.64-5.96,23.35,9.09,14.75,24.31,28.61,39.71,36.55,15.4,7.94,32.98,11.59,50.27,10.44,3.08-.2,6.61-.84,8.15-3.52,1.3-2.27,.6-5.25-.98-7.34-1.58-2.09-3.86-3.5-6.05-4.93-19.56-12.88-34.82-32.2-42.82-54.21-16.02,3.41-42.32-.34-42.32-.34Z"/>
        <path class="cls-16" d="M309.01,1376.77c.38,4.72,2.55,7.81,5.69,11.36,10,11.32,21.5,21.68,35.02,28.42,14.29,7.13,30.45,10.78,46.37,9.29,2-.19,3.98-.66,5.8-1.5,2.92-1.34,4.32-3.02,4.43-5.5-.12-.9-.71-2.53-.62-2.71,1.26,.22,2.19,2.29,2.41,3.12,.58,2.16,.35,5.72-.1,9.12-.71,5.33-4.95,9.5-10.29,10.14-3.4,.41-7.2,.77-10.16,.77-7.05,.02-13.43-.12-20.35-1.45-6.77-1.29-14.19-3.79-20.58-6.35-6.4-2.56-12.55-6.86-18.13-12.43l-22.72-22.21c-.42-5.79,.45-14.45,3.24-20.06Z"/>
      </g>
      <path class="cls-21" d="M361.98,1345.48c-14.65-2.39-30.21-5.09-44.85-7.48,1.53-50.41-.87-105.73-6.67-156.82-1.65-14.57-3.58-28.8-5.77-42.46-.2-1.31-33.81-140.57-33.99-141.88-5.87-42.77,20.81-52.88,18.46-82.1-.42-5.4-.77-11.02,1.04-15.97,.52-1.43,3.27-3,7.03-4.43,4.25-1.62,9.8-3.06,14.88-3.92,6.15-1.03,11.61-1.21,13.3,.21,14.24,10.43,57.17,110.48,60.37,214.3,7.19,104.08-16.73,207.8-23.8,240.57Z"/>
      <g>
        <path class="cls-6" d="M135.94,1331.11c12.11,4.49,24.85,7.3,37.72,8.3-6.98,11.86-9.42,26.32-6.71,39.81-4.93-1.75-9.85-3.49-14.78-5.24-3.98-1.41-7.96-2.82-11.99-4.06-2.04-.63-4.09-1.21-6.16-1.73-1.61-.4-3.96-.47-5.36-1.42-1.47-1.01-.74-2.17-.14-3.55,.82-1.91,1.58-3.85,2.27-5.81,1.4-3.98,2.53-8.05,3.37-12.18,.95-4.65,1.55-9.38,1.77-14.12Z"/>
        <path class="cls-6" d="M151.86,1374.75c-3.89-1.38-7.91-2.8-11.91-4.04-2.2-.68-4.2-1.24-6.12-1.72-.46-.11-1-.2-1.56-.3-1.37-.22-2.93-.48-4.05-1.25-1.89-1.29-1.15-2.94-.61-4.15l.18-.41c.81-1.88,1.57-3.82,2.25-5.76,1.38-3.92,2.51-7.98,3.34-12.07,.95-4.61,1.54-9.32,1.75-13.99l.05-1.12,1.05,.39c12.06,4.48,24.68,7.25,37.5,8.25l1.31,.1-.67,1.13c-6.87,11.67-9.28,25.97-6.61,39.24l.28,1.42-16.19-5.74Zm-15.16-42.49c-.26,4.39-.84,8.8-1.73,13.13-.85,4.16-2,8.29-3.4,12.28-.7,1.98-1.47,3.95-2.29,5.86l-.19,.43c-.6,1.34-.66,1.65,.04,2.12,.82,.56,2.13,.78,3.39,.98,.6,.1,1.18,.19,1.7,.32,1.95,.49,3.98,1.06,6.2,1.74,4.04,1.24,8.07,2.67,12.02,4.07l13.44,4.76c-2.23-12.83,.08-26.48,6.42-37.85-12.16-1.06-24.13-3.7-35.61-7.86Z"/>
      </g>
      <path class="cls-21" d="M220.86,892.28c-10.49,26.76-17.62,54.58-21.2,82.6-3.13,28.08-1.54,66.33-24.69,138.55-21.43,73.01-34.39,177.47-46.43,226.39,35.18,7.71,49.56,10.5,49.56,10.5,0,0,57.7-159.4,67.37-180.88,35.99-74.74,68.77-195.95,75.45-217.01,5.72-13.49-2.24-53.14-16.27-68.53-24.26,6.01-59.18,13.7-83.79,8.39Z"/>
      <path class="cls-16" d="M343.48,950.94c-4.96,15.6-23.75,84.08-47.75,150.26-2.78-11.54-5.92-24.63-9.02-37.53,17.33-51.84,30.28-98.87,34.21-111.25,5-11.77-.43-43.46-11.22-61.57,.81-.16,1.62-.31,2.41-.44,6.15-1.03,11.61-1.2,13.3,.21,4.18,3.07,10.85,13.89,18.26,30.27,2.28,12.32,2.45,23.85-.19,30.06Z"/>
      <path class="cls-16" d="M222.7,977.86c.11-.88,3.7-24.73,3.82-25.61-4.51-.65-7.43-.51-11.8-2.4-3.27-1.31-7.61-1.8-10.56-3.52-.39,2.56-4.51,25.66-4.83,28.23-3.13,28.08-1.54,66.33-24.69,138.56-4.45,15.16-23.57,106.75-23.68,111.18,20.27-9.87,40.81-86.61,47.05-107.87,23.15-72.23,21.56-110.47,24.69-138.56Z"/>
      <path class="cls-21" d="M125.83,1362.19c-3.17,5.51-6.1,16.58-6.2,23.28,8.93,14.85,24,28.87,39.32,36.97,15.31,8.1,32.86,11.94,50.16,10.98,3.08-.17,6.62-.77,8.19-3.43,1.33-2.25,.65-5.25-.9-7.35s-3.83-3.54-6-5c-19.43-13.09-34.47-32.56-42.24-54.66-16.06,3.24-42.32-.79-42.32-.79Z"/>
      <path class="cls-16" d="M119.93,1382.02c.33,4.72,2.47,7.84,5.57,11.42,9.88,11.43,21.27,21.9,34.72,28.79,14.21,7.28,30.33,11.1,46.27,9.78,2-.17,3.98-.62,5.82-1.44,2.93-1.31,4.35-2.97,4.48-5.46-.11-.9-.68-2.53-.59-2.72,1.26,.23,2.17,2.32,2.38,3.15,.56,2.16,.29,5.73-.19,9.12-.76,5.32-5.05,9.44-10.4,10.03-3.41,.37-7.21,.69-10.17,.67-7.05-.06-13.42-.26-20.34-1.66-6.75-1.37-14.15-3.94-20.51-6.57-6.37-2.63-12.47-7-18-12.62l-22.48-22.44c-.35-5.79,.6-14.44,3.45-20.02Z"/>
      <g>
        <path class="cls-6" d="M251.67,701.57c4.34,9.04,11.89,13.31,21.64,15.65,9.76,2.34,20.19,.86,29.44-3.03,9.25-3.89,17.56-10.97,24.69-18.04-2.78-2.94-5.21-6.16-7.32-9.59-3.75-6.1-6.47-12.86-8.31-19.82-1.52-5.77-2.64-11.51-3.21-17.31-.5-5.13-.56-10.3-.08-15.56-17.49,9.43-31.68,9.27-50.41,2.59-2.09,11.46-3.16,22.8-4.01,33.97-.68,8.93-1.21,17.76-1.99,26.45-.14,1.57-.29,3.14-.45,4.7Z"/>
        <path class="cls-6" d="M273.12,718.02c-11.31-2.72-18.15-7.68-22.19-16.1l-.1-.21,.02-.23c.16-1.56,.31-3.12,.45-4.69,.51-5.66,.92-11.5,1.32-17.15,.22-3.08,.44-6.18,.67-9.29,.81-10.66,1.86-22.17,4.02-34.05l.17-.95,.91,.32c19.51,6.95,33.45,6.24,49.74-2.54l1.35-.73-.14,1.52c-.46,5.05-.44,10.09,.08,15.41,.53,5.45,1.57,11.07,3.19,17.18,1.92,7.26,4.68,13.86,8.21,19.6,2.12,3.46,4.55,6.65,7.22,9.46l.55,.58-.57,.56c-5.8,5.75-14.7,13.89-24.95,18.21-6.61,2.79-13.5,4.21-20.09,4.21-3.39,0-6.7-.38-9.85-1.13Zm46.3-31.03c-3.62-5.88-6.44-12.63-8.4-20.04-1.63-6.2-2.69-11.9-3.23-17.44-.48-4.9-.54-9.56-.2-14.22-15.93,8.23-29.83,8.86-48.83,2.26-2.04,11.47-3.04,22.6-3.83,32.94-.24,3.11-.45,6.2-.67,9.28-.4,5.66-.81,11.51-1.32,17.18-.14,1.5-.28,2.99-.43,4.48,3.82,7.8,10.31,12.44,21,15,8.96,2.15,19.24,1.09,28.93-2.99,9.66-4.07,18.16-11.69,23.87-17.31-2.53-2.75-4.84-5.82-6.87-9.14Z"/>
      </g>
      <path class="cls-5" d="M254.68,654.5c3.05,5.03,6.57,9.79,11.61,12.67,3.73,2.13,8.03,3.06,12.27,3.74,11.19,1.79,22.61,2.05,33.87,.78-.54-1.63-1.03-3.29-1.48-4.95-.78-2.98-1.47-5.95-2.01-8.93-13.22,2.15-26.78,2.18-40,.06-4.24-.68-8.54-1.61-12.27-3.74-.63-.36-1.81-1.16-1.81-1.16,0,0-.02,.18-.1,.93-.01,.11-.04,.33-.06,.5,0,.04-.03,.06,0,.09Z"/>
      <path class="cls-6" d="M592.1,736.24s-3.31,.25-6.61,.86c-94.83,17.6-151,9.75-181.07-4.93-.36,.48-26.53,58.77-24.3,59.93,3.85,3.96,82.83,11.96,87.93,10.97,21.6-4.19,79.89-21.98,107.91-30.53,7.79-2.38,13.42-4.09,13.93-4.19l.75-.14-.08-.76c-1.02-8.39,.74-15.65,1.96-25.6l-.43-5.6Z"/>
      <path class="cls-8" d="M182.22,749.46c.09,9.16,1.29,18.27,2.83,27.35,.82,4.8,2.74,10.99,3.72,15.76,2.92,13.98,5.39,26.42,8.31,40.39,1.81,8.67,2.23,38.15,2.27,60,.03,14.16-.09,68.75-.09,68.75,0,0,35.92,4.68,90.18,5.34,34.5,.42,63.97-10.09,69.49-10.08,0,0,.54-96.58,1.1-107.18,.15-2.7,.31-5.44,.49-8.21,.7-11.45,1.39-23.39,.04-34.37-.5-4.08-1.06-8.15-1.62-12.19,5.13,4.66,11.03,8.86,17.38,12.63,6,3.56,12.41,6.75,18.96,9.59,8.76-28.2,16.74-61.51,16.67-85.94-22.28-26.45-95.42-52.76-95.42-52.76-1.79,6.51-4.01,13.09-9.2,17.93-4.01,3.74-9.23,6.04-14.62,7.02-7.13,1.3-19.43-.54-25.86-4.43-9.65-5.83-13.93-19.28-13.93-19.28,0,0-24.97,11.15-35.81,17.01-6.63,3.58-12.21,7.12-18.24,11.49-6.41,4.64-11.87,8.21-14.86,16.28-3.06,8.23-1.85,16.41-1.75,24.9Z"/>
      <path class="cls-14" d="M197.62,811.19c-1.01,1.33-1.82,2.67-2.23,4.02-1.67,5.52,1.56,14.58,2.31,20.21,.89,6.74,1.68,13.66,.66,20.43,17.63-5.14,36.06-7.01,54.38-6.22,16.16,.7,32.58,5.21,48.73,5.21,3.92,.47,8.37,.78,11.31-1.85,3.35-3,3.03-8.33,1.74-12.63-3.03-10.05-9.74-18.48-15.59-27.2-12.21-18.19-21.15-38.57-26.24-59.87-3.26-13.62-5.83-29.04-17.14-37.28-2.03-1.48-4.52-2.7-6.99-2.21-2.47,.49-4.28,2.55-5.8,4.55-15.26,20.16-19.84,45.74-29.78,68.5-2.43,5.56-5.16,11.01-8.47,16.11-1.69,2.61-4.72,5.38-6.89,8.24Z"/>
      <path class="cls-14" d="M330.75,766.05c13.19,29.65,19.88,44.64,29.76,75.53,.7-11.45,1.39-23.39,.04-34.37-.5-4.08-1.06-8.15-1.62-12.19,5.13,4.66,11.03,8.86,17.38,12.63-.15-1.23-1-2.19-2.93-3.75-11.99-9.6-37.64-30.68-42.62-37.85Z"/>
      <path class="cls-22" d="M321.94,545.32c5.9,8.23,8.95,19.28,6.44,29.09-.3,1.18-3.32,10.57-3.32,10.57,0,0-1.73-7.96-2.66-8.47-6.39-3.52-11.63-8.88-15.75-14.9-4.12-6.02-7.17-12.7-9.89-19.47-.75-1.87-1.48-3.77-1.76-5.76-.25-1.8-.5-5.48,2-5.42,2.31,.05,4.8,.76,6.99,1.45,4.58,1.45,8.86,3.84,12.51,6.98,2.04,1.76,3.87,3.75,5.44,5.93Z"/>
      <g>
        <path class="cls-6" d="M228.6,605.67c10.81,37.41,38.76,65.69,66.3,57.74,27.55-7.96,37.55-46.66,28.97-84.65-9.46-41.91-43-62.54-70.55-54.58-27.55,7.96-35.54,44.08-24.73,81.5Z"/>
        <path class="cls-6" d="M254.93,652.16c-12.04-10.99-21.66-27.42-27.11-46.26-5.44-18.82-6.16-37.38-2.02-52.24,4.43-15.92,13.87-26.39,27.31-30.27,12.35-3.57,25.9-1.55,38.16,5.69,16.55,9.78,28.42,27.36,33.41,49.49,4.33,19.17,3.99,38.36-.96,54.02-5.23,16.57-15.39,27.79-28.59,31.61-3.16,.91-6.38,1.36-9.63,1.36-10.34,0-20.92-4.58-30.58-13.4Zm-1.37-127.2c-12.86,3.72-21.92,13.79-26.18,29.13-4.05,14.58-3.34,32.81,2.02,51.35,5.36,18.56,14.82,34.72,26.64,45.5,12.26,11.19,25.98,15.33,38.65,11.67,25.31-7.31,37.52-43.29,28.4-83.68-4.9-21.69-16.49-38.89-32.65-48.44-8.04-4.75-16.65-7.19-25.08-7.19-4,0-7.96,.55-11.79,1.66Z"/>
      </g>
      <path class="cls-20" d="M325.06,584.98s14.68-47.44-28.43-51.29c-6.83,10.17-14.14,19.99-24,27.27-5.62,4.16-12.01,7.59-16.16,13.22-4.07,5.52-5.5,12.55-6.11,19.38-1.05,11.78,.05,23.74,3.22,35.13-1.77-2.44-4.47-3.69-7.48-3.62-3.01,.07-5.91,1.12-8.71,2.24,2.17,3.23,5.24,5.67,7.65,8.73,3.13,3.96,4.54,8.96,5.88,13.82-5.45-.46-11.25-2.69-15.86-5.63-4.62-2.94-8.72-6.6-12.81-10.24-8.63-7.69-11.91-19.34-20.96-26.36-8.7-6.75-19.68-13.96-21.38-24.86-1.58-10.13,1.37-22.52,7.51-30.8,2.17-2.93,4.73-5.53,7.4-7.99,2.36-2.18,5.5-3.89,7.55-6.29,6.3-7.38,5.41-18.8,11.05-26.7,5.21-7.29,14.76-9.94,23.65-10.99,8.9-1.06,18.21-1.1,26.23-5.1,5.85-2.92,10.56-7.74,16.28-10.91,7.57-4.19,16.82-5.23,25.13-2.83,6.38,1.85,12.42,5.76,16.52,11.02,3.39,4.34,4.65,11.97,5.14,17.33,.66,7.2-1.07,14.6,.7,21.61,1.47,5.81,5.21,10.75,7.52,16.28,5.63,13.5,1.65,28.17-9.53,37.6Z"/>
      <path class="cls-5" d="M250.63,592.86c-.61,6.75-.51,13.56,.29,20.29,.29-4.66,.31-9.66,1.26-14.24,1.4-6.72,3.16-13.86,7.86-18.88,4.79-5.12,11.63-8.46,17.71-11.94,10.66-6.11,28.48-26.64,28.48-26.64,0,0-2.37-3.54-8.03-7.61l-1.57-.16c-6.85,10.18-13.77,19.26-23.65,26.56-5.64,4.16-12.05,7.6-16.21,13.23-4.08,5.53-5.53,12.55-6.14,19.39Z"/>
      <path class="cls-20" d="M325.45,518.54c3.99-9.89,3.83-20.68-.42-28.85-4.57-8.79-15.03-15.55-24.88-16.08-6.86-.37-14.25,2.38-20.32,7.54-4.87,4.14-8.99,9.67-12.98,17.4l1.75,.9c3.86-7.5,7.84-12.83,12.5-16.8,5.69-4.84,12.62-7.42,18.94-7.08,9.2,.49,18.97,6.81,23.24,15.02,3.99,7.68,4.12,17.85,.34,27.21l1.82,.73Z"/>
      <path class="cls-20" d="M208.01,604.76l1.86-.64c-2.17-6.31-9.55-8.45-13.75-9.17-1.27-.22-2.57-.39-3.83-.55-4.21-.55-8.19-1.08-11.56-3.17-3.76-2.33-6.5-6.64-7.53-11.82-.82-4.11-.66-8.66,.49-14.75,.97-5.11,2.87-12.37,8.15-16.5,3.06-2.39,6.98-3.53,10.78-4.63,1.04-.3,2.08-.6,3.1-.93,6.7-2.13,10.81-5.22,12.56-9.45,1.44-3.48,1.02-7.21,.6-10.81-.3-2.59-.6-5.27-.18-7.76,1.11-6.54,6.93-10.87,12-12.74,5.96-2.21,12.48-2.24,18.78-2.27l22.61-.11v-1.96s-22.62,.11-22.62,.11c-6.17,.03-13.16,.06-19.45,2.39-5.59,2.07-12,6.9-13.25,14.26-.47,2.76-.15,5.58,.16,8.31,.4,3.51,.78,6.83-.47,9.84-1.52,3.66-5.23,6.39-11.34,8.33-1.01,.32-2.03,.62-3.05,.91-3.98,1.15-8.09,2.35-11.45,4.97-5.81,4.54-7.85,12.26-8.87,17.68-.81,4.27-1.6,9.89-.49,15.5,1.13,5.72,4.2,10.5,8.42,13.11,3.73,2.31,8.1,2.89,12.33,3.44,1.24,.16,2.52,.33,3.76,.54,3.78,.64,10.39,2.52,12.23,7.87Z"/>
      <path class="cls-6" d="M581.83,769.89c2.4-.91,7.21-1.94,9.59-2.9,19.66-4.47,40.43-3.39,58.84,4.84,4.58,2.05,9.38,3.54,14.25,4.71,2.95,.71,4.86,1.32,7.79,.59,2.12-.53,2.46-3.41,.55-4.47-5.32-2.93-11.25-4.35-16.77-6.7-1.48-.63-.89-2.85,.7-2.66,3.12,.37,6.24,1.61,9.34,2.6,4.84,1.55,9.94,2.51,14.98,3.16,2.67,.34,5.5,.21,8.07-.55,2.53-.75,2.42-4.39-.16-4.98-10.1-2.31-20.1-5.06-29.96-8.25-1.45-.47-1.17-2.57,.35-2.71,2.87-.25,5.86,.24,8.64,1.07,4.38,1.31,9.37,2.05,13.76,3.34,4.4,1.29,8.74,2.21,13.05,2.2,3.09,0,3.98-4.29,1.18-5.58-6.14-2.84-13.55-3.57-20.68-4.94-6.08-1.17-9.93-2.1-17.68-4.24-.49-.14-1.09-.34-1.73-.59-1.46-.56-1.06-2.73,.5-2.72,5.76,.03,13.7,1.32,17.97,1.48,5.38,.21,9.58,.58,13.36-.48,2.86-.79,3.28-4.67,.65-6.03-2.82-1.45-6.4-1.93-9.64-2.2-14.85-1.23-29.7-2.46-44.55-3.69-3.41-.28-7.66-1.24-8.18-4.76-.17-1.12,.14-2.27,.72-3.25,1.31-2.21,3.53-3.44,5.36-5.11,2.63-2.39,5.99-6.45,7.46-10.37,.71-1.89-1.33-3.67-3.11-2.71-7.13,3.86-14.28,11.04-19.12,16.75-4.34,5.12-9.23,10.32-15.51,13.04-2.36,1.02-5.71,1.36-8.64,2.21,0,0,0,0,0,0-4.5,1.07-5.87,.7-10.64,1.54"/>
      <g>
        <rect class="cls-23" x="116.46" y="769.43" width="660.55" height="79.34" transform="translate(-148.66 102.19) rotate(-11.2)"/>
        <rect class="cls-17" x="116.39" y="794.81" width="660.58" height="27.88" transform="translate(-148.59 102.17) rotate(-11.2)"/>
        <rect class="cls-23" x="121.63" y="822.17" width="660.58" height="26.09" transform="translate(-153.63 103.69) rotate(-11.2)"/>
        <rect class="cls-12" x="104.06" y="835.42" width="18.87" height="79.38" transform="translate(-167.83 38.72) rotate(-11.2)"/>
        <path class="cls-18" d="M35.52,914.78l-9.23-46.62c-1.7-8.6,3.89-16.96,12.49-18.66l57.77-11.44,15.4,77.77-57.77,11.44c-8.6,1.7-16.96-3.89-18.66-12.49Z"/>
        <path class="cls-18" d="M30.9,891.47l-4.62-23.32c-1.7-8.6,3.89-16.95,12.48-18.65l57.78-11.44,7.7,38.89-73.34,14.52Z"/>
        <polygon class="cls-7" points="763.02 706.03 873.95 723.9 778.47 783.9 763.02 706.03"/>
        <polygon class="cls-23" points="835.66 718.5 840.89 744.89 873.14 724.12 835.51 717.71 835.66 718.5"/>
      </g>
      <g>
        <path class="cls-6" d="M281.08,887.71c-4.15,.37-54.85-55.91-63.95-87.05,20.82-4.61,30.27-11.75,51.51-13.67,6.66,13.12,18.1,36.2,24.83,53.86,20.33-9.84,61.57-25.88,89.33-34.98h0c6.5-2.66,13.13-5.23,20.1-7.13,3.26,3.15,6.9,5.87,10.95,8.14,2.86,2.34,5.88,4.35,9.07,6.03l-28.94,20.19s-69.83,40.69-98.13,53.42c-4.71,2.12-10.46,4.05-14.77,1.19Z"/>
        <path class="cls-6" d="M394.39,833.81c-.7,.41-70.19,40.86-98.2,53.46-4.74,2.13-10.76,4.19-15.41,1.22-3.7-.96-18.39-16.9-30.44-31.97-10.43-13.04-28.71-37.6-33.98-55.62l-.25-.84,.86-.19c8.5-1.88,15.06-4.17,21.4-6.39,9.05-3.16,17.59-6.15,30.21-7.29l.55-.05,.25,.5c11.26,22.21,19.52,40.07,24.55,53.11,20.06-9.61,60.3-25.35,88.57-34.62,6.26-2.57,13.04-5.21,20.2-7.16l.45-.12,.34,.32c3.21,3.1,6.83,5.8,10.78,8.02l.12,.08c2.79,2.28,5.79,4.28,8.93,5.94l1.19,.63-30.1,20.99Zm8.28-34.15c-6.91,1.92-13.48,4.48-19.61,7-28.65,9.4-69.51,25.4-89.23,34.94l-.8,.39-.32-.84c-4.94-12.96-13.2-30.88-24.55-53.28-12.12,1.16-20.45,4.07-29.26,7.15-6.17,2.16-12.55,4.39-20.73,6.25,5.45,17.5,22.95,41.06,33,53.67,14.9,18.69,27.81,31.56,29.88,31.94l.25-.02,.24,.16c4,2.66,9.57,.72,13.97-1.26,27.94-12.57,97.35-52.97,97.99-53.34l27.85-19.43c-2.79-1.56-5.47-3.39-7.97-5.43-3.91-2.2-7.51-4.86-10.72-7.91Zm-121.6,87.24h0s0,0,0,0Z"/>
      </g>
      <path class="cls-8" d="M230.66,722.15c18.87,17.22,45.82,52.41,57.08,75.35-19.55,24.63-26.43,34.74-55.43,46.89-18.7-21.08-32.57-42.71-46.81-67.2"/>
      <g>
        <path class="cls-6" d="M384.59,805.15c3.59-2.3,8.49-14.15,10.18-17.96,1.69-3.82,3.94-7.53,7.33-9.97-.12,1.72-.23,3.46,.16,5.14,.39,1.68,1.35,3.3,2.89,4.08,2.75,1.38,5.98-.37,8.55-2.06,9.92-6.55,19.84-13.09,29.76-19.64,1.26-.83,2.57-1.68,4.05-1.96,1.49-.28,3.21,.17,4.01,1.45,1.21,1.95-.36,4.56-2.38,5.66l-23.35,19.26c1.53,.61,3.21,.02,4.68-.74,4.68-2.42,8.55-6.5,13.58-8.07l14.28-7.73c1.09-.73,3.74,.33,3.77,1.64,.03,1.31-.88,2.44-1.81,3.36-1.56,1.54-3.31,2.87-5.06,4.19-5.96,4.52-11.92,9.04-17.88,13.56l21.24-8.26c.69-.27,1.46-.53,2.14-.24,.86,.37,1.14,1.54,.83,2.42s-1.05,1.55-1.77,2.15c-5.01,4.16-10.87,7.3-17.11,9.17,.14,.33,.28,.67,.42,1,1.11,.33,2.18-.53,3.1-1.23,.92-.71,2.28-1.3,3.15-.54,.6,.52,.63,1.48,.29,2.2-.34,.72-.98,1.24-1.6,1.74-9.72,7.74-20.76,13.83-32.5,17.91-4.37,1.52-8.45,2.27-12.22,4.95"/>
        <path class="cls-6" d="M462.46,788.79c.09-1.07-.36-2.24-1.43-2.7-1.03-.44-2.11-.02-2.76,.23l-15.78,6.14,13.21-10.02c1.74-1.32,3.54-2.68,5.14-4.26,.98-.97,2.1-2.29,2.06-3.96-.02-.84-.62-1.62-1.64-2.15-1.01-.53-2.46-.78-3.4-.14l-14.15,7.66c-3.1,.99-5.77,2.88-8.36,4.72-1.69,1.2-3.45,2.44-5.27,3.39-.85,.44-1.59,.72-2.24,.84l21.76-17.94c1.47-.83,2.62-2.26,3.01-3.75,.29-1.09,.15-2.14-.4-3.02-1.05-1.69-3.19-2.14-4.86-1.83-1.67,.31-3.1,1.25-4.35,2.08l-29.76,19.64c-2.51,1.66-5.39,3.19-7.73,2.02-1.18-.59-2.08-1.88-2.45-3.53-.36-1.57-.25-3.26-.14-4.9l.12-1.74-1.41,1.02c-3.05,2.19-5.46,5.46-7.6,10.3l-.53,1.22c-1.88,4.32-6.28,14.43-9.34,16.39l.89,1.38c3.05-1.96,6.59-9.38,9.96-17.11l.53-1.21c1.67-3.77,3.49-6.52,5.66-8.5-.04,1.16,0,2.34,.28,3.52,.49,2.13,1.7,3.81,3.32,4.62,3.1,1.56,6.63-.31,9.36-2.11l29.76-19.64c1.18-.78,2.41-1.59,3.75-1.84,1.08-.2,2.53,.05,3.16,1.08,.31,.5,.38,1.09,.21,1.74-.28,1.06-1.2,2.17-2.28,2.77l-.13,.09-24.42,20.14,1.29,.51c1.96,.78,4-.07,5.36-.78,1.93-1,3.73-2.27,5.47-3.51,2.62-1.86,5.09-3.61,7.98-4.51l.15-.06,14.28-7.73c.34-.22,1.1-.17,1.8,.2,.49,.25,.75,.57,.76,.74,.02,1.04-.83,2.02-1.57,2.76-1.52,1.5-3.28,2.84-4.98,4.12l-22.55,17.1,26.7-10.38c.56-.22,1.14-.42,1.52-.25,.43,.18,.56,.9,.38,1.4-.24,.69-.88,1.26-1.52,1.79-4.9,4.07-10.72,7.19-16.83,9.02l-.87,.26,.92,2.2,.37,.11c1.48,.44,2.8-.57,3.76-1.31l.08-.06c.71-.55,1.67-.96,2.12-.57,.26,.23,.3,.78,.09,1.22-.26,.53-.77,.97-1.37,1.45-9.7,7.72-20.55,13.71-32.26,17.78-1.09,.38-2.17,.71-3.22,1.04-3.23,1-6.28,1.94-9.21,4.02l.95,1.34c2.72-1.93,5.64-2.83,8.74-3.79,1.06-.33,2.16-.67,3.28-1.05,11.88-4.13,22.9-10.2,32.74-18.04,.59-.47,1.39-1.11,1.83-2.02,.46-.96,.44-2.36-.49-3.17-.14-.12-.28-.22-.44-.3,3.9-1.81,7.59-4.12,10.87-6.85,.78-.65,1.64-1.42,2.02-2.51,.08-.24,.14-.49,.16-.75Z"/>
      </g>
    </g>
    <g>
      <path class="cls-15" d="M612.7,1229.31c25.36,16.34,55.54,25.82,87.94,25.82,89.79,0,162.59-72.79,162.59-162.58h-96.5c0,36.49-29.59,66.08-66.08,66.08-13.15,0-25.4-3.84-35.69-10.46l-52.26,81.14Z"/>
      <path class="cls-15" d="M530.72,1087.82c0,57.39,29.73,107.83,74.64,136.77l52.26-81.14c-18.28-11.75-30.4-32.27-30.4-55.62,0-5.98,.79-11.78,2.29-17.29l-93.27-24.87c-3.6,13.45-5.52,27.58-5.52,42.16Z"/>
      <path class="cls-15" d="M538.86,1037.27l93.27,24.87c7.59-28.11,33.28-48.8,63.79-48.8v-96.5c-75.22,0-138.5,51.07-157.06,120.43Z"/>
      <path class="cls-4" d="M626.99,1227.46c25.36,16.34,55.54,25.82,87.94,25.82,89.79,0,162.59-72.79,162.59-162.59h-96.5c0,36.49-29.59,66.08-66.08,66.08-13.15,0-25.4-3.84-35.69-10.46l-52.26,81.14Z"/>
      <path class="cls-4" d="M545.01,1085.97c0,57.39,29.73,107.83,74.64,136.77l52.26-81.14c-18.28-11.75-30.4-32.27-30.4-55.62,0-5.98,.79-11.78,2.29-17.29l-93.27-24.87c-3.6,13.45-5.52,27.58-5.52,42.16Z"/>
      <path class="cls-4" d="M553.15,1035.43l93.27,24.87c7.59-28.11,33.28-48.8,63.79-48.8v-96.5c-75.22,0-138.5,51.07-157.06,120.43Z"/>
      <g>
        <path class="cls-15" d="M722.47,857.14v5.88c111.89,10.13,200.01,102.56,203.34,216.28l-.02-1.22,18.42,.16,2.15,2.81-20.45,4.94h-132.89c0-50.27-40.75-91.01-91.01-91.01v-132.9l20.45-4.94Z"/>
        <path class="cls-3" d="M722.47,857.14v132.89c50.26,0,91.01,40.74,91.01,91.01h132.89c0-123.66-100.24-223.9-223.9-223.9Z"/>
      </g>
    </g>
  </g>
</svg>