<?xml version="1.0" encoding="UTF-8"?>
<svg id="Layer_2" data-name="Layer 2" xmlns="http://www.w3.org/2000/svg" viewBox="0 0 1942.89 1728.55">
  <defs>
    <style>
      .cls-1 {
        fill: #f8a66c;
      }

      .cls-2 {
        fill: #f9b889;
      }

      .cls-3 {
        fill: #ed836e;
      }

      .cls-4 {
        fill: #ffa188;
      }

      .cls-5 {
        fill: #fff;
      }

      .cls-6 {
        fill: #ead6c5;
      }

      .cls-7 {
        fill: #6c7cdd;
      }

      .cls-8 {
        fill: #97aaef;
      }

      .cls-9 {
        fill: #6676be;
      }

      .cls-10 {
        fill: #c4d2ff;
      }

      .cls-11 {
        fill: #d98853;
      }

      .cls-12 {
        fill: #c6aa95;
      }

      .cls-13 {
        fill: #c9793c;
      }

      .cls-14 {
        fill: #1d263f;
      }

      .cls-15 {
        fill: #718ebf;
      }

      .cls-16 {
        fill: #5564a2;
      }

      .cls-17 {
        fill: #643a24;
      }

      .cls-18 {
        fill: #5a71cc;
      }

      .cls-19 {
        fill: #2d3969;
      }

      .cls-20 {
        fill: #3c4f93;
      }

      .cls-21 {
        fill: #5e6fca;
      }

      .cls-22 {
        fill: #6071dc;
      }

      .cls-23 {
        fill: #4c63c1;
      }

      .cls-24 {
        fill: #7a91e6;
      }
    </style>
  </defs>
  <g id="Layer_5" data-name="Layer 5">
    <g>
      <path class="cls-8" d="M1535.01,330.81h142.07V1376h-142.07c-24.12,0-43.7-19.58-43.7-43.7V374.52c0-24.12,19.58-43.7,43.7-43.7Z" transform="translate(3168.4 1706.81) rotate(180)"/>
      <rect class="cls-5" x="1545.98" y="640" width="74.67" height="288.44" rx="22" ry="22"/>
      <rect class="cls-5" x="1545.98" y="973.33" width="74.67" height="288.44" rx="22" ry="22"/>
      <circle class="cls-7" cx="1589.09" cy="504.44" r="47.11"/>
      <rect class="cls-7" x="787.75" y="330.81" width="703.56" height="1045.19"/>
      <rect class="cls-21" x="1442.42" y="374.67" width="11.56" height="951.56"/>
    </g>
    <g>
      <path class="cls-2" d="M1225.46,330.81h142.07V1376h-142.07c-24.12,0-43.7-19.58-43.7-43.7V374.52c0-24.12,19.58-43.7,43.7-43.7Z" transform="translate(2549.29 1706.81) rotate(180)"/>
      <rect class="cls-5" x="1236.42" y="640" width="74.67" height="288.44" rx="22" ry="22"/>
      <rect class="cls-5" x="1236.42" y="973.33" width="74.67" height="288.44" rx="22" ry="22"/>
      <circle class="cls-1" cx="1279.53" cy="504.44" r="47.11"/>
      <rect class="cls-11" x="478.2" y="330.81" width="703.56" height="1045.19" transform="translate(1659.95 1706.81) rotate(180)"/>
      <rect class="cls-13" x="1132.87" y="374.67" width="11.56" height="951.56" transform="translate(2277.29 1700.89) rotate(180)"/>
    </g>
    <g>
      <g>
        <path class="cls-10" d="M1750.11,1347.13l-18.35-1.19c-7.64-.49-13.43-7.08-12.93-14.72l31.28-483.73c.49-7.64,7.08-13.43,14.72-12.93l18.35,1.19c7.64,.49,13.43,7.08,12.93,14.72l-31.28,483.73c-.49,7.64-7.08,13.43-14.72,12.93Z"/>
        <path class="cls-9" d="M1751.03,1348.66c-.34,0-.67-.01-1.01-.03l-18.35-1.19c-8.45-.55-14.88-7.87-14.33-16.32l31.28-483.73c.26-4.09,2.11-7.84,5.19-10.55,3.08-2.71,7.03-4.05,11.12-3.79l18.35,1.19c8.45,.55,14.88,7.87,14.33,16.32l-31.28,483.73c-.26,4.09-2.11,7.84-5.19,10.54-2.83,2.48-6.38,3.82-10.11,3.82Zm12.89-512.63c-3,0-5.86,1.08-8.14,3.07-2.48,2.18-3.96,5.19-4.17,8.49l-31.28,483.73c-.44,6.8,4.73,12.69,11.53,13.13l18.35,1.19c3.29,.21,6.47-.87,8.95-3.05,2.48-2.18,3.96-5.19,4.17-8.48l31.28-483.73c.44-6.8-4.73-12.69-11.53-13.13l-18.35-1.19c-.27-.02-.54-.03-.82-.03Z"/>
      </g>
      <path class="cls-14" d="M1723.58,1295.14l-31.16-.98c-4.12-.13-7.35-3.58-7.22-7.7l15.69-497.28c.13-4.12,3.58-7.35,7.7-7.22l31.16,.98c4.12,.13,7.36,3.58,7.22,7.7l-15.69,497.28c-.13,4.12-3.58,7.35-7.7,7.22Z"/>
      <g>
        <rect class="cls-24" x="1759.16" y="916.97" width="83.97" height="561.42" transform="translate(3337.13 2720.59) rotate(-168.87)"/>
        <rect class="cls-20" x="1714.94" y="1414.62" width="25.79" height="9.88" transform="translate(3149.05 3146.03) rotate(-168.87)"/>
        <rect class="cls-20" x="1725.22" y="1362.39" width="25.79" height="9.88" transform="translate(3179.5 3044.54) rotate(-168.87)"/>
        <rect class="cls-20" x="1735.49" y="1310.16" width="25.79" height="9.88" transform="translate(3209.95 2943.05) rotate(-168.87)"/>
        <rect class="cls-20" x="1745.77" y="1257.93" width="25.79" height="9.88" transform="translate(3240.4 2841.55) rotate(-168.87)"/>
        <rect class="cls-20" x="1756.05" y="1205.7" width="25.79" height="9.88" transform="translate(3270.85 2740.06) rotate(-168.87)"/>
        <rect class="cls-20" x="1766.33" y="1153.47" width="25.79" height="9.88" transform="translate(3301.3 2638.56) rotate(-168.87)"/>
        <rect class="cls-20" x="1776.61" y="1101.24" width="25.79" height="9.88" transform="translate(3331.75 2537.07) rotate(-168.87)"/>
        <rect class="cls-20" x="1786.89" y="1049" width="25.79" height="9.88" transform="translate(3362.2 2435.57) rotate(-168.87)"/>
        <rect class="cls-20" x="1797.17" y="996.77" width="25.79" height="9.88" transform="translate(3392.64 2334.08) rotate(-168.87)"/>
        <rect class="cls-20" x="1807.45" y="944.54" width="25.79" height="9.88" transform="translate(3423.09 2232.58) rotate(-168.87)"/>
      </g>
      <g>
        <path class="cls-2" d="M1715.89,1293.44l-74.09-223,44.13-14.66,74.09,223c2.19,6.58,.6,13.49-3.66,18.35l.04,.05c-2.13,2.44-4.88,4.39-8.17,5.48l-8.41,2.79c-9.87,3.28-20.65-2.14-23.93-12.01Z"/>
        <path class="cls-11" d="M1636.68,926.01l-33.58,11.16c-6.23,2.07-9.6,8.8-7.53,15.03l52.52,158.09,56.13-18.65-52.52-158.09c-2.07-6.23-8.8-9.6-15.03-7.53Z"/>
        <path class="cls-13" d="M1635.57,1104.38c-2.16,.72-4.48-.45-5.2-2.61l-36.97-111.26c-3.04-9.15,1.93-19.06,11.08-22.1l54.72-18.18c2.16-.72,4.48,.45,5.2,2.61,.72,2.16-.45,4.48-2.61,5.2l-54.72,18.18c-4.84,1.61-7.47,6.86-5.87,11.7l36.97,111.26c.72,2.16-.45,4.48-2.61,5.2Z"/>
        <path class="cls-13" d="M1631.68,1077.35h4.11c1.09,0,1.97,.88,1.97,1.97v13.16c0,1.09-.88,1.97-1.97,1.97h-4.11v-17.1h0Z" transform="translate(-259.01 570.83) rotate(-18.38)"/>
      </g>
      <g>
        <path class="cls-18" d="M1798.38,1559.34h-87.64c-50.41,0-91.92-39.63-94.25-89.99l-13.4-289.78h302.93l-13.4,289.78c-2.33,50.36-43.84,89.99-94.25,89.99Z"/>
        <path class="cls-9" d="M1798.38,1560.84h-87.64c-51.32,0-93.38-40.16-95.75-91.42l-13.47-291.34h306.08l-.07,1.57-13.4,289.78c-2.37,51.26-44.43,91.42-95.75,91.42Zm-193.71-379.77l13.33,288.21c2.3,49.66,43.04,88.56,92.75,88.56h87.64c49.71,0,90.45-38.9,92.75-88.56l13.33-288.21h-299.79Z"/>
      </g>
      <path class="cls-23" d="M1905.19,1197.68l-11.72,271.67c-2.32,50.37-43.83,89.99-94.24,89.99h-87.65c-4.78,0-9.47-.36-14.05-1.05,103.83-39.56,196.97-154.81,207.66-360.61Z"/>
    </g>
    <g>
      <path class="cls-19" d="M304,471.95l189.64-120.56c16.3-12.01,21.99,1.13,31.58,18.84l61.4,108.88c3.17,5.86,25.56-.83,30.55-5.32l270.38-243.06c14.72-13.24,30.74-9.07,43.1,6.11l102.05,125.46c3.41,4.19,15.73,2.61,20.36-.27l355.28-221.75-73.76-18.27c-6.83-1.66-11.36-8.19-10.62-15.33h0c.82-7.98,7.87-13.83,15.69-13.03l122.32,12.13c11.29,1.12,19.1,11.83,16.92,23.21l-18.51,96.43c-1.7,8.87-10.15,14.73-18.84,13.07h0c-7.99-1.53-13.48-8.95-12.74-17.22l2.18-41.41-374.9,222.18c-12.3,7.8-28.24,5.33-37.45-5.8l-93.19-112.59c-9.09-10.98-25.32-12.21-36.18-2.74l-277.82,227.19c-16.46,14.34-30.06,14.87-40.44-4.17l-58.65-107.64c-3.47-6.37-15.75-13.99-21.61-9.65l-167,113.43c-7.87,5.79-18.79,3.88-24.13-4.21l15.28,7.96c-5.13-7.77-18.48-26.34-10.91-31.88Z"/>
      <path class="cls-22" d="M299.63,475.04l174.36-128.52c16.3-12.01,39.04-7.01,48.63,10.7l59.02,109.03c3.17,5.86,10.89,7.16,15.88,2.67l270.38-243.06c14.72-13.24,37.11-11.62,49.47,3.56l102.05,125.46c3.41,4.19,9.36,5.16,13.98,2.28l355.28-221.75-73.76-18.27c-6.83-1.66-11.36-8.19-10.62-15.33h0c.82-7.98,7.87-13.83,15.69-13.03l122.32,12.13c11.29,1.12,19.1,11.83,16.92,23.21l-18.51,96.43c-1.7,8.87-10.15,14.73-18.84,13.07h0c-7.99-1.53-13.48-8.95-12.74-17.22l5.29-58.91-378,239.68c-12.3,7.8-28.24,5.33-37.45-5.8l-93.19-112.59c-9.09-10.98-25.32-12.21-36.18-2.74l-266.39,232.09c-16.46,14.34-41.49,9.97-51.87-9.07l-58.65-107.64c-3.47-6.37-11.66-8.14-17.52-3.8l-155.81,115.54c-7.87,5.79-18.79,3.88-24.13-4.21h0c-5.13-7.77-3.19-18.38,4.38-23.92Z"/>
    </g>
    <path class="cls-4" d="M89.45,1457.06c-5.31,5.08-11.08,9.7-17.16,13.82-7.88,5.34-16.34,9.83-25.17,13.38-4.42,1.77-8.93,3.3-13.51,4.58-1.34,.37-13.23,2.36-13.37,2.97-.67,2.74,.84,5.64,3.02,7.42,2.19,1.77,4.96,2.64,7.67,3.41,38.81,11.06,80.97,10.05,119.2-2.85,4.12-1.39,8.46-3.11,10.9-6.71,3.78-5.57,1.53-13.04-.57-19.44-5.56-16.98-9.15-34.6-10.71-52.39-.39-4.45-.65-8.91-.79-13.37-.1-3.45,1.05-7-2.93-7.71-4-.71-9.25,.53-13.32,.77-4.37,.26-8.74,.53-13.11,.79-6.23,.38-11.62,.11-12.94,7.17-1.52,8.12-3.02,16.22-5.13,24.21-2.02,7.63-1.82,13.32-7.51,19.34-1.49,1.58-3.01,3.11-4.58,4.61Z"/>
    <path class="cls-14" d="M172.22,1495.52l5.28,13.8c1.12,2.93-.51,6.18-3.52,7.07-22,6.46-43.98,11.04-66.88,13.49-14.67,1.57-30.81,2.4-45.5,1.07-14.7-1.33-32.89-2.54-44.37-11.82,12.93,3.61,30.19-2.88,43.55-4.12,29.35-2.73,58.7-5.46,88.04-8.19,4.53-.42,9.13-.86,13.39-2.45,4.27-1.59,8.15-4.71,10.02-8.86Z"/>
    <path class="cls-19" d="M165.61,1468.02c3.03,11.64,4.82,17.63,9.78,35.79-8.14,8.19-22.32,9.49-33.65,11.73-25.77,5.08-48.85,8.8-77.58,9.93-16.91,.67-34.97-.16-50.07-7.81-4.58-2.32-8.88-5.49-11.56-9.87-2.68-4.38-3.5-10.11-1.2-14.69,3.08-6.15,10.79-8.67,17.66-8.17,6.86,.5,13.3,3.33,19.93,5.19,10.15,2.85,20.93,3.42,31.32,1.66l95.36-23.76Z"/>
    <path class="cls-4" d="M359.3,1451.1c5.31,5.08,11.08,9.7,17.16,13.82,7.88,5.34,16.34,9.83,25.17,13.38,4.42,1.77,8.93,3.3,13.51,4.58,1.34,.37,13.23,2.36,13.37,2.97,.66,2.74-.84,5.64-3.02,7.42-2.19,1.77-4.96,2.64-7.67,3.41-38.81,11.06-80.97,10.05-119.2-2.85-4.12-1.39-8.46-3.11-10.9-6.71-3.78-5.57-1.53-13.04,.57-19.44,5.56-16.98,9.15-34.6,10.71-52.39,.39-4.45,.65-8.91,.79-13.37,.1-3.45-1.05-7,2.93-7.71,4-.71,9.25,.53,13.32,.77,4.37,.26,8.74,.53,13.11,.79,6.23,.38,11.62,.12,12.94,7.17,1.52,8.12,3.02,16.22,5.13,24.21,2.02,7.63,1.82,13.32,7.51,19.34,1.49,1.58,3.01,3.11,4.58,4.61Z"/>
    <path class="cls-14" d="M276.52,1489.56l-5.28,13.8c-1.12,2.93,.51,6.18,3.52,7.07,22,6.46,43.98,11.04,66.88,13.49,14.67,1.57,30.81,2.4,45.5,1.07,14.7-1.33,32.89-2.54,44.37-11.82-12.93,3.61-30.19-2.88-43.55-4.12-29.35-2.73-58.7-5.46-88.04-8.19-4.53-.42-9.13-.86-13.39-2.44-4.27-1.59-8.15-4.71-10.02-8.86Z"/>
    <path class="cls-19" d="M283.14,1462.06c-3.03,11.64-4.82,17.63-9.78,35.8,8.14,8.19,22.32,9.49,33.65,11.73,25.77,5.08,48.85,8.8,77.58,9.93,16.91,.67,34.97-.16,50.07-7.81,4.58-2.32,8.88-5.49,11.56-9.87,2.68-4.38,3.5-10.11,1.2-14.69-3.08-6.15-10.79-8.67-17.66-8.17-6.86,.5-13.3,3.33-19.93,5.19-10.15,2.85-20.93,3.42-31.32,1.66l-95.36-23.76Z"/>
    <path class="cls-4" d="M368.85,416.27c.75,18.24-4.14,76.47-3.39,94.71-15.58,25.71-21.93-13.09-37.51,12.62-14.12-17.49-43.62,9.65-54.62-9.95,2.01-27.18,15.35-76.14,13.97-103.35-.44-8.72-.38-17.7-.67-26.43,15.84,14.13,72.62,32.42,82.22,32.4Z"/>
    <path class="cls-17" d="M354.53,458.98c.68,2.81,1.46,5.59,2.37,8.33,2.05,6.2,4.98,12.5,10.3,16.28,4.05,2.88,9.61,4.53,11.36,9.17-.31-.82,4.63,.66,4.96,.87,1.41,.87,2.82,2.35,3.94,3.57,3.22,3.51,5.67,7.91,7.28,12.38,2.75-4.06,5.51-8.11,8.26-12.17,5.91,7.04,11.83,14.09,17.74,21.13,1.61-7.88,2.98-15.8,4.1-23.77,4.82-34.19,1.16-114.58-.74-131.96-2.45-22.37-11.27-52.34-18.53-64.85-3.94-6.79-9.64-15.8-16.33-22.77-9.94-10.34-20.77-17.55-20.77-17.55,0,0,19.63,55.21,16.65,59.78-9.94,15.24-5.58,37.66-19.62,49.82-4.88,4.24-10.7,7.9-13.44,13.76-1.58,3.38-1.79,6.64-1.57,10.23,.28,4.44-.32,9.01-.43,13.47-.24,9.34-.02,18.69,.66,28,.65,8.84,1.72,17.69,3.79,26.29Z"/>
    <path class="cls-4" d="M376.31,271.6c13.87,21.39,21.92,46.85,23.5,72.29,1.58,25.44-3.5,51.27-14.62,74.21-1.89,3.9-4.07,7.86-7.59,10.38-6.22,4.46-14.74,3.28-22.17,1.45-20.69-5.1-40.5-13.74-58.31-25.45-8.04-5.29-15.96-11.53-20.13-20.21-5.06-10.53-3.84-22.86-2.51-34.46,11.81,1.29,23.37-3.79,33.45-10.08,10.08-6.29-6.46-21.4,1.1-30.57,4.66-5.66,10.34-17.22,14.45-23.29,8.49-12.54,38.99-12.93,44.91-26.87,2.87,4.26,5.27,8.54,7.9,12.6Z"/>
    <path class="cls-3" d="M286.91,396.81c.07,4.52,.31,7.5,.27,9.87,17.54,11.38,65.61,45.43,65.93,45.51-2.23-12.89-2.67-22.6-2.56-23.54-17.42-5.23-38.22-14.18-53.4-24.17-3.54-2.34-7.05-4.85-10.23-7.67Z"/>
    <path class="cls-17" d="M378.84,263.44c2.07,3.03,2.59,7.06,1.38,10.52-1.74,4.97-6.61,8.22-11.58,9.97-4.97,1.75-10.28,2.36-15.26,4.1-3,1.05-5.85,2.52-8.46,4.34-17.06,11.87-16.27,34.29-16.31,52.97-.05,19.79,1.62,41.04-5.96,59.8-4.4,10.88-10.22,21.52-18.5,29.88-8.28,8.37-12.56,20.99-16.54,32.06-5.06,14.07-8.62,28.67-10.6,43.49-1.65,12.33,.31,24.95-1.21,37.02-1.3,10.35-10.63,21.97-15.53,31.11-5.9,10.99-12.58,22.02-23.12,29.15-9.21,6.23-20.32,8.78-30.97,11.97-13.94,4.17-27.5,9.61-40.46,16.23-3.48,1.78-7.01,3.67-10.88,4.21-3.87,.54-8.24-.58-10.48-3.78-1.85-2.65-1.91-6.13-1.73-9.36,1.89-33.51,22.08-63.42,27.36-96.57,4.74-29.78-2.33-62.57,12.67-88.74,9.31-16.25,25.64-26.96,39.14-39.94,9.16-8.8,17.67-19.99,20.38-32.66,1.98-9.25-1.95-14.91-4.34-23.37-5.89-20.86,6.28-51.45,20.16-66.89,14.02-15.6,30.2-26.82,50.85-30.47,13.93-2.46,28.82-2.62,42.61,.81,5,1.24,9.83,3.33,15.62,6.08,2.31,1.1,9.99,5.48,11.76,8.07Z"/>
    <path class="cls-19" d="M70.02,1431.74l103.25,12.02c24.93-95.24,49.86-190.48,74.79-285.71,15.02-57.34,29.89-115.13,52.57-169.79,3.54-8.57,7.29-17.05,11.26-25.45l3.63,204.8c-23.13,39.85-33.55,86.06-36.57,132.04-3.04,45.98-4.65,95.06-.63,140.97l31.47-.98,53.82-1.68c17.3-157.62,43.81-314.24,79.31-468.78,11.3-49.14,18.02-97.57,12.05-147.65-16.44,16.95-38.9,27.05-61.92,32.25-17.43,3.95-35.3,5.28-53.2,5.85h-.01c-5.73,.19-11.46,.29-17.19,.4-18.85,.31-37.8,.47-56.4-2.55-18.6-3.01-37-9.36-51.9-20.93-3.97,18.39-8.1,36.88-12.33,55.43-15.84,69.47-33.06,139.73-47.92,208.64-9.23,42.87-18.46,85.74-28.24,128.48-15.67,68.48-37.41,134.86-55.85,202.63Z"/>
    <path class="cls-14" d="M278.33,1440.63l31.47-.98c.43-1.05,.75-2.12,.96-3.23,3.46-18.66-.2-41.09,.41-60.17,1.22-38.65,5-77.47,15.49-114.81,6.13-21.86,14.5-43.04,20.25-64.99,18.71-71.46-4.49-278.52-4.49-278.52,0,0-20.91,5.32-26.75,14.26-5.85,8.93-4.46,13.77-3.77,30.64l2.53,142.38c.62,34.9-5.54,69.52-17.35,102.37-10.58,29.42-16.06,60.81-18.11,92.1-3.04,45.98-4.65,95.06-.63,140.97Z"/>
    <path class="cls-14" d="M202.04,891.99c4.43-.19,8.85-.42,13.27-.68,23.21-1.33,46.49-3.39,69.07-8.95,12.74-3.15,25.22-7.41,37.02-13.17,3.9-1.91,11.99-5.34,18.45-9.55-5.73,.19-11.46,.29-17.19,.4-18.85,.31-37.8,.47-56.4-2.55-18.6-3.01-37-9.36-51.9-20.93-3.97,18.39-8.1,36.88-12.33,55.43Z"/>
    <path class="cls-6" d="M580.8,626.91c-2.93,1.11-6.03,1.72-9.16,1.72-9.42,0-17.32-4.8-22.1-11.95-.03,0-.07,0-.1,0-4.82-.19-9.44-2.01-13.76-4.14-22.89-11.27-40.08-31.33-55.61-51.57-15.53-20.25-30.4-41.56-50.71-57-18.49-14.05-43.64-25.02-67.12-25.94,2.6,4.13-1.26,10.53-4.26,13.4-3.48,3.34-8.05,5.29-12.61,6.82-12.98,4.35-27.14,5.79-40.47,2.65-8.2-1.94-16.03-5.69-22.56-11.04-3.17-2.61-5.52-6.91-8.73-9.21-2.82-2.01-6.48-.84-9.74-.23-18.91,3.6-35.45,15.42-49.96,27.48-14.91,12.37-29.15,25.54-42.68,39.4l27.98,89.48c2.52-2.51,5.02-5,7.46-7.47,1.48-1.5,2.93-3.01,4.35-4.51h.01c.39-.43,.79-.87,1.19-1.29v.11l-.59,29.09-.45,22.2-3.25,160.22c11.48,7.41,25.15,15.43,38.22,19.37,70.41,21.26,148.66,11.83,212.86-24.05,4.06-57.37,1.42-115.2-7.82-171.97-2.74-16.96-6.08-33.82-10.01-50.53l2.69,3.29,66.81,81.72c3.75,3.48,8.95,5.36,13.98,6.24,7.17,1.28,14.6-.46,21.18-3.53,6.59-3.09,12.46-7.47,18.29-11.82l45.18-38.23c-9.65-6.01-19.19-12.16-28.47-18.72Z"/>
    <path class="cls-4" d="M212.87,791.26c1.87,2.43,3.85,4.81,5.37,7.47,1.9,3.33,3.15,7.04,3.66,10.84,.42,3.09-.01,6.16-.35,9.23-.32,2.86-.31,5.85-1.41,8.56-.8,1.96-2.28,3.75-4.29,4.42-2.15,.72-4.69,.1-6.62,1.29-1.3,.8-2.06,2.3-2.29,3.81-.24,1.51-.02,3.05,.23,4.56,.88,5.28,2.2,10.48,3.93,15.54,1.64,4.82,3.83,8.57,2.61,13.79-.96,4.08-4.79,7.81-8.91,7.1-2.76-.48-4.84-2.71-6.65-4.84,0-2.11-5.77-6.79-6.88-8.95-1.14-2.23-1.6-4.53-2.94-6.7-4.37-7.13-9.8-13.8-14.65-20.62-2.01-2.83-4.13-6.15-3.32-9.53,.93-3.9,5.25-5.89,7.51-9.21,2.17-3.19,2.25-7.47,1-11.12-1.25-3.65-3.67-6.78-6.23-9.66-7.93-8.89-17.71-16.11-28.54-21.06,2.86-3.37,6.26-6.66,8.75-10.32,2.52-3.72,3.73-7.47,7.73-10,3.4-2.15,7.24-2.69,11.18-3.01,5.38-.44,10.49-.34,14.89,3.16,6.23,4.96,10.56,13.02,15.1,19.42,3.12,4.42,6.24,8.84,9.3,13.31,.59,.85,1.21,1.69,1.84,2.52Z"/>
    <path class="cls-6" d="M96.3,642.82c21.39-34.43,46.58-66.5,74.9-95.5l27.98,89.48c-16.19,16.14-32.79,33.14-33.55,54.84-.23,6.7,3.03,12.96,6.2,18.86,7.83,14.57,16.16,29.77,23.99,44.34-14.77,9.3-27,20.18-39.1,32.76-30.47-29.61-55.7-64.85-76.63-101.82,.18-15.5,8.04-29.78,16.22-42.95Z"/>
    <path class="cls-12" d="M451.17,658.49c-2.74-16.96-6.08-33.82-10.01-50.53l2.69,3.29c-8.61-11.76-17.05-23.63-25.34-35.6-2.87-4.14-5.71-8.3-8.54-12.47-2.17-3.2-6.5-8.77-9.96-12.23,7.47,39.03,28.53,74.8,51.16,107.55Z"/>
    <path class="cls-12" d="M211.16,674.92c14.05-12.59,33.71-38.8,39.07-54.27,3.57-10.29,11.88-53.44,13.45-55.51-15.66,20.76-32.87,40.35-51.49,58.49l-.59,29.09-.45,22.2Z"/>
    <path class="cls-15" d="M206.64,629.32c1.48-1.5,2.93-3.01,4.35-4.51-1.49,1.45-3.01,2.92-4.35,4.51Z"/>
    <g>
      <rect class="cls-24" x="454.97" y="604.71" width="594.62" height="924.67" rx="89.22" ry="89.22"/>
      <g>
        <path class="cls-10" d="M514.55,604.71h415.85c49.33,0,89.39,40.05,89.39,89.39v745.9c0,49.33-40.05,89.39-89.39,89.39h-415.85c-49.33,0-89.39-40.05-89.39-89.39V694.09c0-49.33,40.05-89.39,89.39-89.39Z"/>
        <path class="cls-9" d="M930.4,1530.62h-415.85c-49.97,0-90.63-40.66-90.63-90.63V694.09c0-49.97,40.66-90.63,90.63-90.63h415.85c49.97,0,90.63,40.66,90.63,90.63v745.9c0,49.97-40.66,90.63-90.63,90.63Zm-415.85-924.67c-48.6,0-88.14,39.54-88.14,88.14v745.9c0,48.6,39.54,88.14,88.14,88.14h415.85c48.6,0,88.14-39.54,88.14-88.14V694.09c0-48.6-39.54-88.14-88.14-88.14h-415.85Z"/>
      </g>
      <g>
        <circle class="cls-16" cx="566.13" cy="943" r="60.37" transform="translate(-406.74 1456.11) rotate(-86.83)"/>
        <circle class="cls-16" cx="733.98" cy="943" r="60.37" transform="translate(-244.41 1629.09) rotate(-87.14)"/>
        <circle class="cls-16" cx="894.24" cy="943" r="60.37" transform="translate(-132.28 1739.96) rotate(-84.35)"/>
        <circle class="cls-16" cx="566.13" cy="1104.98" r="60.37" transform="translate(-655.5 1326.61) rotate(-73.15)"/>
        <circle class="cls-16" cx="733.98" cy="1104.98" r="60.37" transform="translate(-522.37 1530.76) rotate(-75.13)"/>
        <circle class="cls-16" cx="894.24" cy="1104.98" r="60.37" transform="translate(-515.84 1284.75) rotate(-58.28)"/>
        <circle class="cls-16" cx="566.13" cy="1266.97" r="60.37"/>
        <circle class="cls-16" cx="733.98" cy="1266.97" r="60.37"/>
        <circle class="cls-16" cx="894.24" cy="1266.97" r="60.37"/>
        <circle class="cls-16" cx="566.13" cy="1428.95" r="60.37"/>
        <circle class="cls-16" cx="733.98" cy="1428.95" r="60.37"/>
        <circle class="cls-16" cx="894.24" cy="1428.95" r="60.37"/>
      </g>
      <g>
        <circle class="cls-5" cx="547.57" cy="943" r="60.37" transform="translate(-470.97 1332.44) rotate(-80.78)"/>
        <path class="cls-24" d="M547.57,1004.73c-34.04,0-61.73-27.69-61.73-61.73s27.69-61.73,61.73-61.73,61.73,27.69,61.73,61.73-27.69,61.73-61.73,61.73Zm0-120.74c-32.54,0-59.01,26.47-59.01,59.01s26.47,59.01,59.01,59.01,59.01-26.47,59.01-59.01-26.47-59.01-59.01-59.01Z"/>
      </g>
      <g>
        <circle class="cls-5" cx="715.42" cy="943" r="60.37" transform="translate(-250.86 1626.64) rotate(-88.09)"/>
        <path class="cls-24" d="M715.42,1004.73c-34.04,0-61.73-27.69-61.73-61.73s27.69-61.73,61.73-61.73,61.73,27.69,61.73,61.73-27.69,61.73-61.73,61.73Zm0-120.74c-32.54,0-59.01,26.47-59.01,59.01s26.47,59.01,59.01,59.01,59.01-26.47,59.01-59.01-26.47-59.01-59.01-59.01Z"/>
      </g>
      <g>
        <circle class="cls-5" cx="875.68" cy="943" r="60.37" transform="translate(-167.25 1696.9) rotate(-82.98)"/>
        <path class="cls-24" d="M875.68,1004.73c-34.04,0-61.73-27.69-61.73-61.73s27.69-61.73,61.73-61.73,61.73,27.69,61.73,61.73-27.69,61.73-61.73,61.73Zm0-120.74c-32.54,0-59.01,26.47-59.01,59.01s26.47,59.01,59.01,59.01,59.01-26.47,59.01-59.01-26.47-59.01-59.01-59.01Z"/>
      </g>
      <g>
        <circle class="cls-5" cx="547.57" cy="1104.98" r="60.37" transform="translate(-620.96 710.83) rotate(-45)"/>
        <path class="cls-24" d="M547.57,1166.71c-34.04,0-61.73-27.69-61.73-61.73s27.69-61.73,61.73-61.73,61.73,27.69,61.73,61.73-27.69,61.73-61.73,61.73Zm0-120.74c-32.54,0-59.01,26.47-59.01,59.01s26.47,59.01,59.01,59.01,59.01-26.47,59.01-59.01-26.47-59.01-59.01-59.01Z"/>
      </g>
      <g>
        <circle class="cls-5" cx="715.42" cy="1104.98" r="60.37" transform="translate(-489.89 1634.16) rotate(-80.78)"/>
        <path class="cls-24" d="M715.42,1166.71c-34.04,0-61.73-27.69-61.73-61.73s27.69-61.73,61.73-61.73,61.73,27.69,61.73,61.73-27.69,61.73-61.73,61.73Zm0-120.74c-32.54,0-59.01,26.47-59.01,59.01s26.47,59.01,59.01,59.01,59.01-26.47,59.01-59.01-26.47-59.01-59.01-59.01Z"/>
      </g>
      <g>
        <circle class="cls-5" cx="875.68" cy="1104.98" r="60.37" transform="translate(-524.86 942.84) rotate(-45)"/>
        <path class="cls-24" d="M875.68,1166.71c-34.04,0-61.73-27.69-61.73-61.73s27.69-61.73,61.73-61.73,61.73,27.69,61.73,61.73-27.69,61.73-61.73,61.73Zm0-120.74c-32.54,0-59.01,26.47-59.01,59.01s26.47,59.01,59.01,59.01,59.01-26.47,59.01-59.01-26.47-59.01-59.01-59.01Z"/>
      </g>
      <g>
        <circle class="cls-5" cx="547.57" cy="1266.97" r="60.37"/>
        <path class="cls-24" d="M547.57,1328.7c-34.04,0-61.73-27.69-61.73-61.73s27.69-61.73,61.73-61.73,61.73,27.69,61.73,61.73-27.69,61.73-61.73,61.73Zm0-120.74c-32.54,0-59.01,26.47-59.01,59.01s26.47,59.01,59.01,59.01,59.01-26.47,59.01-59.01-26.47-59.01-59.01-59.01Z"/>
      </g>
      <g>
        <circle class="cls-5" cx="715.42" cy="1266.97" r="60.37"/>
        <path class="cls-24" d="M715.42,1328.7c-34.04,0-61.73-27.69-61.73-61.73s27.69-61.73,61.73-61.73,61.73,27.69,61.73,61.73-27.69,61.73-61.73,61.73Zm0-120.74c-32.54,0-59.01,26.47-59.01,59.01s26.47,59.01,59.01,59.01,59.01-26.47,59.01-59.01-26.47-59.01-59.01-59.01Z"/>
      </g>
      <g>
        <circle class="cls-5" cx="875.68" cy="1266.97" r="60.37"/>
        <path class="cls-24" d="M875.68,1328.7c-34.04,0-61.73-27.69-61.73-61.73s27.69-61.73,61.73-61.73,61.73,27.69,61.73,61.73-27.69,61.73-61.73,61.73Zm0-120.74c-32.54,0-59.01,26.47-59.01,59.01s26.47,59.01,59.01,59.01,59.01-26.47,59.01-59.01-26.47-59.01-59.01-59.01Z"/>
      </g>
      <circle class="cls-19" cx="547.57" cy="1428.95" r="60.37"/>
      <circle class="cls-19" cx="715.42" cy="1428.95" r="60.37"/>
      <circle class="cls-19" cx="875.68" cy="1428.95" r="60.37"/>
      <path class="cls-19" d="M929.44,825.33l-401.24,.13c-13.91,0-25.19-11.27-25.2-25.18l-.03-86.36c0-13.91,11.27-25.19,25.18-25.2l401.24-.13c13.91,0,25.19,11.27,25.2,25.18l.03,86.36c0,13.91-11.27,25.19-25.18,25.2Z"/>
      <path class="cls-16" d="M913.65,825.33l-401.24,.13c-13.91,0-25.19-11.27-25.2-25.18l-.03-86.36c0-13.91,11.27-25.19,25.18-25.2l401.24-.13c13.91,0,25.19,11.27,25.2,25.18l.03,86.36c0,13.91-11.27,25.19-25.18,25.2Z"/>
      <g>
        <path class="cls-5" d="M556.99,710.63c11.54,0,23.09,0,35.07,0-.41,1.15-.61,2.01-.97,2.66-3.39,6.11-7.17,10.36-13.1,9.01-3.99-.9-8.15,.02-12.22-.28-1.31-.1-2.8-1.08-3.82-2.34-1.95-2.42-3.63-5.33-5.42-8.04,.15-.33,.31-.67,.46-1Z"/>
        <path class="cls-5" d="M591.65,803.72c-11.54,0-23.09,0-34.98,0,.34-1.05,.47-1.84,.8-2.38q5.33-9.02,13.54-9.01c3.92,0,7.85,.12,11.77-.06,1.71-.08,2.94,.73,4.07,2.58,1.68,2.73,3.48,5.27,5.24,7.89-.14,.33-.29,.65-.43,.98Z"/>
        <path class="cls-5" d="M556.33,710.38c11.94,0,23.56,0,35.18,0,.07,.31,.14,.63,.21,.94-3.67,3.8-5.39,11.53-11.53,10.44-4.81-.85-9.75,.14-14.63,.04-1.09-.02-2.41-.78-3.21-1.88-2.05-2.84-3.87-6.07-6.03-9.53Z"/>
        <path class="cls-5" d="M556.26,802.74c2.21-3.22,4.38-6.52,6.68-9.58,.52-.69,1.53-.74,2.31-.75,5.89-.06,11.77-.13,17.66,.06,1.09,.03,2.39,.86,3.2,1.96,1.99,2.67,3.75,5.71,6.05,9.3-12.24,0-23.86,0-35.48,0-.14-.33-.28-.66-.43-.98Z"/>
        <path class="cls-5" d="M593.72,758.54c0,14.52,0,28.35,0,42.18-.18,.18-.37,.36-.55,.54-2.16-3.17-4.57-6.07-6.38-9.64-.83-1.64-.62-4.59-.66-6.96-.08-5.83,.03-11.67-.05-17.5-.03-2.23,.42-3.63,1.85-4.52,1.84-1.15,3.61-2.55,5.79-4.1Z"/>
        <path class="cls-5" d="M593.72,755.9c-2.5-1.86-4.6-3.22-6.53-4.97-.59-.53-1.02-2.14-1.03-3.27-.09-7.29-.06-14.58-.04-21.87,0-.84-.04-1.96,.28-2.46,2.21-3.48,4.51-6.82,6.78-10.21,.18,.16,.36,.32,.53,.48,0,13.84,0,27.69,0,42.31Z"/>
        <path class="cls-5" d="M554.69,800.99c0-13.83,0-27.67,0-41.51,4.1-.21,7.57,4.49,7.58,10.36,0,5.88,.12,11.76-.08,17.62-.07,1.98-.69,4.21-1.53,5.76-1.61,2.97-3.55,5.54-5.35,8.28-.2-.17-.41-.34-.61-.51Z"/>
        <path class="cls-5" d="M554.69,755.86c0-14.59,0-28.29,0-41.98,.22-.19,.43-.39,.65-.59,1.57,2.35,3.04,4.89,4.75,6.99,2.02,2.47,2.29,5.55,2.19,9.11-.16,5.98-.04,11.99-.26,17.96-.05,1.36-.81,3.07-1.59,3.86-1.65,1.7-3.53,2.9-5.73,4.64Z"/>
        <path class="cls-5" d="M593.47,758.38c0,14.77,0,28.61,0,42.45-.19,.24-.38,.48-.57,.72-1.21-1.79-2.35-3.71-3.65-5.33-2.62-3.28-3.87-7.12-3.53-12.45,.33-5.21,.08-10.5,.04-15.76-.02-2.54,.46-4.44,2.17-5.52,1.76-1.11,3.43-2.53,5.53-4.11Z"/>
        <path class="cls-5" d="M554.95,800.68c0-13.76,0-27.53,0-42.16,2.56,1.94,4.88,3.55,7.07,5.48,.43,.38,.53,1.97,.53,3.01,.04,7.06,.08,14.13-.03,21.19-.02,1.43-.48,3.08-1.08,4.2-1.73,3.21-3.63,6.2-5.47,9.28-.34-.33-.68-.67-1.02-1Z"/>
        <path class="cls-5" d="M593.39,713.66c0,13.73,0,27.45,0,42.19-2.48-2.07-4.91-3.51-6.79-5.92-.81-1.04-.58-4.09-.63-6.24-.12-5.14-.07-10.28-.22-15.42-.09-3.04,.5-5.4,2-7.51,1.7-2.4,3.22-5.11,4.81-7.69,.27,.2,.54,.39,.81,.59Z"/>
        <g>
          <path class="cls-5" d="M529.65,758.36c0,14.77,0,28.61,0,42.45-.19,.24-.38,.48-.57,.72-1.21-1.79-2.35-3.71-3.65-5.33-2.62-3.28-3.87-7.12-3.53-12.45,.33-5.21,.08-10.5,.04-15.76-.02-2.54,.46-4.44,2.17-5.52,1.76-1.11,3.43-2.53,5.53-4.11Z"/>
          <path class="cls-5" d="M529.57,713.65c0,13.73,0,27.45,0,42.19-2.48-2.07-4.91-3.51-6.79-5.92-.81-1.04-.58-4.09-.63-6.24-.12-5.14-.07-10.28-.22-15.42-.09-3.04,.5-5.4,2-7.51,1.7-2.4,3.22-5.11,4.81-7.69,.27,.2,.54,.39,.81,.59Z"/>
        </g>
        <path class="cls-5" d="M555.79,712.88c2.04,3.28,4.14,6.49,6.09,9.89,.47,.81,.64,2.23,.65,3.37,.06,7.06,.13,14.13-.05,21.19-.04,1.42-.9,3.25-1.74,4.09-1.72,1.7-3.68,2.86-5.83,4.45,0-14.57,0-28.35,0-42.12,.29-.29,.59-.58,.88-.86Z"/>
        <path class="cls-5" d="M616.4,710.63c11.54,0,23.09,0,35.07,0-.41,1.15-.61,2.01-.97,2.66-3.39,6.11-7.17,10.36-13.1,9.01-3.99-.9-8.15,.02-12.22-.28-1.31-.1-2.8-1.08-3.82-2.34-1.95-2.42-3.63-5.33-5.42-8.04,.15-.33,.31-.67,.46-1Z"/>
        <path class="cls-5" d="M651.06,803.72c-11.54,0-23.09,0-34.98,0,.34-1.05,.47-1.84,.8-2.38q5.33-9.02,13.54-9.01c3.92,0,7.85,.12,11.77-.06,1.71-.08,2.94,.73,4.07,2.58,1.68,2.73,3.48,5.27,5.24,7.89-.14,.33-.29,.65-.43,.98Z"/>
        <path class="cls-5" d="M615.74,710.38c11.94,0,23.56,0,35.18,0,.07,.31,.14,.63,.21,.94-3.67,3.8-5.39,11.53-11.53,10.44-4.81-.85-9.75,.14-14.63,.04-1.09-.02-2.41-.78-3.21-1.88-2.05-2.84-3.87-6.07-6.03-9.53Z"/>
        <path class="cls-5" d="M615.67,802.74c2.21-3.22,4.38-6.52,6.68-9.58,.52-.69,1.53-.74,2.31-.75,5.89-.06,11.77-.13,17.66,.06,1.09,.03,2.39,.86,3.2,1.96,1.99,2.66,3.75,5.71,6.05,9.3-12.24,0-23.86,0-35.48,0-.14-.33-.28-.66-.43-.98Z"/>
        <path class="cls-5" d="M653.14,758.55c0,14.52,0,28.35,0,42.18-.18,.18-.37,.36-.55,.54-2.16-3.17-4.57-6.07-6.38-9.64-.83-1.64-.62-4.59-.65-6.96-.08-5.83,.03-11.67-.05-17.5-.03-2.23,.42-3.63,1.85-4.52,1.84-1.15,3.61-2.55,5.79-4.1Z"/>
        <path class="cls-5" d="M653.13,755.91c-2.5-1.86-4.6-3.22-6.53-4.97-.59-.53-1.02-2.14-1.03-3.27-.09-7.29-.06-14.58-.04-21.87,0-.84-.04-1.96,.28-2.46,2.21-3.48,4.51-6.82,6.78-10.21,.18,.16,.36,.32,.54,.48,0,13.84,0,27.69,0,42.31Z"/>
        <path class="cls-5" d="M614.1,800.99c0-13.83,0-27.67,0-41.51,4.1-.21,7.57,4.49,7.58,10.36,0,5.88,.12,11.76-.08,17.62-.07,1.98-.69,4.21-1.53,5.76-1.61,2.97-3.55,5.54-5.35,8.28-.2-.17-.41-.34-.61-.51Z"/>
        <path class="cls-5" d="M614.11,755.86c0-14.6,0-28.29,0-41.98,.22-.2,.43-.39,.65-.59,1.57,2.35,3.04,4.89,4.75,6.99,2.02,2.47,2.29,5.55,2.19,9.11-.16,5.98-.04,11.99-.26,17.96-.05,1.36-.81,3.07-1.59,3.86-1.65,1.7-3.53,2.9-5.73,4.64Z"/>
        <path class="cls-5" d="M652.88,758.38c0,14.77,0,28.61,0,42.45-.19,.24-.38,.48-.57,.72-1.21-1.79-2.35-3.71-3.65-5.33-2.62-3.28-3.87-7.12-3.53-12.45,.33-5.21,.08-10.5,.04-15.76-.02-2.54,.46-4.44,2.17-5.52,1.76-1.11,3.43-2.53,5.53-4.11Z"/>
        <path class="cls-5" d="M614.36,800.68c0-13.76,0-27.53,0-42.16,2.56,1.94,4.88,3.55,7.07,5.48,.43,.38,.53,1.97,.53,3.01,.04,7.06,.08,14.13-.03,21.19-.02,1.43-.48,3.08-1.08,4.2-1.73,3.21-3.63,6.2-5.47,9.28-.34-.33-.68-.67-1.02-1Z"/>
        <path class="cls-5" d="M652.8,713.66c0,13.73,0,27.45,0,42.19-2.48-2.07-4.91-3.51-6.79-5.92-.81-1.04-.58-4.09-.63-6.24-.12-5.14-.07-10.28-.22-15.42-.09-3.04,.5-5.4,2-7.51,1.7-2.4,3.22-5.11,4.81-7.69,.27,.2,.54,.39,.81,.59Z"/>
        <path class="cls-5" d="M615.2,712.88c2.04,3.28,4.14,6.49,6.09,9.89,.47,.81,.64,2.23,.65,3.37,.06,7.06,.13,14.13-.05,21.19-.04,1.42-.9,3.25-1.74,4.09-1.71,1.7-3.68,2.86-5.83,4.45,0-14.57,0-28.35,0-42.12,.29-.29,.59-.58,.88-.86Z"/>
        <path class="cls-5" d="M675.81,710.63c11.54,0,23.09,0,35.07,0-.41,1.15-.61,2.01-.97,2.66-3.39,6.11-7.17,10.36-13.1,9.01-3.99-.9-8.15,.02-12.22-.28-1.31-.1-2.8-1.08-3.82-2.34-1.95-2.42-3.63-5.33-5.42-8.04,.15-.33,.31-.67,.46-1Z"/>
        <path class="cls-5" d="M710.47,803.72c-11.54,0-23.09,0-34.98,0,.34-1.05,.47-1.84,.8-2.38q5.33-9.02,13.54-9.01c3.92,0,7.85,.12,11.77-.06,1.71-.08,2.94,.73,4.07,2.58,1.68,2.73,3.48,5.27,5.24,7.89-.14,.33-.29,.65-.43,.98Z"/>
        <path class="cls-5" d="M675.15,710.38c11.94,0,23.56,0,35.18,0,.07,.31,.14,.63,.21,.94-3.67,3.8-5.39,11.53-11.53,10.44-4.81-.85-9.75,.14-14.63,.04-1.09-.02-2.41-.78-3.21-1.88-2.05-2.84-3.87-6.07-6.03-9.53Z"/>
        <path class="cls-5" d="M675.08,802.74c2.21-3.22,4.38-6.52,6.68-9.58,.52-.69,1.53-.74,2.31-.75,5.89-.06,11.77-.13,17.66,.06,1.09,.03,2.39,.86,3.2,1.96,1.99,2.67,3.75,5.71,6.05,9.3-12.24,0-23.86,0-35.48,0-.14-.33-.28-.66-.43-.98Z"/>
        <path class="cls-5" d="M712.55,758.55c0,14.52,0,28.35,0,42.18-.18,.18-.37,.36-.55,.54-2.16-3.17-4.57-6.07-6.38-9.64-.83-1.64-.62-4.59-.65-6.96-.08-5.83,.03-11.67-.05-17.5-.03-2.23,.42-3.63,1.85-4.52,1.84-1.15,3.61-2.55,5.79-4.1Z"/>
        <path class="cls-5" d="M712.54,755.91c-2.5-1.86-4.6-3.22-6.53-4.97-.59-.53-1.02-2.14-1.03-3.27-.09-7.29-.06-14.58-.04-21.87,0-.84-.04-1.96,.28-2.46,2.21-3.48,4.51-6.82,6.78-10.21,.18,.16,.36,.32,.53,.48,0,13.84,0,27.69,0,42.31Z"/>
        <path class="cls-5" d="M673.52,800.99c0-13.83,0-27.67,0-41.51,4.1-.21,7.57,4.49,7.58,10.36,0,5.88,.12,11.76-.08,17.62-.07,1.98-.69,4.21-1.53,5.76-1.61,2.97-3.55,5.54-5.35,8.28-.2-.17-.41-.34-.61-.51Z"/>
        <path class="cls-5" d="M673.52,755.86c0-14.59,0-28.29,0-41.98,.22-.2,.43-.39,.65-.59,1.57,2.35,3.04,4.89,4.75,6.98,2.02,2.47,2.29,5.55,2.19,9.11-.16,5.98-.04,11.99-.26,17.96-.05,1.36-.81,3.07-1.59,3.86-1.65,1.7-3.53,2.9-5.73,4.64Z"/>
        <path class="cls-5" d="M712.3,758.38c0,14.77,0,28.61,0,42.45-.19,.24-.38,.48-.57,.72-1.21-1.79-2.35-3.71-3.65-5.33-2.62-3.28-3.87-7.12-3.53-12.45,.33-5.21,.08-10.5,.04-15.76-.02-2.54,.46-4.44,2.17-5.52,1.76-1.11,3.43-2.53,5.53-4.11Z"/>
        <path class="cls-5" d="M673.77,800.68c0-13.76,0-27.53,0-42.16,2.56,1.94,4.88,3.55,7.07,5.48,.43,.38,.53,1.97,.53,3.01,.04,7.06,.08,14.13-.03,21.19-.02,1.43-.48,3.08-1.08,4.2-1.73,3.21-3.63,6.2-5.47,9.28-.34-.33-.68-.67-1.02-1Z"/>
        <path class="cls-5" d="M712.21,713.66c0,13.73,0,27.45,0,42.19-2.48-2.07-4.91-3.51-6.79-5.92-.81-1.04-.58-4.09-.63-6.24-.12-5.14-.07-10.28-.22-15.42-.09-3.04,.5-5.4,2-7.51,1.7-2.4,3.22-5.11,4.81-7.69,.27,.2,.54,.39,.81,.59Z"/>
        <path class="cls-5" d="M674.61,712.88c2.04,3.28,4.14,6.49,6.09,9.89,.47,.81,.64,2.23,.65,3.37,.06,7.06,.13,14.13-.05,21.19-.04,1.42-.9,3.25-1.74,4.09-1.72,1.7-3.68,2.86-5.83,4.45,0-14.57,0-28.35,0-42.12,.29-.29,.59-.58,.88-.86Z"/>
        <path class="cls-5" d="M735.22,710.63c11.54,0,23.09,0,35.07,0-.41,1.15-.61,2.01-.97,2.66-3.39,6.11-7.17,10.36-13.1,9.01-3.99-.9-8.15,.02-12.22-.28-1.31-.1-2.8-1.08-3.82-2.34-1.95-2.42-3.63-5.33-5.42-8.04,.15-.33,.31-.67,.46-1Z"/>
        <path class="cls-5" d="M769.88,803.72c-11.54,0-23.09,0-34.98,0,.34-1.05,.47-1.84,.8-2.38q5.33-9.02,13.54-9.01c3.92,0,7.85,.12,11.77-.06,1.71-.08,2.94,.73,4.07,2.58,1.68,2.73,3.48,5.27,5.24,7.89-.14,.33-.29,.65-.43,.98Z"/>
        <path class="cls-5" d="M734.56,710.38c11.94,0,23.56,0,35.18,0,.07,.31,.14,.63,.21,.94-3.67,3.8-5.39,11.53-11.53,10.44-4.81-.85-9.75,.14-14.63,.04-1.09-.02-2.41-.78-3.21-1.88-2.05-2.84-3.87-6.07-6.03-9.53Z"/>
        <path class="cls-5" d="M734.49,802.74c2.21-3.22,4.38-6.52,6.68-9.58,.52-.69,1.53-.74,2.31-.75,5.89-.06,11.77-.13,17.66,.06,1.09,.03,2.38,.86,3.2,1.96,1.99,2.66,3.75,5.71,6.05,9.3-12.24,0-23.86,0-35.48,0-.14-.33-.28-.66-.43-.98Z"/>
        <path class="cls-5" d="M771.96,758.55c0,14.52,0,28.35,0,42.18-.18,.18-.37,.36-.55,.54-2.16-3.17-4.57-6.07-6.38-9.64-.83-1.64-.62-4.59-.66-6.96-.08-5.83,.03-11.67-.05-17.5-.03-2.23,.42-3.63,1.85-4.52,1.84-1.15,3.61-2.55,5.79-4.1Z"/>
        <path class="cls-5" d="M771.96,755.91c-2.5-1.86-4.6-3.22-6.53-4.97-.59-.53-1.02-2.14-1.03-3.27-.09-7.29-.06-14.58-.04-21.87,0-.84-.04-1.96,.28-2.46,2.21-3.48,4.51-6.82,6.78-10.21,.18,.16,.36,.32,.54,.48,0,13.84,0,27.69,0,42.31Z"/>
        <path class="cls-5" d="M732.93,801c0-13.83,0-27.67,0-41.51,4.1-.21,7.57,4.49,7.58,10.36,0,5.88,.12,11.76-.08,17.62-.07,1.98-.69,4.21-1.53,5.76-1.61,2.97-3.55,5.54-5.35,8.28-.2-.17-.41-.34-.61-.51Z"/>
        <path class="cls-5" d="M732.93,755.86c0-14.59,0-28.29,0-41.98,.22-.19,.43-.39,.65-.59,1.57,2.35,3.04,4.89,4.75,6.99,2.02,2.47,2.29,5.55,2.19,9.11-.16,5.98-.04,11.99-.26,17.96-.05,1.36-.81,3.07-1.59,3.86-1.65,1.7-3.53,2.9-5.73,4.64Z"/>
        <path class="cls-5" d="M771.71,758.38c0,14.77,0,28.61,0,42.45-.19,.24-.38,.48-.56,.72-1.21-1.79-2.35-3.71-3.65-5.33-2.62-3.28-3.87-7.12-3.53-12.45,.33-5.21,.08-10.5,.04-15.76-.02-2.54,.46-4.44,2.17-5.52,1.76-1.11,3.43-2.53,5.53-4.11Z"/>
        <path class="cls-5" d="M733.18,800.69c0-13.76,0-27.53,0-42.16,2.56,1.94,4.88,3.55,7.07,5.48,.43,.38,.53,1.97,.53,3.01,.04,7.06,.08,14.13-.03,21.19-.02,1.43-.48,3.08-1.08,4.2-1.73,3.21-3.63,6.2-5.47,9.28-.34-.33-.68-.67-1.02-1Z"/>
        <path class="cls-5" d="M771.62,713.66c0,13.73,0,27.45,0,42.19-2.48-2.07-4.91-3.51-6.79-5.92-.81-1.04-.58-4.09-.63-6.24-.12-5.14-.07-10.28-.22-15.42-.09-3.04,.5-5.4,2-7.51,1.7-2.4,3.22-5.11,4.81-7.69,.27,.2,.54,.39,.81,.59Z"/>
        <path class="cls-5" d="M734.03,712.88c2.04,3.28,4.14,6.49,6.09,9.89,.47,.81,.64,2.23,.65,3.37,.06,7.06,.13,14.13-.05,21.19-.04,1.42-.9,3.25-1.74,4.09-1.71,1.7-3.68,2.86-5.83,4.45,0-14.57,0-28.35,0-42.12,.29-.29,.59-.58,.88-.86Z"/>
      </g>
    </g>
    <g>
      <path class="cls-3" d="M673.65,594.43c10.61-2.27,20.23,.66,21.48,6.54,1.26,5.88-6.33,12.48-16.94,14.75-10.61,2.27-20.23-.66-21.48-6.54-1.26-5.88,6.33-12.48,16.94-14.75Z"/>
      <path class="cls-4" d="M662.92,596.6l3.54,15.1c.63,2.69-1.05,5.41-3.74,6.04h0c-2.69,.63-5.41-1.05-6.04-3.74l-3.54-15.1c-.63-2.69,1.05-5.41,3.74-6.04h0c2.69-.63,5.41,1.05,6.04,3.74Z"/>
      <path class="cls-4" d="M658.04,599.4h24.74c1.72,0,3.11,1.4,3.11,3.11v4.41c0,1.72-1.4,3.11-3.11,3.11h-24.74c-1.72,0-3.11-1.4-3.11-3.11v-4.41c0-1.72,1.4-3.11,3.11-3.11Z" transform="translate(219.14 1386.7) rotate(-102.06)"/>
      <rect class="cls-4" x="666.26" y="599.2" width="30.36" height="10.68" rx="3.13" ry="3.13" transform="translate(232.65 1397.26) rotate(-102.06)"/>
      <rect class="cls-4" x="679.76" y="600.59" width="24.54" height="9.69" rx="2.84" ry="2.84" transform="translate(216.29 1392.28) rotate(-100.02)"/>
    </g>
  </g>
</svg>