<?xml version="1.0" encoding="UTF-8"?>
<svg id="Layer_2" data-name="Layer 2" xmlns="http://www.w3.org/2000/svg" xmlns:xlink="http://www.w3.org/1999/xlink" viewBox="0 0 1914.92 1789.66">
  <defs>
    <style>
      .cls-1 {
        fill: none;
      }

      .cls-2 {
        clip-path: url(#clippath);
      }

      .cls-3 {
        fill: #f6fafd;
      }

      .cls-4 {
        fill: #f8a66c;
      }

      .cls-5 {
        fill: #f9b889;
      }

      .cls-6 {
        fill: #ed836e;
      }

      .cls-7 {
        fill: #ffa188;
      }

      .cls-8, .cls-9 {
        fill: #fff;
      }

      .cls-10 {
        fill: #ead6c5;
      }

      .cls-11 {
        fill: #6c7cdd;
      }

      .cls-12 {
        fill: #97aaef;
      }

      .cls-13 {
        fill: #6676be;
      }

      .cls-14 {
        fill: #b9c0d1;
      }

      .cls-15 {
        fill: #bf6a3c;
      }

      .cls-16 {
        fill: #c4d2ff;
      }

      .cls-17 {
        fill: #d98853;
      }

      .cls-18 {
        fill: #c6aa95;
      }

      .cls-19 {
        fill: #414345;
      }

      .cls-20 {
        fill: #1d263f;
      }

      .cls-21 {
        fill: #6d8ad0;
      }

      .cls-22 {
        fill: #5564a2;
      }

      .cls-23 {
        fill: #643a24;
      }

      .cls-24 {
        fill: #5a71cc;
      }

      .cls-25 {
        fill: #2d3969;
      }

      .cls-26 {
        fill: #2f3cbc;
      }

      .cls-27 {
        fill: #6071dc;
      }

      .cls-28 {
        fill: #4c63c1;
      }

      .cls-29 {
        fill: #7a91e6;
      }

      .cls-9 {
        opacity: .42;
      }
    </style>
    <clipPath id="clippath">
      <path class="cls-1" d="M1911,921.09c0,479.7-388.87,868.56-868.56,868.56S173.87,1400.79,173.87,921.09c0-243.44-13.26-601.27,148.09-758.97C478.55,9.07,806.18,52.53,1042.44,52.53s556.2-26.18,713.3,130.45c157.73,157.25,155.26,497.79,155.26,738.11Z"/>
    </clipPath>
  </defs>
  <g id="Layer_4" data-name="Layer 4">
    <g class="cls-2">
      <path class="cls-3" d="M1911,921.09c0,479.7-388.87,868.56-868.56,868.56S173.87,1400.79,173.87,921.09c0-243.44-13.26-601.27,148.09-758.97C478.55,9.07,806.18,52.53,1042.44,52.53s556.2-26.18,713.3,130.45c157.73,157.25,155.26,497.79,155.26,738.11Z"/>
    </g>
  </g>
  <g id="Layer_5" data-name="Layer 5">
    <g>
      <g>
        <path class="cls-22" d="M875.29,1565.7h417.65v-28.74h-114.87l10.47-91.91,11.06-96.99,2.38-20.81h-365.19l-7.43,79.79-9.01,96.69-.81,8.5c-2.69,28.88,23.04,53.46,55.74,53.46Z"/>
        <polygon class="cls-13" points="820.36 1503.71 1188.54 1445.03 1199.6 1347.98 829.36 1406.99 820.36 1503.71"/>
        <path class="cls-20" d="M820.36,1506.14l17.35-190.53h37.66l-17.07,183.21c-.92,9.9,2.75,19.33,10.35,26.64,7.59,7.31,17.95,11.51,29.16,11.51h387.36v28.74h-401.47c-21.84,.78-37.27-4.02-49.06-15.36-11.79-11.34-17.87-25.94-14.29-44.2Z"/>
        <rect class="cls-13" x="927.13" y="1536.61" width="366.14" height="29.41" transform="translate(2220.4 3102.62) rotate(180)"/>
      </g>
      <polygon class="cls-25" points="867.42 1400.99 1199.6 1348.09 1201.98 1327.26 874.29 1327.26 867.42 1400.99"/>
      <path class="cls-25" d="M157.13,275.61c-5.73,0-7.26,7.52-5.91,13.09l196.77,812.05,50.42,233.77,41.29-31.8H1787.4l-53.44-201.96-220.15-831.97H187.67l-30.55,6.84Z"/>
      <polygon class="cls-29" points="187.67 268.65 389.27 1100.53 439.7 1302.41 1828.69 1302.41 1775.25 1100.6 1695.25 798.31 1555.1 268.65 187.67 268.65"/>
      <polygon class="cls-13" points="389.27 1100.47 439.7 1302.41 1830.27 1302.41 1775.25 1100.47 389.27 1100.47"/>
      <path class="cls-22" d="M389.27,1100.47l50.42,201.94h.61c118.09-47.38,536.16-121.94,733.24-201.94H389.27Z"/>
      <polygon class="cls-25" points="1830.27 1302.71 439.7 1302.71 398.39 1334.51 1783.31 1334.51 1830.27 1302.71"/>
      <g>
        <polygon class="cls-16" points="237.84 307.02 429.24 1059.66 1717.11 1059.66 1512.7 307.02 237.84 307.02"/>
        <path class="cls-13" d="M236.3,307.41l-.51-1.99H1513.92l204.73,753.82,.55,2.01H428L236.3,307.41Zm1275.19,1.2H239.89l190.59,749.45H1715.03l-203.55-749.45Z"/>
      </g>
      <polygon class="cls-12" points="1527.89 364.5 252.35 364.5 237.84 307.02 1512.7 307.02 1527.89 364.5"/>
    </g>
    <g>
      <g>
        <rect class="cls-24" x="1294.24" y="1200.28" width="590.39" height="365.21" rx="50.67" ry="50.67" transform="translate(3178.87 2765.76) rotate(180)"/>
        <path class="cls-13" d="M1833.96,1566.99h-489.05c-28.76,0-52.17-23.4-52.17-52.17v-263.88c0-28.76,23.4-52.17,52.17-52.17h489.05c28.76,0,52.17,23.4,52.17,52.17v263.88c0,28.76-23.4,52.17-52.17,52.17Zm-489.05-365.21c-27.11,0-49.17,22.06-49.17,49.17v263.88c0,27.11,22.06,49.17,49.17,49.17h489.05c27.11,0,49.17-22.06,49.17-49.17v-263.88c0-27.11-22.06-49.17-49.17-49.17h-489.05Z"/>
      </g>
      <g>
        <rect class="cls-16" x="1323.03" y="1200.28" width="590.39" height="365.21" rx="50.67" ry="50.67" transform="translate(3236.44 2765.76) rotate(180)"/>
        <path class="cls-13" d="M1862.75,1566.99h-489.05c-28.76,0-52.17-23.4-52.17-52.17v-263.88c0-28.76,23.4-52.17,52.17-52.17h489.05c28.76,0,52.17,23.4,52.17,52.17v263.88c0,28.76-23.4,52.17-52.17,52.17Zm-489.05-365.21c-27.11,0-49.17,22.06-49.17,49.17v263.88c0,27.11,22.06,49.17,49.17,49.17h489.05c27.11,0,49.17-22.06,49.17-49.17v-263.88c0-27.11-22.06-49.17-49.17-49.17h-489.05Z"/>
      </g>
      <rect class="cls-28" x="1686.51" y="1261.35" width="160.4" height="102.41" rx="18.64" ry="18.64" transform="translate(3533.42 2625.11) rotate(180)"/>
      <rect class="cls-8" x="1781.81" y="1425.04" width="93.15" height="30.23" rx="9.43" ry="9.43"/>
      <rect class="cls-8" x="1645.06" y="1425.04" width="93.15" height="30.23" rx="9.43" ry="9.43"/>
      <rect class="cls-8" x="1508.31" y="1425.04" width="93.15" height="30.23" rx="9.43" ry="9.43"/>
      <rect class="cls-8" x="1371.56" y="1425.04" width="93.15" height="30.23" rx="9.43" ry="9.43"/>
      <rect class="cls-8" x="1732.66" y="1501.95" width="132.64" height="13.57" rx="2.47" ry="2.47" transform="translate(3597.96 3017.46) rotate(180)"/>
      <circle class="cls-28" cx="1464.71" cy="1335.92" r="52.68"/>
    </g>
    <g>
      <polygon class="cls-8" points="208.4 743.55 1267.28 743.55 1143.25 258.05 84.36 258.05 208.4 743.55"/>
      <path class="cls-14" d="M1271.14,746.55H206.07l-.58-2.26L80.5,255.05H1145.58l.58,2.26,124.99,489.24Zm-1060.41-6H1263.42l-122.5-479.5H88.23l122.5,479.5Z"/>
    </g>
    <g>
      <path class="cls-8" d="M1096.96,149.7H70.17c-48.8,0-78.25,39.56-65.78,88.36L177.66,916.28H1381.16l-173.27-678.22c-12.47-48.8-62.13-88.36-110.93-88.36Z"/>
      <path class="cls-13" d="M1383.09,917.78H176.49l-.29-1.13L2.93,238.43c-6.28-24.59-2.4-47.59,10.94-64.75,12.76-16.43,32.75-25.47,56.3-25.47H1096.96c49.36,0,99.78,40.14,112.38,89.48l173.75,680.1Zm-1204.27-3H1379.23l-172.79-676.35c-12.29-48.1-61.4-87.23-109.48-87.23H70.17c-22.6,0-41.75,8.63-53.93,24.31C3.48,191.93-.21,214.01,5.84,237.68L178.82,914.78Z"/>
    </g>
    <path class="cls-14" d="M598.96,474.5H136.57l-32.66-127.84h462.39l32.66,127.84Zm-457.73-6h450.01l-29.59-115.84H111.63l29.59,115.84Z"/>
    <path class="cls-14" d="M633.65,610.29H171.26l-36.08-141.22h462.39l36.08,141.22Zm-457.73-6h450l-33.01-129.22H142.9l33.01,129.22Z"/>
    <path class="cls-14" d="M668.34,746.08H205.95l-36.08-141.22h462.39l36.08,141.22Zm-457.73-6h450l-33.01-129.22H177.6l33.01,129.22Z"/>
    <path class="cls-14" d="M911.46,474.5h-318.7l-32.66-127.84h318.7l32.66,127.84Zm-314.04-6h306.31l-29.59-115.84h-306.31l29.59,115.84Z"/>
    <path class="cls-14" d="M946.15,610.29h-318.69l-36.08-141.22h318.7l36.08,141.22Zm-314.03-6h306.31l-33.01-129.22h-306.31l33.01,129.22Z"/>
    <path class="cls-14" d="M980.84,746.08h-318.7l-36.08-141.22h318.69l36.08,141.22Zm-314.04-6h306.31l-33.01-129.22h-306.31l33.01,129.22Z"/>
    <path class="cls-14" d="M1201.64,474.5h-296.37l-32.66-127.84h296.37l32.66,127.84Zm-291.71-6h283.99l-29.59-115.84h-283.99l29.59,115.84Z"/>
    <path class="cls-14" d="M1236.33,610.29h-296.37l-36.08-141.22h296.37l36.08,141.22Zm-291.71-6h283.99l-33.01-129.22h-283.99l33.01,129.22Z"/>
    <path class="cls-14" d="M1271.02,746.08h-296.37l-36.08-141.22h296.37l36.08,141.22Zm-291.71-6h283.99l-33.01-129.22h-283.99l33.01,129.22Z"/>
    <rect class="cls-14" x="252.15" y="407.58" width="177.64" height="6"/>
    <rect class="cls-14" x="287.04" y="544.15" width="177.64" height="6"/>
    <rect class="cls-14" x="321.92" y="680.71" width="177.64" height="6"/>
    <polygon class="cls-11" points="1143.25 258.05 84.36 258.05 107.77 349.66 1166.65 349.66 1143.25 258.05"/>
    <g>
      <path class="cls-19" d="M684.71,524.28l5.53,21.65h20.82l1.41,5.53h-20.82l5.58,21.84h-5.9l-5.58-21.84h-20.82l-1.41-5.53h20.82l-5.53-21.65h5.9Z"/>
      <path class="cls-19" d="M748.08,520.22h-22.85l1.63,15.39c1.33-.18,2.58-.37,4.79-.37,4.61,0,9.47,1.01,13.72,3.22,5.38,2.67,10.57,7.83,12.5,15.39,2.99,11.7-4.08,20.45-17.07,20.45-6.54,0-12.54-1.84-15.87-3.69l.45-6.17c2.86,1.47,8.22,3.32,13.65,3.32,7.65,0,12.92-4.98,10.87-12.99-2.07-7.74-8.64-13.27-20.62-13.27-3.41,0-5.99,.37-8.13,.64l-3.47-28.75h28.65l1.74,6.82Z"/>
      <path class="cls-19" d="M805.14,542.71c5.2,20.36,.52,31.6-12.75,31.6-11.7,0-22.43-10.96-27.67-30.77-5.13-20.09,.71-31.14,12.87-31.14s22.68,11.24,27.55,30.31Zm-32.29,.92c3.98,15.57,11.03,24.42,18.4,24.42,8.29,0,9.78-9.67,5.88-24.97-3.77-14.74-10.01-24.41-18.4-24.41-7.09,0-10.04,8.66-5.88,24.97Z"/>
      <path class="cls-19" d="M852.4,542.71c5.2,20.36,.52,31.6-12.75,31.6-11.7,0-22.42-10.96-27.67-30.77-5.13-20.09,.71-31.14,12.87-31.14s22.68,11.24,27.55,30.31Zm-32.29,.92c3.98,15.57,11.03,24.42,18.4,24.42,8.29,0,9.78-9.67,5.88-24.97-3.77-14.74-10.01-24.41-18.4-24.41-7.09,0-10.04,8.66-5.88,24.97Z"/>
    </g>
    <g>
      <path class="cls-19" d="M960.23,386.1h-.18l-8.97,5.62-3.14-6.17,11.29-7h6.91l15.3,59.89h-7.83l-13.37-52.33Z"/>
      <path class="cls-19" d="M1035.25,407.84c5.2,20.36,.52,31.6-12.75,31.6-11.7,0-22.42-10.96-27.67-30.77-5.13-20.09,.71-31.14,12.87-31.14s22.68,11.24,27.55,30.31Zm-32.29,.92c3.98,15.57,11.03,24.42,18.4,24.42,8.29,0,9.78-9.67,5.88-24.97-3.77-14.74-10.01-24.42-18.4-24.42-7.09,0-10.04,8.66-5.87,24.97Z"/>
      <path class="cls-19" d="M1082.52,407.84c5.2,20.36,.52,31.6-12.75,31.6-11.7,0-22.42-10.96-27.67-30.77-5.13-20.09,.71-31.14,12.87-31.14s22.68,11.24,27.55,30.31Zm-32.29,.92c3.98,15.57,11.03,24.42,18.4,24.42,8.29,0,9.78-9.67,5.88-24.97-3.77-14.74-10.01-24.42-18.4-24.42-7.09,0-10.04,8.66-5.87,24.97Z"/>
      <path class="cls-19" d="M1129.78,407.84c5.2,20.36,.52,31.6-12.75,31.6-11.7,0-22.42-10.96-27.67-30.77-5.13-20.09,.71-31.14,12.87-31.14s22.68,11.24,27.55,30.31Zm-32.29,.92c3.98,15.57,11.03,24.42,18.4,24.42,8.29,0,9.78-9.67,5.88-24.97-3.77-14.74-10.01-24.42-18.4-24.42-7.09,0-10.04,8.66-5.87,24.97Z"/>
    </g>
    <g>
      <path class="cls-19" d="M1021.47,657.37h-.18l-8.97,5.62-3.14-6.17,11.3-7h6.91l15.3,59.89h-7.83l-13.37-52.33Z"/>
      <path class="cls-19" d="M1086.69,656.63h-22.85l1.63,15.39c1.33-.18,2.58-.37,4.79-.37,4.61,0,9.47,1.01,13.72,3.22,5.38,2.67,10.57,7.83,12.5,15.39,2.99,11.7-4.08,20.45-17.07,20.45-6.54,0-12.54-1.84-15.87-3.69l.45-6.17c2.86,1.47,8.22,3.32,13.65,3.32,7.65,0,12.92-4.97,10.87-12.99-2.07-7.74-8.64-13.27-20.62-13.27-3.41,0-5.99,.37-8.13,.64l-3.47-28.75h28.65l1.74,6.82Z"/>
      <path class="cls-19" d="M1143.76,679.11c5.2,20.36,.52,31.6-12.75,31.6-11.7,0-22.42-10.96-27.67-30.77-5.13-20.09,.71-31.14,12.87-31.14s22.68,11.24,27.55,30.31Zm-32.29,.92c3.98,15.57,11.03,24.42,18.4,24.42,8.29,0,9.78-9.67,5.88-24.97-3.77-14.74-10.02-24.42-18.4-24.42-7.09,0-10.04,8.66-5.87,24.97Z"/>
      <path class="cls-19" d="M1191.02,679.11c5.2,20.36,.52,31.6-12.75,31.6-11.7,0-22.42-10.96-27.67-30.77-5.13-20.09,.71-31.14,12.87-31.14s22.68,11.24,27.55,30.31Zm-32.29,.92c3.98,15.57,11.03,24.42,18.4,24.42,8.29,0,9.78-9.67,5.88-24.97-3.77-14.74-10.02-24.42-18.4-24.42-7.09,0-10.04,8.66-5.87,24.97Z"/>
    </g>
    <rect class="cls-14" x="458.12" y="825.66" width="680.72" height="6"/>
    <g>
      <circle class="cls-15" cx="289.21" cy="798.86" r="185.02" transform="translate(-480.17 438.48) rotate(-45)"/>
      <path class="cls-5" d="M132.59,793.44c2.58,250.24,368.48,254.54,378.27,6.03-2.1-248.87-367.54-256.06-378.27-6.03Z"/>
      <path class="cls-4" d="M140.38,793.57c.26,238.43,354.84,244.07,362.68,5.78-.27-238.44-354.85-244.05-362.68-5.78Z"/>
      <g>
        <path class="cls-17" d="M371.42,800.77c-13.91-20.78-56.11-21.97-74.43-32.35-20.66-29.68,50.06-36.31,47.66-4.75,.69,9.81,19.21,4.67,25.05,5.67,4,.33,7.45-2.9,7.16-6.9-1.49-34.16-27.25-53.3-60.68-52.47-44.77-3.3-73.74,51.47-42.33,83.04,10.49,13.78,55.41,19.09,68.81,27.17,25.02,25.32-25,41.87-43.31,25.3-19.39-15.81,3.16-29.94-35.02-25.93-1.97,.03-3.85,.56-5.2,1.99-10.96,99.33,166.56,74.02,112.29-20.77Z"/>
        <path class="cls-17" d="M328.5,689.92c-30.01-.58-19.18,.65-20.7,26.26l24.56-.39c-1.17-3.08,2.66-26.74-3.86-25.87Z"/>
        <path class="cls-17" d="M314.24,902.92c30.01,.58,19.18-.65,20.7-26.26l-24.56,.39c1.17,3.08-2.66,26.74,3.86,25.87Z"/>
      </g>
      <path class="cls-9" d="M244.37,623.79l247.47,255.5c13.46-27.34,20.45-59.91,18.83-91.92l-173.83-179.47c-31.95-2.64-64.7,3.29-92.47,15.89Z"/>
      <path class="cls-9" d="M205.96,646.86l261.59,270.07c5.87-7.09,11.23-14.6,16.02-22.5l-254.6-262.86c-8.06,4.54-15.74,9.65-23.01,15.28Z"/>
      <path class="cls-8" d="M170.49,649.4c31.45,.74,38.37,7.96,37.72,39.41,.65-31.45,7.86-38.34,39.3-37.62-31.45-.73-38.37-7.96-37.73-39.41-.64,31.45-7.85,38.35-39.3,37.62Z"/>
    </g>
    <g>
      <circle class="cls-15" cx="635.21" cy="191.56" r="185.02" transform="translate(50.59 505.27) rotate(-45)"/>
      <path class="cls-5" d="M478.59,186.15c2.58,250.24,368.48,254.54,378.27,6.03-2.1-248.87-367.54-256.06-378.27-6.03Z"/>
      <path class="cls-4" d="M486.38,186.28c.26,238.43,354.84,244.07,362.69,5.78-.27-238.44-354.85-244.05-362.69-5.78Z"/>
      <g>
        <path class="cls-17" d="M717.42,193.48c-13.91-20.78-56.11-21.97-74.43-32.35-20.66-29.68,50.06-36.31,47.66-4.75,.69,9.81,19.21,4.67,25.05,5.67,4,.32,7.45-2.9,7.16-6.9-1.49-34.16-27.25-53.3-60.68-52.47-44.77-3.3-73.74,51.47-42.33,83.04,10.49,13.78,55.41,19.09,68.81,27.17,25.02,25.32-25,41.87-43.31,25.3-19.39-15.81,3.16-29.94-35.02-25.93-1.97,.03-3.85,.56-5.2,1.99-10.96,99.33,166.56,74.02,112.29-20.77Z"/>
        <path class="cls-17" d="M674.5,82.63c-30.01-.58-19.18,.65-20.7,26.26l24.56-.39c-1.17-3.08,2.66-26.74-3.86-25.87Z"/>
        <path class="cls-17" d="M660.23,295.63c30.01,.58,19.18-.65,20.7-26.26l-24.56,.39c1.17,3.08-2.66,26.74,3.86,25.87Z"/>
      </g>
      <path class="cls-9" d="M590.37,16.5l247.47,255.5c13.46-27.34,20.45-59.91,18.83-91.92L682.84,.62c-31.95-2.64-64.7,3.29-92.47,15.88Z"/>
      <path class="cls-9" d="M551.96,39.57l261.59,270.07c5.87-7.09,11.23-14.6,16.02-22.5L574.96,24.29c-8.06,4.54-15.74,9.65-23.01,15.28Z"/>
      <path class="cls-8" d="M516.49,42.11c31.45,.74,38.37,7.96,37.72,39.41,.65-31.45,7.86-38.34,39.3-37.62-31.45-.73-38.37-7.96-37.73-39.41-.64,31.45-7.85,38.35-39.3,37.62Z"/>
    </g>
    <g>
      <path class="cls-7" d="M1167.97,899.11c-9.34-6.93-18.24-14.61-28.09-20.69-9.85-6.08-20.92-10.57-32.3-10.37-1.93,.03-4.14,.37-5.2,2.08-1.06,1.72-.43,4.15,.91,5.62,1.35,1.47,3.23,2.22,5.04,2.92,6.01,2.32,12.02,4.64,18.04,6.96,1.72,.66,3.47,1.35,4.9,2.57,1.43,1.22,2.49,3.09,2.33,5.03-.25,3-3.07,4.83-5.05,6.97-2.89,3.13-4.26,7.79-3.57,12.12,.7,4.33,3.44,8.24,7.14,10.17,2.45,1.28,5.27,1.73,7.52,3.38,1.83,1.33,3.13,3.34,4.81,4.87,3.29,2.99,7.77,3.93,12.06,4.52,14.12,1.95,26.87,7.92,38.98,15.9-.11-7.26-1.78-10.69,2.67-16.19,1.4-1.72,8.34-9.96,8.34-9.96,0,0-29.19-18.97-38.53-25.9Z"/>
      <path class="cls-7" d="M1538.38,771.06c-2.24,19.08,1.11,29.38,5.81,48.01,4.7,18.63,11.64,36.61,18.56,54.53-21.94,29.6-42.73,59.9-64.67,89.49-.4-.67-.8-1.34-1.19-2.01-14.95-25.13-13.45-58.32-19.85-86.85,2.72-1.48,2.12-1.42,2.86-4.43,.74-3.01,.64-6.15,.53-9.24-.89-25.53-1.77-51.06-2.66-76.6,23.54-2.85,60.62-12.9,60.62-12.9Z"/>
      <path class="cls-6" d="M1538.38,781.89c-2.21,6.83-5.72,13.27-10.17,18.89-9.43,11.9-22.81,20.27-37.1,25.37-3.8,1.36-7.74,2.53-11.76,3.52-.21-6.03-.41-12.06-.62-18.09,8.23-1.34,16.36-3.29,23.95-6,13.61-4.86,26.39-12.68,35.71-23.68Z"/>
      <path class="cls-7" d="M1374.2,928.33l-58.72,59.26c-36.38-25-74.34-51.07-115.93-63.85-1.97,7.9-4.99,14.91-9.59,21.46,10.81,17.96,25.32,33.35,40.43,47.31,9.55,8.83,19.64,16.98,30.17,24.43,16.35,11.58,29.05,23.16,43.73,34.74,5.6,4.42,12.82,5.71,19.47,3.54,7.77-2.54,15.75-5.94,22.17-9.69,32.73-19.12,65.45-38.24,98.18-57.36-.69-.88-1.38-2.15-2.06-3.02l-67.86-56.82Z"/>
      <path class="cls-10" d="M1398.75,992.33c9.6,6.3,19.91,11.13,29.65,13.96-.71,8-1.19,16.03-1.45,24.09-1.58,49.46,5.08,99.58,15.45,147.72,1.52,7.04,1.58,15.15,3.93,21.93,42.78,10.82,83.8,14.45,125.3,11.39,21.58-1.59,43.29-4.99,65.44-10.14,2.18-.51,4.37-1.02,6.56-1.57,.44-.1,.88-.21,1.31-.32,.33-3.44,.66-6.87,.95-10.34,.08-.76,.13-1.51,.2-2.27,1.77-20.56,2.96-41.17,3.58-61.8,0-.26,.02-.53,.02-.79,.04-.89,.06-1.8,.08-2.7,.06-2,.11-4,.15-6,0-.27,0-.54,.02-.81,.04-2.02,.08-4.04,.1-6.06,.02-1.07,.04-2.16,.05-3.24,.04-2.22,.06-4.44,.07-6.66,.02-2.55,.03-5.08,.03-7.63,0-32.32-1.39-64.64-4.19-96.82-.33-3.87-.69-7.75-1.07-11.62-1.2-12.3,4.96-23.19,13.47-31.6,4.63-4.58,9.89-8.43,15.34-11.97,3.91-2.53,12.27,13.9,12.47,8.77,.42-10.86-14.56-42.97-21.02-50.89-7.85-9.62-17.5-17.76-28.07-24.24-18.24-11.17-38.76-17.8-59.3-23.32-4.65-1.25-9.57-2.08-13.88-4.3-2.78-1.44-5.02-3.46-8.07-4.41-7.52-2.33-15.17,4.02-22.52,5.85-12.12,3.01-24.86,3.22-37.06,.59-5.56-1.2-11.05-4.63-16.48-5.51-5.67-.91-13.78,2.86-19.26,4.4-5.39,1.5-10.74,3.13-16.03,4.93-8.79,2.97-17.43,6.4-25.83,10.44-1.59,.77-3.17,1.55-4.74,2.36-1.19,.61-2.37,1.23-3.54,1.87-21.89,11.88-69.07,74.24-69.07,74.24,0,0,31.81,35.74,57.4,52.49Z"/>
      <path class="cls-18" d="M1571.64,1211.41c21.58-1.59,43.29-4.99,65.44-10.14,2.18-.51,4.37-1.02,6.56-1.57,1.03-3.29,1.83-6.48,2.26-10.63v-.03c.06-.51,.1-1.01,.14-1.54,.02-.24,.04-.49,.06-.73,1.59-20.58,2.95-41.15,3.58-61.8,0-.26,.02-.53,.02-.79,.02-.36,.03-.7,.04-1.05,.02-.55,.03-1.1,.04-1.64,.06-2,.11-4,.15-6,0-.27,0-.54,.02-.81,.04-2.02,.08-4.04,.1-6.06,.02-1.07,.04-2.16,.05-3.24,.04-2.22,.06-4.44,.07-6.66,.02-2.55,.03-5.08,.03-7.63,0-32.32-1.39-64.64-4.19-96.82-18.52-4.97-35.36-24.44-54.53-43.9-9.11-9.25-24.58-21.56-30.16-26.61,3.57,18.32,7.48,53.29,15.87,77.03,4.29,12.15,22.56,39.81,28.57,51.11,10.24,19.24,27.49,31.82,32.74,53.24,4.93,20.12-5.78,44.25-16.9,60.09-12.05,17.17-28.19,30.55-44.85,42.56-1.69,1.23-3.4,2.43-5.11,3.64Z"/>
      <path class="cls-7" d="M1558.49,730.21c2.53,16.73-3.23,34.14-13.74,47.4-10.51,13.26-25.42,22.59-41.36,28.28-10.32,3.69-21.54,6.11-32.76,7.58-10.65,1.4-20.87-4.62-24.79-14.62-7.6-19.38-15.92-39.27-18.34-60.11-1.78-15.37-.07-31.32,6.35-45.4,5.15-11.29,13.46-21.29,24.03-27.88,1.73-1.08,5.79-4.22,7.87-3.59,2.1,.64,4.89,5.35,6.4,6.98,4.64,5.03,9.51,9.86,14.56,14.49,21.13,19.36,45.51,35.37,71.77,46.87Z"/>
      <path class="cls-23" d="M1488.56,694.01c-12.57,5.69-29.26,8.16-38.87,18.05-2.26,2.32-8.38,9.14-12.01,17.65-5.01,11.76-7.39,25.67-7.39,25.67,0,0-1.92-8.82-2.38-12.59-.91-7.42-1.32-14.91-1.2-22.38,.55-33.97,13.52-67.57,44.53-84.68,0,0,54.06-24.15,91.28,22.92,4.38,5.38,7.6,11.99,10.12,18.4,7.26,18.46,7.58,38.88,.68,57.51-2.34,6.31-5.4,12.39-9.04,18.04-2.04,3.15-2.32,3.73-6.08,3.06-2.82-.5-5.64-1.52-8.3-2.56-11.14-4.35-20.9-11.84-28.95-20.59-11.07-12.04-19.22-26.41-27.27-40.65-1.72,.67-3.42,1.39-5.1,2.15Z"/>
      <path class="cls-23" d="M1634.44,803.03c-2.15,6.97-8.1,12.63-15.17,14.43-7.07,1.8-15-.31-20.23-5.4-7.21-7.01-8.6-18.09-7.87-28.12,1.86-25.49,14.38-48.76,25.21-71.9,10.83-23.15,20.41-48.57,15.89-73.73-4.09-22.76-20.36-42.96-41.72-51.8-21.36-8.85-47.15-6.06-66.13,7.15-11.13,7.75-20.1,19.26-22.64,32.59-.43,2.24,.09,4.31,.37,6.57,12.26-7.56,28.28-8.62,41.44-2.76,13.16,5.86,23.08,18.49,25.66,32.66,2.42,13.28-1.27,26.8-3.95,40.03-6.04,29.84-6.97,60.72-2.74,90.87,1.74,12.39,4.53,25.09,12.02,35.11,7.49,10.02,20.77,16.65,32.72,12.96,7.57-2.33,13.54-8.39,17.45-15.28,3.91-6.89,7.62-15.74,9.69-23.39Z"/>
      <rect class="cls-23" x="1500.54" y="615.77" width="12.66" height="26.12" rx="4.8" ry="4.8" transform="translate(504.2 1917.52) rotate(-74.77)"/>
      <path class="cls-27" d="M1436.06,677.74c.87-1.99,1.76-4.26,2.85-6.14,1.08-1.86,3.33-3.34,5.02-4.62,3.81-2.88,8.03-5.21,12.47-6.97,8.94-3.54,18.79-4.77,28.34-3.63,2.2,.26,4.38,.65,6.53,1.17,18.51,4.46,34.11,17.66,43.29,34.12,2.95,5.28,6.16,10.42,9.1,15.71,1.38,2.47,2.73,4.95,4.07,7.45,.34,.64,2.75,6.17,3.26,6.17,1.81,0-.85,0,.95,0-1.65-8.62-4.48-17.14-7.32-25.43-3.04-8.87-6.21-17.33-11.94-24.89-6.27-8.29-14.54-15.1-23.98-19.47-18.29-8.47-42.51-8.05-59.61,3.31-2.39,1.59-4.57,3.58-6,6.1-4.01,7.06-4.87,8.81-7.04,17.11Z"/>
      <g>
        <path class="cls-7" d="M1369.42,1550.16c-.59,12.68-2.2,25.32-4.82,37.74-2.32,10.98-7.07,21.57-9.22,32.44,6.4,.75,16.53-9.84,20.62-14.1,6.15-6.39,11.28-13.69,15.97-21.18,5.84-9.33,10.83-21.9,19.44-28.98,3.32-2.73,6.27-4.9,8.85-8.45,.92-1.27,10.59-14.51,10.23-14.88-17.06-18.29-25.89-43.99-23.68-68.9-4.69,2.34-8.76,4.57-13.92,5.43-4.3,.72-8.6,1.37-12.91,2.02-4.95,.75-12.6,.21-17.05,2.56-2.54,1.34-2,1.77-1.24,4.68,.74,2.84,1.47,5.68,2.13,8.54,2.52,11.01,4.22,22.2,5.11,33.45,.78,9.86,.94,19.76,.48,29.64Z"/>
        <g>
          <path class="cls-26" d="M1445.22,1531.19l10.84,5.45c2.3,1.16,3.11,4.04,1.77,6.24-9.78,16.1-20.58,31.05-33.12,45.21-8.03,9.08-17.37,18.51-27.02,25.84-9.65,7.33-21.37,16.67-33.47,17.39,9.84-4.97,16.72-18.46,24.15-26.61,16.3-17.9,32.6-35.81,48.89-53.71,2.52-2.76,5.06-5.57,6.77-8.9,1.71-3.33,2.34-7.37,1.17-10.92Z"/>
          <path class="cls-21" d="M1363.91,1630.7c6.48-3.27,11.67-10.36,16.69-17.21,2.47-3.38,4.81-6.57,7.26-9.25l48.89-53.71c2.45-2.69,4.99-5.48,6.67-8.75,1.76-3.42,2.17-7.21,1.13-10.38l-.53-1.61,12.35,6.21c1.27,.64,2.22,1.78,2.61,3.15,.39,1.37,.19,2.86-.55,4.08-10.18,16.76-21.04,31.58-33.19,45.32-9.57,10.81-18.69,19.53-27.12,25.94l-1.37,1.04c-9.24,7.03-20.73,15.79-32.48,16.49l-3.39,.2,3.03-1.53Zm80.76-88.27c-1.76,3.43-4.36,6.29-6.88,9.05l-48.89,53.71c-2.39,2.63-4.71,5.79-7.16,9.14-4.37,5.96-8.86,12.1-14.31,15.9,10.22-1.9,20.25-9.54,28.47-15.8l1.37-1.04c8.36-6.35,17.41-15.01,26.92-25.75,12.1-13.67,22.91-28.43,33.04-45.11,.55-.9,.69-1.96,.4-2.97-.29-1-.96-1.81-1.89-2.28l-9.46-4.76c.6,3.17,.04,6.7-1.61,9.92Z"/>
        </g>
        <path class="cls-20" d="M1425.98,1518.16c8.28,5.38,12.69,8.03,25.75,16.3-.41,9.48-8.29,18.12-13.93,25.75-12.83,17.35-24.77,32.38-41.58,48.97-9.89,9.77-21.31,19.26-34.7,22.98-4.06,1.13-8.43,1.58-12.48,.41s-7.72-4.2-8.86-8.25c-1.53-5.44,1.75-11.24,6.19-14.73,4.44-3.5,9.92-5.35,14.96-7.89,7.74-3.89,14.59-9.51,19.93-16.33l44.71-67.21Z"/>
        <path class="cls-25" d="M1294.02,1267.13c33.52,75.06,55.88,172.37,59.35,254.49,21.04,3.26,42.23-3.27,58.65-16.8,12.72-94.92-1.57-205.26-44.47-290.88-4.57,11.4-26.59-7.49-38.07,.58-21.51,15.12-35.46,52.6-35.46,52.6Z"/>
        <path class="cls-20" d="M1298.58,1282.87c7.62,9.99,16.25,37.21,20.49,50.72,27-13.05,54.98-36.47,72.07-61.09-3.95-12.78-8.44-25.38-13.45-37.77-10.25-2.36-33.94-13.39-44.08-16.21,2.66,.74-22.34,29.93-25.64,34.07-2.04,2.57-7.66,27.94-9.39,30.27Z"/>
        <path class="cls-7" d="M1099.92,1449.8c-11.19,6-22.86,11.1-34.87,15.22-10.61,3.64-22.14,4.99-32.58,8.72,2.64,5.88,16.92,9.14,22.68,10.48,8.63,2,17.53,2.67,26.37,2.85,11,.23,24.35-1.93,34.85,1.83,4.04,1.45,7.42,2.88,11.79,3.26,1.57,.14,17.89,1.65,18.02,1.16,6.96-24.03,24.49-44.78,47.02-55.66-4.41-2.83-8.41-5.18-11.8-9.17-2.82-3.32-5.59-6.68-8.36-10.04-3.19-3.86-6.64-10.71-10.94-13.33-2.45-1.5-2.54-.81-4.65,1.34-2.06,2.09-4.12,4.18-6.25,6.21-8.16,7.8-16.89,15-26.1,21.53-8.06,5.72-16.48,10.94-25.2,15.61Z"/>
        <g>
          <path class="cls-26" d="M1155.07,1505.15l.88,12.11c.19,2.57-1.87,4.74-4.45,4.72-18.84-.14-37.21-1.75-55.8-5.25-11.91-2.24-24.8-5.42-36.04-9.95-11.24-4.53-25.27-9.8-32.09-19.82,9.31,5.9,24.42,4.89,35.23,7.09,23.73,4.81,47.45,9.63,71.18,14.44,3.66,.74,7.38,1.49,11.11,1.25,3.73-.24,7.53-1.77,9.98-4.59Z"/>
          <path class="cls-21" d="M1151.49,1522.68c-19.61-.15-37.9-1.87-55.92-5.26-14.18-2.67-26.35-6.03-36.17-9.99l-1.59-.64c-10.78-4.32-24.19-9.71-30.81-19.43l-1.91-2.81,2.87,1.82c6.14,3.89,14.88,4.71,23.33,5.51,4.17,.39,8.1,.76,11.66,1.48l71.18,14.44c3.57,.72,7.27,1.47,10.93,1.24,3.84-.24,7.3-1.83,9.49-4.35l1.11-1.28,1,13.79c.1,1.41-.39,2.82-1.36,3.85-.97,1.03-2.33,1.62-3.75,1.62h-.04Zm-6.36-12.24c-3.85,.24-7.63-.52-11.3-1.27l-71.18-14.44c-3.49-.71-7.39-1.07-11.51-1.46-7.36-.69-14.93-1.41-20.99-4.13,6.87,7.8,18.58,12.5,28.17,16.34l1.59,.64c9.74,3.92,21.82,7.26,35.91,9.91,17.94,3.38,36.15,5.09,55.67,5.24h.03c1.04,0,2.01-.42,2.72-1.18,.71-.76,1.06-1.75,.99-2.79l-.76-10.56c-2.41,2.14-5.73,3.47-9.34,3.7Z"/>
        </g>
        <path class="cls-20" d="M1156.39,1481.95c-.37,9.87-.39,15.01-.79,30.47-8.35,4.51-19.8,2.17-29.25,1.24-21.48-2.11-40.5-4.67-63.37-10.59-13.46-3.49-27.46-8.42-37.52-18.01-3.05-2.91-5.68-6.42-6.75-10.5s-.35-8.78,2.54-11.84c3.88-4.11,10.54-4.26,15.82-2.24,5.28,2.02,9.67,5.77,14.44,8.8,7.31,4.65,15.65,7.65,24.24,8.74l80.63,3.93Z"/>
        <path class="cls-25" d="M1639.61,1132.39c-84.79,9.68-170.92,7.52-255.12-6.4-17.25-2.85-35.2-6.16-51.93-1.11-20.23,6.1-34.89,23.19-48.37,39.47-69.66,84.17-133.51,171.69-167.84,275.41,16.08,7.72,35.16,13.33,52.9,15.2,13.22-8.36,25.8-17.74,37.62-27.99,30.34-26.29,55.69-58.26,74.64-93.63,4.37-8.17,8.63-16.33,11.23-25.23,2.44-8.34,6.84-13.46,12.13-20.36,3.22-4.2,33.26-55.36,30.58-56.05,87.38,22.58,179.01,28.55,268.58,17.52,15.31-1.89,31.65-4.79,42.63-15.63,13.05-12.9,10.62-27.76,7.58-43.76-3.78-19.89-6.38-38.65-14.64-57.45Z"/>
      </g>
      <path class="cls-7" d="M1682.85,956.56c11.19,36.53,12.42,76.06,3.53,113.22-4.38,18.32-8.91,39.05-24.44,49.71-16.65,11.43-39.13,10.89-58.22,4.3-19.09-6.59-34.9-12.01-55.99-22.27-38.24-18.6-54.06-30.13-95.43-50.37-4.6-22.34,.42-31.22,10.38-44.49,48.95,26.73,100.9,47.49,155.33,53-6.36-29.86-10.79-60.62-15.5-91.54,14.5,9.01,19.69,10.92,36.69,9.44,17-1.48,30.92-9.61,43.64-21Z"/>
      <path class="cls-10" d="M1664.27,895.44c12.82,23.01,22.1,48.21,27.44,74.49,.67,3.29,1.11,7.2-1.22,9.76-1.49,1.64-3.72,2.23-5.81,2.73-26.68,6.37-59.46,9.98-86.54,11.14-7.61-14.89-10.8-33.19-11.41-50.36"/>
      <g>
        <g>
          <path class="cls-8" d="M1350.18,838.44c-31.3,53.05-38.82,115.26-53.66,175.05-9,36.25-10.25,65.4-17.05,101.11,63.15-21.71,141.29-26.84,205.13-7.24-11-78.41,6.35-160.48,48.12-227.74-63.42-3.23-124.53-15.34-182.54-41.18Z"/>
          <path class="cls-13" d="M1278.67,1114.45c2.76-14.51,4.63-28.09,6.43-41.22,2.72-19.75,5.28-38.4,10.63-59.94,3.46-13.94,6.57-28.25,9.58-42.09,9.88-45.42,20.1-92.4,44.16-133.18l.37-.63,.67,.3c54.3,24.18,113.91,37.62,182.24,41.11l1.4,.07-.74,1.19c-41.4,66.66-58.9,149.47-48,227.19l.18,1.28-1.24-.38c-59.82-18.36-138.22-15.58-204.62,7.23l-1.35,.46,.27-1.4Zm209.4-125.31c8.23-38.94,22.77-75.53,43.22-108.77-67.68-3.59-126.83-16.97-180.76-40.87-23.66,40.41-33.79,86.99-43.6,132.06-3.01,13.85-6.13,28.17-9.59,42.14-5.32,21.46-7.88,40.07-10.59,59.77-1.75,12.73-3.56,25.88-6.19,39.91,31.64-10.72,66.6-17.18,101.19-18.69,36.34-1.59,71.53,2.4,101.86,11.52-5.28-38.7-3.78-78.08,4.46-117.06Z"/>
        </g>
        <path class="cls-13" d="M1365.35,886.67c32.07,20.04,71.8,27.58,108.98,20.69l-.3-1.62c-36.79,6.82-76.08-.64-107.81-20.46l-.88,1.4Z"/>
        <path class="cls-13" d="M1366.64,926.91c30.66,21.04,69.4,30.42,106.29,25.76l-.21-1.64c-36.49,4.62-74.82-4.67-105.15-25.48l-.93,1.36Z"/>
        <path class="cls-13" d="M1339.69,966.49c14.85,14.06,33.7,24,54.53,28.77,20.83,4.77,42.13,4.01,61.62-2.19l-.5-1.57c-38.87,12.36-84.89,1.83-114.51-26.21l-1.13,1.2Z"/>
        <path class="cls-13" d="M1308.06,1015.41c43.14,24.22,95.32,30.91,143.17,18.35l-.42-1.6c-47.44,12.45-99.18,5.82-141.94-18.2l-.81,1.44Z"/>
        <path class="cls-13" d="M1355.42,1059.96c28.87,7.02,58.47,8.93,88,5.67l-.18-1.64c-29.34,3.23-58.75,1.33-87.43-5.64l-.39,1.6Z"/>
      </g>
      <g>
        <path class="cls-7" d="M1535.85,1046.63c-13.95-3.76-25.85-13.32-32.23-25.88-2.63-5.17-4.34-10.77-6.73-16.06-2.4-5.28-5.61-10.38-10.49-13.59,.14,2.42,.28,4.89-.3,7.29-.58,2.4-2,4.77-4.24,5.98-4.01,2.15-8.66-.1-12.37-2.32-14.3-8.57-28.59-17.13-42.89-25.7-1.82-1.09-3.7-2.2-5.85-2.49-2.15-.28-4.66,.47-5.83,2.34-1.78,2.85,.47,6.43,3.37,7.84l33.61,25.62c-2.23,.98-4.66,.25-6.78-.72-6.75-3.1-12.31-8.6-19.58-10.47l-20.61-9.94c-1.57-.95-5.43,.73-5.49,2.58-.06,1.86,1.25,3.39,2.59,4.63,2.24,2.07,4.77,3.83,7.28,5.58,8.58,5.98,17.17,11.96,25.75,17.94-10.23-3.4-20.46-6.79-30.69-10.19-.99-.33-2.11-.65-3.1-.19-1.26,.59-1.68,2.26-1.24,3.49,.44,1.23,1.5,2.12,2.54,2.92,7.21,5.54,15.67,9.57,24.7,11.77-.21,.48-.41,.96-.62,1.45-1.62,.55-3.16-.59-4.48-1.53-1.32-.94-3.29-1.68-4.57-.54-.88,.78-.94,2.14-.45,3.13,.49,.99,1.4,1.69,2.3,2.35,13.99,10.28,29.92,18.11,46.89,23.06,6.32,1.84,11.36,3.78,17.72,5.52,5.94,1.62,11.81,3.54,17.19,6.38,8.54,4.52,15.54,11.22,22.43,17.84,6.36-12.69,11.62-25.99,15.35-39.51-.81,.52-2.35,.91-3.17,1.43Z"/>
        <path class="cls-7" d="M1522.73,1085.64c-6.74-6.48-13.72-13.18-22.17-17.65-5.75-3.04-12.07-4.95-16.94-6.28-3.55-.97-6.74-2.02-9.83-3.03-2.51-.82-5.1-1.67-7.9-2.49-17.19-5.01-33.09-12.83-47.27-23.24-.85-.63-2.02-1.48-2.65-2.77-.67-1.36-.62-3.4,.78-4.64,.16-.14,.32-.26,.49-.37-5.58-2.27-10.84-5.27-15.52-8.87-1.13-.87-2.38-1.92-2.92-3.45-.61-1.72-.04-4.16,1.96-5.1,1.53-.72,3.13-.19,4.08,.13l22.15,7.35-18.49-12.88c-2.5-1.74-5.09-3.55-7.39-5.67-1.42-1.31-3.04-3.13-2.96-5.53,.04-1.22,.94-2.41,2.46-3.25,1.5-.83,3.64-1.29,4.94-.5l20.5,9.89c4.49,1.19,8.35,3.68,12.08,6.1,2.44,1.58,4.96,3.21,7.59,4.41,1.06,.48,1.99,.8,2.83,.96l-31-23.63c-2.13-1.08-3.8-3.04-4.35-5.15-.41-1.55-.19-3.07,.63-4.38,1.57-2.51,4.73-3.3,7.17-2.98,2.44,.33,4.5,1.56,6.32,2.65l42.89,25.69c3.59,2.15,7.72,4.11,11.08,2.3,1.7-.91,2.99-2.77,3.56-5.1,.54-2.24,.4-4.62,.26-6.92l-.16-2.65,2.2,1.45c4.4,2.89,7.87,7.37,10.91,14.08,1.04,2.29,1.96,4.65,2.84,6.95,1.17,3.03,2.39,6.15,3.87,9.06,6.11,12.03,17.66,21.4,30.98,25.14,.4-.19,.84-.36,1.27-.53,.51-.2,1.05-.4,1.34-.59l2.74-1.75-.84,3.05c-3.65,13.21-8.84,26.58-15.45,39.75l-.82,1.64-1.26-1.21Zm13.77-37.97l-.51,.32-.56-.15c-14.38-3.88-26.4-13.53-32.98-26.49-1.53-3.01-2.77-6.2-3.96-9.28-.88-2.26-1.79-4.6-2.8-6.83-2.32-5.12-4.87-8.83-7.9-11.46,.02,1.57-.07,3.2-.46,4.81-.75,3.07-2.54,5.57-4.93,6.85-4.57,2.45-9.7,.04-13.65-2.33l-42.89-25.69c-1.69-1.02-3.44-2.07-5.38-2.32-1.53-.2-3.59,.24-4.5,1.7-.44,.71-.55,1.52-.31,2.41,.38,1.46,1.68,2.95,3.22,3.7l35.47,27.01-2.03,.88c-2.88,1.26-5.86,.19-7.85-.72-2.79-1.28-5.38-2.96-7.89-4.58-3.77-2.44-7.33-4.74-11.49-5.81l-20.93-10.08c-.31-.19-1.36-.14-2.43,.46-.79,.44-1.05,.87-1.06,1.01-.05,1.44,1.16,2.75,2.21,3.72,2.18,2.01,4.7,3.77,7.16,5.48l33.02,23-39.23-13.02c-.79-.26-1.61-.5-2.13-.26-.52,.25-.77,1.16-.52,1.89,.34,.94,1.25,1.69,2.15,2.39,7.04,5.41,15.42,9.41,24.25,11.56l1.37,.33-1.43,3.32-.59,.2c-2.2,.75-4.12-.61-5.52-1.6l-.11-.08c-.99-.7-2.33-1.21-2.94-.67-.35,.31-.41,1.04-.12,1.62,.36,.72,1.09,1.3,1.95,1.93,13.95,10.24,29.6,17.94,46.52,22.87,2.85,.83,5.46,1.69,7.98,2.52,3.2,1.05,6.23,2.04,9.71,2.99,4.99,1.36,11.47,3.32,17.44,6.48,8.21,4.34,14.96,10.62,21.44,16.82,5.74-11.68,10.36-23.5,13.76-35.2-.23,.1-.43,.2-.58,.29Z"/>
      </g>
    </g>
  </g>
</svg>