<?xml version="1.0" encoding="UTF-8"?>
<svg id="Layer_2" data-name="Layer 2" xmlns="http://www.w3.org/2000/svg" viewBox="0 0 535 196.2">
  <defs>
    <style>
      .cls-1 {
        fill: #ea475f;
        font-family: PTSans-NarrowBold, 'PT Sans Narrow';
        font-weight: 700;
      }

      .cls-1, .cls-2 {
        font-size: 52.32px;
      }

      .cls-3, .cls-2 {
        fill: #fafbe7;
      }

      .cls-4 {
        fill: #eb465f;
      }

      .cls-2 {
        font-family: PTSans-Narrow, 'PT Sans Narrow';
      }
    </style>
  </defs>
  <g id="Layer_1-2" data-name="Layer 1">
    <text class="cls-2" transform="translate(199.47 124.67)"><tspan x="0" y="0">Sampurna Suvidha</tspan><tspan x="0" y="52.32">Kendra</tspan></text>
    <text class="cls-1" transform="translate(202.7 71.35)"><tspan x="0" y="0">FinSol</tspan></text>
    <g>
      <path class="cls-4" d="M158.7,80.66c0-1.09-.22-1.96-.22-3.05-.44-5.01-2.83-7.85-7.85-8.94-6.1-1.31-12.43-1.31-18.75-.87-5.89,.22-11.55,1.31-16.57,4.36-4.14,2.62-8.28,5.23-12.21,8.07-8.5,5.89-17.66,10.25-27.9,11.34-8.07,.65-16.13,.22-23.98-1.53-6.1-1.31-11.99-2.83-18.09-3.71-7.85-1.09-15.7-.87-23.54,1.09-1.96,.44-3.92,1.31-5.67,2.4C1.31,91.34,.22,93.96,0,96.79v1.31c0,27.47,0,55.15,0,82.62,0,9.16,6.54,15.48,15.48,15.48,9.59,0,19.18,0,28.78,0,8.94,0,15.48-6.32,15.48-15.26,.22-13.52,.22-27.03,.44-40.33,.22-5.01,.22-10.25,.65-15.26,1.09-10.25,8.5-17.88,18.53-20.06,5.67-1.31,11.12-1.09,16.57,.44,2.4,.44,2.83,1.09,2.83,3.49,.22,13.52,.44,27.25,.44,40.77,0,9.81,.44,19.84,.22,29.87-.22,8.94,6.54,15.91,14.39,15.91,10.9,0,21.58,.22,32.26-.22,7.85-.22,13.3-6.76,13.3-14.61,0-15.7,0-31.17,0-46.87v-3.92c0-16.57,0-33.14-.65-49.49Z"/>
      <path class="cls-3" d="M159.36,29.87h0c0-16.57-13.52-29.87-30.08-29.87-16.57,0-29.87,13.52-29.87,30.08,0,16.57,13.52,29.87,30.08,29.87,16.57-.22,29.87-13.73,29.87-30.08Z"/>
      <path class="cls-3" d="M31.39,74.99c16.57,0,29.87-13.52,29.87-30.08,0-16.57-13.52-29.87-30.08-29.87S1.31,28.56,1.31,45.13c0,16.79,13.52,30.08,30.08,29.87Z"/>
    </g>
  </g>
</svg>