<?xml version="1.0" encoding="UTF-8"?>
<svg id="Layer_2" data-name="Layer 2" xmlns="http://www.w3.org/2000/svg" viewBox="0 0 191.86 238.97">
  <defs>
    <style>
      .cls-1 {
        fill: #14a0de;
      }

      .cls-2 {
        fill: #203a72;
      }
    </style>
  </defs>
  <g id="Layer_1-2" data-name="Layer 1">
    <g>
      <path class="cls-2" d="M184.54,0H7.33C3.28,0,0,3.28,0,7.33V178.39c0,2.87,1.67,5.47,4.29,6.67,2.6,1.2,5.67,.74,7.84-1.14l17.35-15.06,17.35,15.06c2.75,2.39,6.86,2.39,9.6,0l17.35-15.06,17.35,15.06c2.75,2.39,6.86,2.39,9.6,0l17.35-15.06,17.35,15.06c2.75,2.39,6.86,2.39,9.6,0l17.35-15.06,17.35,15.06c1.36,1.18,3.07,1.8,4.8,1.8,1.03,0,2.07-.21,3.04-.66,2.61-1.2,4.29-3.8,4.29-6.67V7.33c0-4.05-3.28-7.33-7.33-7.33Zm-30.42,128.1h-39.47c-4.05,0-7.33-3.28-7.33-7.33s3.28-7.33,7.33-7.33h39.47c4.05,0,7.33,3.28,7.33,7.33s-3.28,7.33-7.33,7.33Zm0-36.27h-39.47c-4.05,0-7.33-3.28-7.33-7.33s3.28-7.33,7.33-7.33h39.47c4.05,0,7.33,3.28,7.33,7.33s-3.28,7.33-7.33,7.33Zm-10.33-35.71H48.65c-9.76,0-17.66-4.82-17.66-10.77s7.9-10.77,17.66-10.77h95.13c9.76,0,17.66,4.82,17.66,10.77s-7.9,10.77-17.66,10.77Zm-64.28,72.3H40.03c-4.05,0-7.33-3.28-7.33-7.33s3.28-7.33,7.33-7.33h39.47c4.05,0,7.33,3.28,7.33,7.33s-3.28,7.33-7.33,7.33Zm0-36.27H40.03c-4.05,0-7.33-3.28-7.33-7.33s3.28-7.33,7.33-7.33h39.47c4.05,0,7.33,3.28,7.33,7.33s-3.28,7.33-7.33,7.33Z"/>
      <path class="cls-1" d="M191.86,201.78v29.87c0,4.05-3.28,7.33-7.33,7.33H7.33c-4.05,0-7.33-3.28-7.33-7.33v-29.87c0-.61,.78-.8,1.1-.29,.75,1.23,1.86,2.23,3.19,2.82,2.57,1.24,5.71,.76,7.81-1.14l17.42-15.04,17.33,15.04c2.76,2.39,6.86,2.39,9.62,0l17.33-15.04,17.33,15.04c2.76,2.39,6.86,2.39,9.62,0l17.33-15.04,17.33,15.04c2.76,2.39,6.86,2.39,9.62,0l17.33-15.04,17.43,15.04c1.33,1.24,3.05,1.81,4.76,1.81,1.05,0,2.09-.19,3.05-.67,1.33-.59,2.44-1.6,3.19-2.82,.32-.52,1.1-.32,1.1,.29Z"/>
    </g>
  </g>
</svg>