<?xml version="1.0" encoding="UTF-8"?>
<svg id="Layer_2" data-name="Layer 2" xmlns="http://www.w3.org/2000/svg" viewBox="0 0 358.56 248.6">
  <defs>
    <style>
      .cls-1 {
        fill: #fff;
      }

      .cls-2 {
        fill: #14a0de;
      }

      .cls-3 {
        fill: #203a72;
      }
    </style>
  </defs>
  <g id="Layer_1-2" data-name="Layer 1">
    <g>
      <g>
        <path class="cls-3" d="M331.28,51.96h-88.98V224.61h99.99V62.96c0-6.06-4.95-11.01-11.01-11.01Zm-48.29,139.06c0,2.75-2.25,5-5,5h-6.67c-2.75,0-5-2.25-5-5v-14.6c0-2.75,2.25-5,5-5h6.67c2.75,0,5,2.25,5,5v14.6Zm0-45.45c0,2.75-2.25,5-5,5h-6.67c-2.75,0-5-2.25-5-5v-14.6c0-2.75,2.25-5,5-5h6.67c2.75,0,5,2.25,5,5v14.6Zm0-45.46c0,2.75-2.25,5-5,5h-6.67c-2.75,0-5-2.25-5-5v-14.59c0-2.76,2.25-5,5-5h6.67c2.75,0,5,2.25,5,5v14.59Zm35.14,90.91c0,2.75-2.25,5-5,5h-6.67c-2.75,0-5-2.25-5-5v-14.6c0-2.75,2.25-5,5-5h6.67c2.75,0,5,2.25,5,5v14.6Zm0-45.45c0,2.75-2.25,5-5,5h-6.67c-2.75,0-5-2.25-5-5v-14.6c0-2.75,2.25-5,5-5h6.67c2.75,0,5,2.25,5,5v14.6Zm0-45.46c0,2.75-2.25,5-5,5h-6.67c-2.75,0-5-2.25-5-5v-14.59c0-2.76,2.25-5,5-5h6.67c2.75,0,5,2.25,5,5v14.59Z"/>
        <path class="cls-3" d="M16.26,63.02V224.61H116.25V51.96H27.27c-6.06,0-11.01,4.95-11.01,11.06Zm59.3,22.5c0-2.76,2.25-5,5-5h6.67c2.75,0,5,2.25,5,5v14.59c0,2.75-2.25,5-5,5h-6.67c-2.75,0-5-2.25-5-5v-14.59Zm0,45.45c0-2.75,2.25-5,5-5h6.67c2.75,0,5,2.25,5,5v14.6c0,2.75-2.25,5-5,5h-6.67c-2.75,0-5-2.25-5-5v-14.6Zm0,45.45c0-2.75,2.25-5,5-5h6.67c2.75,0,5,2.25,5,5v14.6c0,2.75-2.25,5-5,5h-6.67c-2.75,0-5-2.25-5-5v-14.6ZM40.43,85.52c0-2.76,2.25-5,5-5h6.67c2.75,0,5,2.25,5,5v14.59c0,2.75-2.25,5-5,5h-6.67c-2.75,0-5-2.25-5-5v-14.59Zm0,45.45c0-2.75,2.25-5,5-5h6.67c2.75,0,5,2.25,5,5v14.6c0,2.75-2.25,5-5,5h-6.67c-2.75,0-5-2.25-5-5v-14.6Zm0,45.45c0-2.75,2.25-5,5-5h6.67c2.75,0,5,2.25,5,5v14.6c0,2.75-2.25,5-5,5h-6.67c-2.75,0-5-2.25-5-5v-14.6Z"/>
        <path class="cls-3" d="M244.15,16.76V5c0-2.76-2.24-5-5-5H119.41c-2.76,0-5,2.24-5,5v11.75c0,2.76,2.24,5,5,5h8.87V224.57h101.99V21.76h8.87c2.76,0,5-2.24,5-5Zm-74.1,174.27c0,2.75-2.25,5-5,5h-6.67c-2.75,0-5-2.25-5-5v-14.6c0-2.75,2.25-5,5-5h6.67c2.75,0,5,2.25,5,5v14.6Zm0-45.45c0,2.75-2.25,5-5,5h-6.67c-2.75,0-5-2.25-5-5v-14.6c0-2.75,2.25-5,5-5h6.67c2.75,0,5,2.25,5,5v14.6Zm35.14,45.45c0,2.75-2.25,5-5,5h-6.67c-2.75,0-5-2.25-5-5v-14.6c0-2.75,2.25-5,5-5h6.67c2.75,0,5,2.25,5,5v14.6Zm0-45.45c0,2.75-2.25,5-5,5h-6.67c-2.75,0-5-2.25-5-5v-14.6c0-2.75,2.25-5,5-5h6.67c2.75,0,5,2.25,5,5v14.6Z"/>
      </g>
      <path class="cls-2" d="M0,242.59H0c0,3.32,2.69,6.02,6.02,6.02H352.54c3.32,0,6.02-2.69,6.02-6.02h0c0-3.32-2.69-6.02-6.02-6.02H6.02c-3.32,0-6.02,2.69-6.02,6.02Z"/>
    </g>
    <path class="cls-1" d="M182.55,35.75h7.83l3-4.51h-29.4l-3,4.51h5.1c5.17,0,9.94,.4,11.85,4.72h-13.95l-3,4.51h17.51s0,.02,0,.03c0,3.24-2.69,8.21-11.58,8.21h-4.3s0,4.21,0,4.21l17.22,21.53h7.67l-17.83-22.27c7.34-.4,14.22-4.5,15.21-11.7h5.48l3-4.51h-8.56c-.35-1.74-1.1-3.42-2.27-4.72Z"/>
  </g>
</svg>