<?xml version="1.0" encoding="UTF-8"?>
<svg id="Layer_2" data-name="Layer 2" xmlns="http://www.w3.org/2000/svg" viewBox="0 0 198.37 249.22">
  <defs>
    <style>
      .cls-1 {
        fill: #fff;
      }

      .cls-2 {
        fill: #14a0de;
      }

      .cls-3 {
        fill: #203a72;
      }
    </style>
  </defs>
  <g id="Layer_1-2" data-name="Layer 1">
    <g>
      <path class="cls-3" d="M155.82,149.46c3.3,0,6.56,.3,9.76,.84V57.94h-50.54c-4.09,0-7.4-3.3-7.4-7.4V0H7.4C3.3,0,0,3.3,0,7.4V205.38c0,4.09,3.3,7.4,7.4,7.4H98.92c-.25-1.97-.35-3.99-.35-6.07,0-31.56,25.69-57.25,57.25-57.25ZM41.08,43.15h36.05c4.09,0,7.4,3.3,7.4,7.4s-3.3,7.4-7.4,7.4H41.08c-4.09,0-7.4-3.3-7.4-7.4s3.3-7.4,7.4-7.4Zm0,39.4H124.51c4.09,0,7.4,3.3,7.4,7.4s-3.3,7.4-7.4,7.4H41.08c-4.09,0-7.4-3.3-7.4-7.4s3.3-7.4,7.4-7.4Zm0,39.4H124.51c4.09,0,7.4,3.3,7.4,7.4s-3.3,7.4-7.4,7.4H41.08c-4.09,0-7.4-3.3-7.4-7.4s3.3-7.4,7.4-7.4Zm39.15,54.14H41.08c-4.09,0-7.4-3.3-7.4-7.4s3.3-7.4,7.4-7.4h39.15c4.09,0,7.4,3.35,7.4,7.4s-3.3,7.4-7.4,7.4Z"/>
      <path class="cls-3" d="M163.41,41.62L123.96,2.17c-.46-.46-.98-.82-1.54-1.14V43.16h42.13c-.32-.55-.68-1.08-1.14-1.54Z"/>
    </g>
    <path class="cls-2" d="M155.87,164.27c-23.47,0-42.5,19.03-42.5,42.5,0,21.92,16.6,39.91,37.91,42.21,25.52,2.66,47.09-17.23,47.09-42.21,0-23.47-19.03-42.5-42.5-42.5Z"/>
    <path class="cls-1" d="M160.71,190.89h7.83l3-4.51h-29.4l-3,4.51h5.1c5.17,0,9.94,.4,11.85,4.72h-13.95l-3,4.51h17.51s0,.02,0,.03c0,3.24-2.69,8.21-11.58,8.21h-4.3s0,4.21,0,4.21l17.22,21.53h7.67l-17.83-22.27c7.34-.4,14.22-4.5,15.21-11.7h5.48l3-4.51h-8.56c-.35-1.74-1.1-3.42-2.27-4.72Z"/>
  </g>
</svg>