<?xml version="1.0" encoding="UTF-8"?>
<svg id="Layer_2" data-name="Layer 2" xmlns="http://www.w3.org/2000/svg" viewBox="0 0 223.59 259.99">
  <defs>
    <style>
      .cls-1 {
        fill: #14a0de;
      }

      .cls-2 {
        fill: #203a72;
      }
    </style>
  </defs>
  <g id="Layer_1-2" data-name="Layer 1">
    <g>
      <path class="cls-2" d="M204.03,0H51.18c-10.78,0-19.52,8.74-19.52,19.52v112.68c4.6-1.17,9.42-1.81,14.4-1.81,32.03,0,58.11,26.08,58.11,58.11,0,7.69-1.47,15.07-4.33,21.97h104.2c10.82,0,19.56-8.78,19.56-19.56V19.52c0-10.78-8.74-19.52-19.56-19.52Zm-30.37,30.83c0-1.51,1.24-2.71,2.75-2.71h8.18c1.51,0,2.71,1.21,2.71,2.71v45.64c0,1.51-1.21,2.71-2.71,2.71h-8.18c-1.51,0-2.75-1.21-2.75-2.71V30.83Zm-22.01,14.36c0-1.51,1.21-2.71,2.71-2.71h8.22c1.47,0,2.71,1.21,2.71,2.71v31.28c0,1.51-1.24,2.71-2.71,2.71h-8.22c-1.51,0-2.71-1.21-2.71-2.71v-31.28Zm-22.05,14.32c0-1.47,1.24-2.71,2.71-2.71h8.22c1.51,0,2.71,1.24,2.71,2.71v16.96c0,1.51-1.21,2.71-2.71,2.71h-8.22c-1.47,0-2.71-1.21-2.71-2.71v-16.96ZM95.65,27.29c0-.87,.72-1.58,1.62-1.58,12.4,0,22.46,10.06,22.46,22.46,0,.9-.72,1.62-1.58,1.62h-20.88c-.9,0-1.62-.72-1.62-1.62V27.29Zm-7.95,7.99c.87,0,1.58,.72,1.58,1.62v17.94c0,.72,.6,1.28,1.32,1.28h17.94c.9,0,1.62,.75,1.62,1.62,0,12.4-10.1,22.5-22.46,22.5s-22.5-10.06-22.5-22.5,10.1-22.46,22.5-22.46Zm101.41,147.09h-56.04c-3.2,0-5.77-2.56-5.77-5.77s2.56-5.77,5.77-5.77h56.04c3.2,0,5.77,2.6,5.77,5.77s-2.56,5.77-5.77,5.77Zm0-32.71H118.64c-3.17,0-5.77-2.6-5.77-5.77s2.6-5.77,5.77-5.77h70.47c3.2,0,5.77,2.56,5.77,5.77s-2.56,5.77-5.77,5.77Zm0-32.75H66.1c-3.17,0-5.77-2.56-5.77-5.77s2.6-5.77,5.77-5.77h123.01c3.2,0,5.77,2.6,5.77,5.77s-2.56,5.77-5.77,5.77Z"/>
      <path class="cls-1" d="M82.42,216.72c6.06-7.8,9.69-17.59,9.69-28.21,0-25.4-20.66-46.06-46.06-46.06S0,163.11,0,188.51s20.66,46.06,46.06,46.06c10.62,0,20.41-3.62,28.21-9.69l33.42,33.42c1.13,1.13,2.6,1.69,4.08,1.69s2.95-.56,4.08-1.69c2.25-2.25,2.25-5.91,0-8.16l-33.42-33.42ZM11.54,188.51c0-19.03,15.48-34.52,34.52-34.52s34.52,15.48,34.52,34.52-15.48,34.52-34.52,34.52-34.52-15.48-34.52-34.52Z"/>
    </g>
    <path class="cls-1" d="M50.08,173.53h6.8l2.6-3.91h-25.53l-2.6,3.91h4.43c4.49,0,8.63,.35,10.29,4.1h-12.12l-2.6,3.91h15.21s0,.02,0,.03c0,2.81-2.34,7.13-10.06,7.13h-3.74s0,3.65,0,3.65l14.96,18.7h6.66l-15.48-19.34c6.37-.34,12.35-3.91,13.21-10.16h4.76l2.6-3.91h-7.43c-.3-1.51-.95-2.97-1.97-4.1Z"/>
  </g>
</svg>