<?xml version="1.0" encoding="UTF-8"?>
<svg id="Layer_2" data-name="Layer 2" xmlns="http://www.w3.org/2000/svg" viewBox="0 0 310.41 237.87">
  <defs>
    <style>
      .cls-1 {
        fill: #fff;
      }

      .cls-2 {
        fill: #14a0de;
      }

      .cls-3 {
        fill: #203a72;
      }
    </style>
  </defs>
  <g id="Layer_1-2" data-name="Layer 1">
    <g>
      <path class="cls-3" d="M252.86,51.77c7.48-15.62,15.81-34.45,15.81-41.74,0-9.28-11.55-14.1-18.55-4.26-9.18,12.78-13.06-5.77-23.66-5.77s-15.9,17.22-24.04,5.68c-7.38-10.51-20.07-4.16-20.07,4.07,0,9.94,7.95,27.92,15.43,42.5-15.62,12.21-33.41,30.95-44.77,51.3,40.04,.1,72.6,32.75,72.6,72.88,0,14.48-4.26,27.92-11.55,39.18,3.78,.38,7.67,.57,11.55,.57,46.85,0,84.81-23.38,84.81-72.69,0-34.17-31.9-71.84-57.55-91.71Zm23.28,70.42c-.85,.47-1.8,.75-2.74,.75-1.99,0-3.88-1.04-4.92-2.84-6.06-10.69-15.14-22.05-25.56-31.99-2.27-2.18-2.37-5.77-.19-7.95,2.18-2.37,5.77-2.37,8.04-.19,11.17,10.6,21.01,22.9,27.54,34.45,1.51,2.75,.57,6.25-2.18,7.76Z"/>
      <g>
        <path class="cls-3" d="M63.7,186.8c-24.28,0-49.48-5.22-63.7-15.06v22.44c0,9.22,24.2,21.98,63.7,21.98,9.83,0,18.75-.77,26.51-2.15-5.07-8.45-8.45-17.9-9.84-28.04-5.53,.54-11.14,.84-16.67,.84Z"/>
        <path class="cls-3" d="M63.7,175.27c5.68,0,11.06-.23,16.06-.77,.31-10.84,2.92-21.05,7.45-30.28-7.68,1.16-15.67,1.69-23.51,1.69-24.28,0-49.48-5.23-63.7-15.06v22.44c0,9.22,24.2,21.97,63.7,21.97Z"/>
        <path class="cls-3" d="M63.7,134.39c12.14,0,22.74-1.23,31.73-3.15,8.22-10.45,19.21-18.59,31.96-23.35v-17.9c-14.22,9.83-39.42,15.06-63.7,15.06S14.22,99.82,0,89.99v22.44c0,9.22,24.2,21.97,63.7,21.97Z"/>
        <path class="cls-3" d="M63.72,93.49c39.49,0,63.7-12.76,63.7-21.98v-22.44c-14.22,9.84-39.42,15.06-63.7,15.06S14.24,58.92,.02,49.08v22.44c0,9.22,24.2,21.98,63.7,21.98Z"/>
        <ellipse class="cls-3" cx="63.72" cy="30.64" rx="63.7" ry="21.97"/>
        <path class="cls-2" d="M152.78,114.89c-33.91,0-61.49,27.59-61.49,61.49s27.59,61.49,61.49,61.49,61.49-27.59,61.49-61.49-27.58-61.49-61.49-61.49Z"/>
      </g>
    </g>
    <path class="cls-1" d="M156.68,159.38h7.83l3-4.51h-29.4l-3,4.51h5.1c5.17,0,9.94,.4,11.85,4.72h-13.95l-3,4.51h17.51s0,.02,0,.03c0,3.24-2.69,8.21-11.58,8.21h-4.3s0,4.21,0,4.21l17.22,21.53h7.67l-17.83-22.27c7.34-.4,14.22-4.5,15.21-11.7h5.48l3-4.51h-8.56c-.35-1.74-1.1-3.42-2.27-4.72Z"/>
  </g>
</svg>