<?xml version="1.0" encoding="UTF-8"?>
<svg id="Layer_2" data-name="Layer 2" xmlns="http://www.w3.org/2000/svg" viewBox="0 0 240.32 256.14">
  <defs>
    <style>
      .cls-1 {
        fill: #14a0de;
      }

      .cls-2 {
        fill: #203a72;
      }
    </style>
  </defs>
  <g id="Layer_1-2" data-name="Layer 1">
    <g>
      <g>
        <path class="cls-1" d="M129.39,213.77c-.5,.66-.84,1.43-.98,2.25l-5.73,34.2c-.31,1.84,.42,3.71,1.91,4.86,.9,.7,2,1.05,3.1,1.05,.71,0,1.42-.15,2.08-.45l31.62-14.23c.77-.35,1.44-.88,1.95-1.54l2.48-3.24-33.94-26.17-2.5,3.27Z"/>
        <path class="cls-1" d="M235.04,124.08l-12.44-9.6c-2.88-2.22-6.46-3.19-10.05-2.71-3.61,.47-6.81,2.32-9.02,5.2l-62.78,81.95,33.94,26.17,62.83-82.02c4.54-5.93,3.42-14.45-2.48-19.01Z"/>
      </g>
      <g>
        <polygon class="cls-2" points="82.93 33.33 82.59 33.33 77.76 48.75 87.77 48.75 82.93 33.33"/>
        <path class="cls-2" d="M161.27,0H13.51C6.05,0,0,6.04,0,13.5V207.27c0,7.46,6.05,13.51,13.51,13.51H112.84l1.23-7.18c.51-3.14,1.8-6.11,3.76-8.69l56.95-74.33V13.5c0-7.46-6.05-13.5-13.51-13.5ZM89.77,22.38l14.67,43.49h-11.3l-2.86-9.13h-15.02l-2.86,9.13h-11.3l14.67-43.49h13.99Zm-63.26,0H63.27v8.54h-13.19v34.95h-10.36V30.91h-13.21v-8.54ZM102.64,182.44H38.01c-4.04,0-7.29-3.31-7.29-7.28s3.25-7.29,7.29-7.29H102.64c4.04,0,7.29,3.2,7.29,7.29s-3.25,7.28-7.29,7.28Zm34.14-39.72H38.01c-4.04,0-7.29-3.25-7.29-7.28s3.25-7.28,7.29-7.28h98.77c3.98,0,7.29,3.25,7.29,7.28s-3.31,7.28-7.29,7.28Zm0-39.66H38.01c-4.04,0-7.29-3.25-7.29-7.29s3.25-7.28,7.29-7.28h98.77c3.98,0,7.29,3.31,7.29,7.28s-3.31,7.29-7.29,7.29Zm-.57-37.19l-8.15-13.89h-.34l-8.15,13.89h-11.97l13.48-21.74-13.14-21.75h11.85l7.94,13.74h.34l8.03-13.74h11.76l-13.12,21.75,13.55,21.74h-12.06Z"/>
      </g>
    </g>
  </g>
</svg>